<?xml version="1.0" encoding="UTF-8" standalone="no"?>
<svg width="27px" height="27px" viewBox="0 0 27 27" version="1.1" xmlns="http://www.w3.org/2000/svg" xmlns:xlink="http://www.w3.org/1999/xlink" xmlns:sketch="http://www.bohemiancoding.com/sketch/ns">
    <!-- Generator: Sketch 3.4.4 (17249) - http://www.bohemiancoding.com/sketch -->
    <title>Group</title>
    <desc>Created with Sketch.</desc>
    <defs></defs>
    <g id="Page-1" stroke="none" stroke-width="1" fill="none" fill-rule="evenodd" sketch:type="MSPage">
        <g id="Group" sketch:type="MSLayerGroup" transform="translate(1.000000, 1.000000)" stroke-width="1.5">
            <path d="M0.0571321866,4.32241736 C0.367049542,3.08274793 1.54473549,2.35960744 2.49514872,1.59514463 C4.00341318,0.376136364 6.54473549,1.38853306 7.12324789,3.37200413 C7.41250409,4.32241736 7.66043797,5.29349174 7.90837186,6.24390496 C8.321595,7.81415289 7.70176029,9.09514463 6.04886772,10.1075413 C7.35052062,14.3637397 10.036471,17.1529959 14.0447355,18.5372934 C14.4166363,18.6612603 14.643909,18.619938 14.9125041,18.3306818 C15.5116776,17.6695248 16.1315124,16.9670455 17.1232479,16.8637397 C17.5984545,16.8224174 18.0943223,16.8224174 18.5695289,16.9257231 C19.5199421,17.1323347 20.4496942,17.4213843 21.4001074,17.690186 C23.2389504,18.2067149 24.2720082,20.334814 23.4042396,22.0496901 C23.3009338,22.2563017 23.1563057,22.4629132 22.9910165,22.6282025 C22.4744876,23.1860537 21.9579586,23.7230372 21.4001074,24.2191116 C21.1315124,24.4670455 20.7802727,24.6529959 20.429033,24.7769628 C19.7265537,25.0042355 16.9166363,24.6116736 15.7596115,24.3430785 C7.82572723,22.3802686 2.76374376,17.4629132 0.614983426,9.57035124 C0.2430826,8.35134298 -0.149479384,5.16952479 0.0571321866,4.32241736 L0.0571321866,4.32241736 Z" id="Stroke-1" stroke="#313B3E" stroke-linecap="square" sketch:type="MSShapeGroup"></path>
            <path d="M13.1149834,0.128243802 C13.1149834,0.128243802 23.5488677,0.128243802 24.5819256,11.595186" id="Stroke-3" stroke="#F18F00" stroke-linecap="round" sketch:type="MSShapeGroup"></path>
            <path d="M13.1149834,4.96293388 C13.1149834,4.96293388 18.8381239,5.0042562 19.7058925,11.3678926" id="Stroke-5" stroke="#F18F00" stroke-linecap="round" sketch:type="MSShapeGroup"></path>
            <path d="M13.1149834,9.73568182 C13.1149834,9.73568182 14.767876,10.024938 14.9538264,11.6158471" id="Stroke-7" stroke="#F18F00" stroke-linecap="round" sketch:type="MSShapeGroup"></path>
        </g>
    </g>
</svg>