<?xml version="1.0" encoding="UTF-8"?>
<!DOCTYPE svg PUBLIC "-//W3C//DTD SVG 1.1//EN" "http://www.w3.org/Graphics/SVG/1.1/DTD/svg11.dtd">
<svg version="1.1" xmlns="http://www.w3.org/2000/svg" xmlns:xlink="http://www.w3.org/1999/xlink" x="0" y="0" width="70" height="80" viewBox="0, 0, 70, 80">
  <g id="Page-1">
    <path d="M29.224,16.547 C25.185,16.547 21.901,19.872 21.901,23.939 C21.901,25.654 22.491,27.234 23.47,28.491 L20.059,37.385 L24.547,35.553 L26.736,39.786 L29.219,32.95 L31.82,39.772 L33.866,35.503 L38.412,37.503 L34.857,28.652 C35.912,27.371 36.547,25.727 36.547,23.939 C36.547,19.872 33.263,16.547 29.224,16.547 L29.224,16.547 z M29.224,18.297 C32.308,18.297 34.797,20.808 34.797,23.939 C34.797,27.069 32.308,29.578 29.224,29.578 C26.141,29.578 23.651,27.069 23.651,23.939 C23.651,20.808 26.141,18.297 29.224,18.297 L29.224,18.297 z" fill="#FFFFFF" id="Shape"/>
    <path d="M57.103,0.579 C53.793,0.579 50.618,1.894 48.277,4.235 C45.937,6.575 44.622,9.75 44.622,13.06 C44.622,16.37 45.937,19.545 48.278,21.885 C50.619,24.225 53.793,25.54 57.103,25.54 C63.995,25.539 69.582,19.952 69.582,13.06 C69.583,9.75 68.268,6.576 65.928,4.235 C63.587,1.895 60.413,0.58 57.103,0.579 L57.103,0.579 z M57.054,7.733 L58.522,11.707 L62.679,11.724 L59.357,14.347 L60.109,16.696 L60.628,18.309 L57.105,15.956 L53.733,18.387 L54.882,14.311 L51.527,11.851 L55.756,11.684 L57.054,7.733 L57.054,7.733 z" fill="#FFFFFF" id="Shape"/>
    <path d="M0.418,79.58 L0.418,10.969 L42.754,10.969 L42.754,12.719 L2.164,12.719 L2.164,77.83 L56.281,77.83 L56.281,27.969 L58.031,27.96 L58.031,79.576 L0.418,79.58 z" fill="#FFFFFF" id="Shape"/>
    <path d="M11.762,43.789 L11.762,45.539 L46.688,45.539 L46.688,43.789 L11.762,43.789 L11.762,43.789 z" fill="#FFFFFF" id="Shape"/>
    <path d="M18.294,64.683 L18.294,66.433 L40.157,66.433 L40.157,64.683 L18.294,64.683 L18.294,64.683 z" fill="#FFFFFF" id="Shape"/>
    <path d="M11.762,50.753 L11.762,52.503 L46.688,52.503 L46.688,50.753 L11.762,50.753 L11.762,50.753 z" fill="#FFFFFF" id="Shape"/>
    <path d="M11.762,57.719 L11.762,59.469 L46.688,59.469 L46.688,57.719 L11.762,57.719 L11.762,57.719 z" fill="#FFFFFF" id="Shape"/>
  </g>
</svg>
