<svg id="Layer_1" data-name="Layer 1" xmlns="http://www.w3.org/2000/svg" viewBox="0 0 32 32"><defs><style>.cls-1{fill:#313b3e;}.cls-2,.cls-3{fill:none;}.cls-2{stroke:#313b3e;stroke-linecap:round;stroke-miterlimit:10;}</style></defs><title>discussion</title><g id="_Group_" data-name="&lt;Group&gt;"><path class="cls-1" d="M20.66,13.33c3.84,0,7,2.42,7,5.39a4.52,4.52,0,0,1-1.1,2.9,1.43,1.43,0,0,0-.3,1.29,9.86,9.86,0,0,0,.75,2,8.68,8.68,0,0,1-2.51-1,1.55,1.55,0,0,0-1.26-.16,8.68,8.68,0,0,1-2.55.38c-3.84,0-7-2.42-7-5.39s3.12-5.39,7-5.39m0-1c-4.4,0-8,2.86-8,6.39s3.57,6.39,8,6.39a9.7,9.7,0,0,0,2.84-.42l.16,0a.56.56,0,0,1,.29.08,10.41,10.41,0,0,0,3.91,1.31h.08a.49.49,0,0,0,.44-.76,8.66,8.66,0,0,1-1.19-2.65.44.44,0,0,1,.1-.4,5.51,5.51,0,0,0,1.33-3.54c0-3.53-3.57-6.39-8-6.39Z"/></g><path id="_Path_" data-name="&lt;Path&gt;" class="cls-2" d="M15,22.84a14.81,14.81,0,0,1-5-.52.73.73,0,0,0-.6.07,14.07,14.07,0,0,1-5.25,1.74.66.66,0,0,1-.7-1,11.44,11.44,0,0,0,1.6-3.52.58.58,0,0,0-.13-.53,7.27,7.27,0,0,1-1.79-4.69c0-4.69,4.78-8.49,10.69-8.49,5.09,0,9.77,2.8,10.43,7.29"/><rect class="cls-3" width="32" height="32"/></svg>