<svg id="Layer_1" data-name="Layer 1" xmlns="http://www.w3.org/2000/svg" viewBox="0 0 32 32"><defs><style>.cls-1,.cls-2{fill:none;}.cls-2{stroke:#313b3e;stroke-linecap:round;stroke-miterlimit:10;}.cls-3{fill:#313b3e;}</style></defs><title>Artboard 60</title><rect class="cls-1" width="32" height="32"/><path class="cls-2" d="M21.29,23.06H1.78a.5.5,0,0,1-.5-.5V9.44a.5.5,0,0,1,.5-.5H30.22a.5.5,0,0,1,.5.5V22.56a.5.5,0,0,1-.5.5H26"/><path class="cls-3" d="M6.83,12.9h1v6.2h-1Z"/><path class="cls-3" d="M9.38,14.61V19.1H8.5V12.9H9.73l1,3.71V12.9h.87v6.2h-1Z"/><path class="cls-3" d="M13.77,18l.74-5.06h.89l-1,6.2H13l-1-6.2h1Z"/><path class="cls-3" d="M16.84,15.51h1.34v.89H16.84v1.82h1.68v.89H15.86V12.9h2.66v.89H16.84Z"/><path class="cls-3" d="M20.44,12.83c.95,0,1.44.57,1.44,1.56v.2H21v-.26c0-.44-.18-.61-.49-.61s-.49.17-.49.61c0,1.28,1.91,1.52,1.91,3.29,0,1-.5,1.56-1.45,1.56S19,18.61,19,17.61v-.38h.92v.44c0,.44.19.6.51.6s.51-.16.51-.6c0-1.28-1.91-1.52-1.91-3.29C19,13.39,19.49,12.83,20.44,12.83Z"/><path class="cls-3" d="M22.16,12.9h3v.89h-1V19.1h-1V13.78h-1Z"/><path id="_Path_" data-name="&lt;Path&gt;" class="cls-2" d="M26.21,22.3,21,20.55a.26.26,0,0,0-.34.33l1.71,5.19a.26.26,0,0,0,.44.11l.63-.62a.26.26,0,0,1,.37,0l2.94,3a.26.26,0,0,0,.37,0l1.47-1.45a.26.26,0,0,0,0-.37l-2.94-3a.26.26,0,0,1,0-.37l.63-.62A.26.26,0,0,0,26.21,22.3Z"/></svg>