<svg id="Layer_1" data-name="Layer 1" xmlns="http://www.w3.org/2000/svg" viewBox="0 0 32 32"><defs><style>.cls-1,.cls-2{fill:none;}.cls-1{stroke:#313b3e;stroke-linecap:round;stroke-miterlimit:10;}</style></defs><title>Artboard 8</title><path id="_Path_" data-name="&lt;Path&gt;" class="cls-1" d="M9.09,8.68c-1,.63-1.86,1.57-2.83,2.23-.34.23-.6.35-.6.35v8.4a3.24,3.24,0,0,1,.74.27c1,.9,4.39,8.2,7.89,4.84,0,0,1.07,1,2,.77A1.81,1.81,0,0,0,17.76,24a1.78,1.78,0,0,0,1.91.64,1.73,1.73,0,0,0,1.29-1.5,1.78,1.78,0,0,0,2.4-.43c.59-.66.44-1.23-.23-1.89"/><path id="_Path_2" data-name="&lt;Path&gt;" class="cls-1" d="M25.85,11.15H21.34a.52.52,0,0,1-.28-.08c-.94-.59-4.76-3.1-6.36-3.83-1.25-.57-2.31.9-3.15,1.72s-2.34,1.92-3.21,2.79a3.15,3.15,0,0,0-.34.41,3.05,3.05,0,0,0-.47,1.11A1.93,1.93,0,0,0,9,15.56a2.28,2.28,0,0,0,2.29-.62l3.48-3.43a.53.53,0,0,1,.74,0l7.31,7.07a.53.53,0,0,0,.37.15h3.15v-7A.53.53,0,0,0,25.85,11.15Z"/><path id="_Path_3" data-name="&lt;Path&gt;" class="cls-1" d="M5.66,6.84a.5.5,0,0,0-.43-.55H1.76a.5.5,0,0,0-.43.55V22.12a.5.5,0,0,0,.43.55H5.23a.5.5,0,0,0,.43-.55Z"/><path id="_Path_4" data-name="&lt;Path&gt;" class="cls-1" d="M30.72,6.84a.5.5,0,0,0-.43-.55H26.82a.5.5,0,0,0-.43.55V22.12a.5.5,0,0,0,.43.55h3.47a.5.5,0,0,0,.43-.55Z"/><rect class="cls-2" width="32" height="32"/></svg>