<svg id="Layer_1" data-name="Layer 1" xmlns="http://www.w3.org/2000/svg" viewBox="0 0 32 32"><defs><style>.cls-1,.cls-2{fill:none;}.cls-2{stroke:#313b3e;stroke-linecap:round;stroke-linejoin:round;}</style></defs><title>Artboard 64</title><rect class="cls-1" width="32" height="32"/><path class="cls-2" d="M10,11.61c.81-2,4.73-1.51,5.67-2.51a6.76,6.76,0,0,0,1.67-3.43,20.43,20.43,0,0,1,1.1-3.36.56.56,0,0,1,.4-.29c2-.2,3.56,1.23,4,3.4A6.68,6.68,0,0,1,22.16,10c-.22.41-.41.84-.66,1.37.32,0,3.38,0,4.72,0,1.06,0,3.66.62,3.67,3.38,0,1.65-1.73,1.49-1.93,2-.1.25-.28.25-.13.45a2.35,2.35,0,0,1-.35,3.17.28.28,0,0,0-.07.33A2,2,0,0,1,26.55,24c-.1,0-.1.19-.1.3.05,2.29.3,4.42-2.66,4.16a19.29,19.29,0,0,1-7.64-.74c-1.25-.4-4.86-1.64-6.12-2"/><rect class="cls-2" x="2.12" y="11.32" width="7.92" height="15.37"/></svg>