<?xml version="1.0" encoding="UTF-8"?>
<svg xmlns="http://www.w3.org/2000/svg" id="template" viewBox="0 0 32 32">
  <defs>
    <style>.cls-1{fill:#f08f01;}</style>
  </defs>
  <title>CC-icon-spritesheet-2017-orange-2</title>
  <path class="cls-1" d="M1.28,22.18a.48.48,0,0,1-.44-.28.5.5,0,0,1,.21-.67,24.7,24.7,0,0,1,4-1.49c1.22-.37,1.37-1.75,1.36-2.52A4.19,4.19,0,0,1,5.15,14.7a1.06,1.06,0,0,1-.64-.81l-.13-1A1,1,0,0,1,4.67,12,5.08,5.08,0,0,1,5.45,8,4,4,0,0,1,6.59,7a.5.5,0,1,1,.5.87,2.88,2.88,0,0,0-.85.74,4.29,4.29,0,0,0-.53,3.56l.06.32-.38.26.11,1v.55l.13-.5.41,0,0,.41a3.43,3.43,0,0,0,1,2.3l.2.14,0,.24c0,.72,0,3.13-2.06,3.77a24,24,0,0,0-3.78,1.42A.46.46,0,0,1,1.28,22.18Z"></path>
  <path class="cls-1" d="M30.86,22.15a.46.46,0,0,1-.22-.06,24,24,0,0,0-3.78-1.42c-2.1-.64-2.11-3-2.06-3.77v-.24l.2-.14a3.38,3.38,0,0,0,1-2.3l.05-.41.54-.09.14-1-.13-.12-.28-.18.06-.33a4.25,4.25,0,0,0-.53-3.56,2.76,2.76,0,0,0-.85-.74.5.5,0,0,1,.5-.87,4,4,0,0,1,1.14,1A5,5,0,0,1,27.47,12a1.1,1.1,0,0,1,.3.89l-.14,1a1.05,1.05,0,0,1-.63.83,4.23,4.23,0,0,1-1.21,2.5c0,.77.13,2.15,1.36,2.52a24.91,24.91,0,0,1,3.94,1.49.5.5,0,0,1-.23.95Z"></path>
  <path class="cls-1" d="M31,28.79a.51.51,0,0,1-.5-.41c-.31-1.7-4.91-3.43-8.71-4.59a4.83,4.83,0,0,1-3.46-4.94.63.63,0,0,1,.29-.49C19,18,20.18,17,20.18,14V13.5l.49,0c.44,0,1-.18,1-.32l.26-1.8a.51.51,0,0,0-.27-.52l-.35-.17.07-.38c.49-2.49.06-5.14-1.07-6.59A5.15,5.15,0,0,0,16,1.76,5.15,5.15,0,0,0,11.71,3.7c-1.13,1.45-1.56,4.1-1.07,6.59l.08.39-.36.17a.5.5,0,0,0-.27.53l.26,1.8c0,.12.54.29,1,.3l.49,0V14c0,3,1.15,4,1.52,4.38a.63.63,0,0,1,.29.49,4.83,4.83,0,0,1-3.45,4.94C6.37,25,1.77,26.68,1.46,28.38a.5.5,0,0,1-.59.4.5.5,0,0,1-.4-.58c.14-.73.49-2.66,9.42-5.36a3.83,3.83,0,0,0,2.75-3.77c-.56-.52-1.71-1.74-1.81-4.64-.54-.09-1.33-.36-1.47-1.09L9.1,11.5a1.52,1.52,0,0,1,.5-1.34,9.48,9.48,0,0,1,1.32-7.07A6.1,6.1,0,0,1,16,.76a6.1,6.1,0,0,1,5.08,2.33,9.48,9.48,0,0,1,1.32,7.07,1.49,1.49,0,0,1,.5,1.32l-.26,1.84c-.14.75-.93,1-1.47,1.11-.11,3-1.34,4.21-1.81,4.64a3.83,3.83,0,0,0,2.75,3.77c8.93,2.7,9.28,4.63,9.42,5.36a.5.5,0,0,1-.4.58Z"></path>
</svg>
