<?xml version="1.0" encoding="UTF-8"?>
<svg xmlns="http://www.w3.org/2000/svg" id="template" viewBox="0 0 32 32">
  <defs>
    <style>.cls-1{fill:#f08f01;}</style>
  </defs>
  <title>CC-icon-spritesheet-2017-orange-2</title>
  <path class="cls-1" d="M6.9,29.14h-3a1,1,0,0,1-1-1v-7a1,1,0,0,1,1-1h3a1,1,0,0,1,1,1v7A1,1,0,0,1,6.9,29.14Zm-3-8v7h3v-7Z"></path>
  <path class="cls-1" d="M14,29.14H11a1,1,0,0,1-1-1v-9a1,1,0,0,1,1-1h3a1,1,0,0,1,1,1v9A1,1,0,0,1,14,29.14Zm-3-10v9h3v-9Z"></path>
  <path class="cls-1" d="M21,29.14H18a1,1,0,0,1-1-1v-11a1,1,0,0,1,1-1h3a1,1,0,0,1,1,1v11A1,1,0,0,1,21,29.14Zm-3-12v11h3v-11Z"></path>
  <path class="cls-1" d="M28.1,29.14h-3a1,1,0,0,1-1-1v-15a1,1,0,0,1,1-1h3a1,1,0,0,1,1,1v15A1,1,0,0,1,28.1,29.14Zm-3-16v15h3v-15Z"></path>
  <path class="cls-1" d="M1.54,18.6a.5.5,0,0,1-.05-1c.15,0,15.11-1.75,26-13.76l-.78,0a.5.5,0,0,1-.05-1l2-.11a.49.49,0,0,1,.47.28.51.51,0,0,1-.07.55c-11.15,13.12-27.22,15-27.39,15Z"></path>
  <path class="cls-1" d="M28.6,5.81a.5.5,0,0,1-.5-.5V3.4a.5.5,0,0,1,.5-.5.5.5,0,0,1,.5.5V5.31A.5.5,0,0,1,28.6,5.81Z"></path>
</svg>
