<?xml version="1.0" encoding="UTF-8"?>
<svg xmlns="http://www.w3.org/2000/svg" id="template" viewBox="0 0 32 32">
  <defs>
    <style>.cls-1{fill:#f08f01;}</style>
  </defs>
  <title>CC-icon-spritesheet-2017-orange-2</title>
  <path class="cls-1" d="M12.38,26.14h-.31c-2.18-.24-4-2.91-5.16-4.67a9.45,9.45,0,0,0-.84-1.16l-.53-.16-.38-.09V11l.31-.17a4,4,0,0,0,.51-.3,15.94,15.94,0,0,0,1.29-1A12.91,12.91,0,0,1,8.82,8.26a.5.5,0,0,1,.54.84,15.62,15.62,0,0,0-1.44,1.12,14.93,14.93,0,0,1-1.39,1.1l-.37.24v7.72a1.32,1.32,0,0,1,.57.27,7.92,7.92,0,0,1,1,1.35c1,1.51,2.72,4.05,4.44,4.23a2.14,2.14,0,0,0,1.76-.73l.35-.33.35.33c.22.22,1,.8,1.54.65a1.3,1.3,0,0,0,1.08-1.16l.19-1,.68.77a1.29,1.29,0,0,0,1.4.49,1.24,1.24,0,0,0,.93-1.1l.14-.79.64.47A1.26,1.26,0,0,0,23,22.36c.28-.32.42-.57-.21-1.21a.49.49,0,1,1,.7-.7c.9.89,1,1.76.25,2.58a2.3,2.3,0,0,1-2.45.79,2.12,2.12,0,0,1-1.48,1.28A2.15,2.15,0,0,1,18,24.85,2.33,2.33,0,0,1,16.44,26a2.6,2.6,0,0,1-2.14-.6A3.06,3.06,0,0,1,12.38,26.14Z"></path>
  <path class="cls-1" d="M26.88,19.23H23.23a1.08,1.08,0,0,1-.72-.29L15.2,11.87,15,12c-.89.88-2.66,2.64-3.33,3.29A2.78,2.78,0,0,1,8.92,16a2.41,2.41,0,0,1-1.87-2.85,3.38,3.38,0,0,1,.53-1.29A3.42,3.42,0,0,1,8,11.4,22.82,22.82,0,0,1,9.71,9.89c.53-.44,1.08-.9,1.49-1.29l.41-.42c.81-.86,1.92-2,3.3-1.4s4.37,2.55,5.8,3.47l.61.39h4.53a1,1,0,0,1,1,1Zm-11.7-8.38a1,1,0,0,1,.72.3l7.31,7.07h2.67l0-6.58H21.34a1,1,0,0,1-.55-.16l-.62-.4c-1.41-.9-4.36-2.79-5.68-3.4-.67-.31-1.32.29-2.16,1.18-.15.16-.29.31-.43.44-.44.43-1,.9-1.56,1.35s-1.2,1-1.64,1.44a3.17,3.17,0,0,0-.29.35,2.68,2.68,0,0,0-.39.93,1.44,1.44,0,0,0,1.15,1.69A1.78,1.78,0,0,0,11,14.58l3.33-3.28.15-.14A1,1,0,0,1,15.18,10.85Z"></path>
  <path class="cls-1" d="M5.23,23.17H1.76a1,1,0,0,1-.94-1.05V6.84a1,1,0,0,1,.94-1H5.23a1,1,0,0,1,.93,1V22.12A1,1,0,0,1,5.23,23.17ZM5.14,6.77l-3.38,0,.06,15.33,3.41.05L5.16,6.84S5.15,6.77,5.14,6.77Z"></path>
  <path class="cls-1" d="M30.28,23.17H26.82a1,1,0,0,1-.94-1.05V6.84a1,1,0,0,1,.94-1h3.46a1,1,0,0,1,.94,1V22.12A1,1,0,0,1,30.28,23.17ZM30.2,6.77l-3.38,0,.06,15.33,3.4.05L30.22,6.84A.14.14,0,0,0,30.2,6.77Z"></path>
</svg>
