<?xml version="1.0" encoding="UTF-8"?>
<svg xmlns="http://www.w3.org/2000/svg" xmlns:xlink="http://www.w3.org/1999/xlink" width="229px" height="149px" viewBox="0 0 229 149">
  <!-- Generator: Sketch 49 (51002) - http://www.bohemiancoding.com/sketch -->
  <title>3</title>
  <desc>Created with Sketch.</desc>
  <defs>
    <polygon id="path-1" points="0 0.534340891 82.5309768 0.534340891 82.5309768 47.4286502 0 47.4286502"></polygon>
    <polygon id="path-3" points="0.344092855 0.389952029 8.36553712 0.389952029 8.36553712 9.4877915 0.344092855 9.4877915"></polygon>
    <polygon id="path-5" points="0.510975371 0.169112487 16.5522266 0.169112487 16.5522266 9.35691205 0.510975371 9.35691205"></polygon>
    <polygon id="path-7" points="0.344092855 0.259072583 8.36553712 0.259072583 8.36553712 9.35691205 0.344092855 9.35691205"></polygon>
    <polygon id="path-9" points="0.510975371 0.0379831518 16.5522266 0.0379831518 16.5522266 9.22578272 0.510975371 9.22578272"></polygon>
    <polygon id="path-11" points="0.344092855 0.127943248 8.36553712 0.127943248 8.36553712 9.22578272 0.344092855 9.22578272"></polygon>
    <polygon id="path-13" points="0.510975371 0.531826598 16.5522266 0.531826598 16.5522266 9.71962616 0.510975371 9.71962616"></polygon>
    <polygon id="path-15" points="0.344092855 0.621786694 8.36553712 0.621786694 8.36553712 9.71962616 0.344092855 9.71962616"></polygon>
    <polygon id="path-17" points="0.510975371 0.40063479 16.5522266 0.40063479 16.5522266 9.58843436 0.510975371 9.58843436"></polygon>
    <polygon id="path-19" points="0.344092855 0.490594887 8.36553712 0.490594887 8.36553712 9.58843436 0.344092855 9.58843436"></polygon>
    <polygon id="path-21" points="0.510975371 0.269755345 16.5522266 0.269755345 16.5522266 9.45755491 0.510975371 9.45755491"></polygon>
    <polygon id="path-23" points="0.344092855 0.359715441 8.36553712 0.359715441 8.36553712 9.45755491 0.344092855 9.45755491"></polygon>
    <polygon id="path-25" points="0.510975371 0.138313648 16.5522266 0.138313648 16.5522266 9.32673794 0.510975371 9.32673794"></polygon>
    <polygon id="path-27" points="0.344092855 0.228898467 8.36553712 0.228898467 8.36553712 9.32673794 0.344092855 9.32673794"></polygon>
    <polygon id="path-29" points="0.510975371 0.00774656386 16.5522266 0.00774656386 16.5522266 9.19554613 0.510975371 9.19554613"></polygon>
    <polygon id="path-31" points="0.344092855 0.0977066602 8.36553712 0.0977066602 8.36553712 9.19554613 0.344092855 9.19554613"></polygon>
    <polygon id="path-33" points="0.510975371 0.500965287 16.5522266 0.500965287 16.5522266 9.68938958 0.510975371 9.68938958"></polygon>
    <polygon id="path-35" points="0.344092855 0.591550106 8.36553712 0.591550106 8.36553712 9.68938958 0.344092855 9.68938958"></polygon>
    <polygon id="path-37" points="0.510975371 0.370460675 16.5522266 0.370460675 16.5522266 9.55826024 0.510975371 9.55826024"></polygon>
    <polygon id="path-39" points="0.344092855 0.460420771 8.36553712 0.460420771 8.36553712 9.55826024 0.344092855 9.55826024"></polygon>
    <polygon id="path-41" points="0.510975371 0.239581229 16.5522266 0.239581229 16.5522266 9.4273808 0.510975371 9.4273808"></polygon>
  </defs>
  <g id="Page-1" stroke="none" stroke-width="1" fill="none" fill-rule="evenodd">
    <g id="Desktop-HD" transform="translate(-385.000000, -4010.000000)">
      <g id="3" transform="translate(385.000000, 4010.000000)">
        <path d="M91.5795957,39.8396581 L23.7075035,32.5596611 C16.0501473,31.7374977 10.3554106,39.4969591 13.4265175,46.5694503 L19.4337033,60.4000299 C21.1199859,64.2860486 20.1936295,68.8118771 17.1178123,71.7216751 L3.14867179,84.9360252 C-1.79555922,89.6111949 -0.767146611,97.7495117 5.18194558,101.047597 L35.7972395,118.009629 C40.5075263,120.620744 42.325697,126.485929 39.9171703,131.307296 C36.0704361,139.010164 43.0432307,147.676678 51.3788682,145.552887 L99.3562791,133.32419 C108.200628,131.071493 117.533276,131.717591 125.98353,135.171306 L155.782375,147.346555 C173.135071,155.308806 189.53629,132.288232 194.086427,125.545864 C194.651661,124.707981 195.282839,123.925118 195.975252,123.189415 C203.097205,115.64532 244.392289,69.5774479 222.825456,37.4957852 C222.076521,36.3827992 221.461043,35.1864965 220.946052,33.9477495 C208.688316,4.46776999 136.245675,-19.700374 118.827035,23.4356915 C114.405645,34.3816253 103.30507,41.0972694 91.5795957,39.8396581" id="Fill-1" fill="#FCE7D2" opacity="0.5"></path>
        <g id="Page-1" transform="translate(44.003922, 24.234940)">
          <g id="Group-3" transform="translate(0.000000, 16.628249)">
            <mask id="mask-2" fill="white">
              <use xlink:href="#path-1"></use>
            </mask>
            <g id="Clip-2"></g>
            <path d="M82.3829078,9.64822034 C82.5800181,9.75504795 82.5806478,9.93121981 82.3829078,10.0386721 L16.6356049,47.347748 C16.4384946,47.4552003 16.1148055,47.455825 15.9170654,47.3483727 L1.64640622,39.5818177 C-1.21263763,37.8094788 -0.123807934,36.1246012 3.1836146,34.1585983 L60.7757154,1.69612265 C60.9734554,1.58867031 64.302919,-0.577868675 67.5901897,1.29192694 L82.3829078,9.64822034 Z" id="Fill-1" fill="#231F20" mask="url(#mask-2)"></path>
          </g>
          <path d="M8.71315655,53.3405897 C8.87059289,53.2275149 80.1571359,21.1148841 80.1571359,21.1148841 L99.6206752,31.8813584 L104.845043,37.685034 L104.841894,41.4914706 C104.840634,43.032662 104.011889,44.4557807 102.666753,45.2273135 L48.0268988,76.5334271 C44.9631877,78.2901478 41.1884941,78.2901478 38.1254128,76.5340518 C38.1254128,76.5340518 26.6772722,70.2124808 10.7831295,61.0802816 C9.35801578,60.2625193 8.48896721,58.7569372 8.48896721,57.1239115 L8.71315655,53.3405897 Z" id="Fill-4" fill="#BDBCBC"></path>
          <path d="M102.396341,33.1691621 L74.1692653,17.386163 C71.9727135,16.1279711 69.2666978,16.1285958 67.0707758,17.3874125 L10.4314797,49.8367689 C7.96413744,51.2511415 7.96413744,54.7845742 10.4314797,56.1989468 L39.9652767,72.8684277 C42.3866476,74.256562 45.3697513,74.256562 47.7911221,72.8684277 L102.3976,41.5841795 C105.66157,39.7131344 105.660941,35.0395825 102.396341,33.1691621" id="Fill-6" fill="#E5E4E2"></path>
          <polygon id="Fill-8" fill="#222327" points="101.16607 39.5070384 65.467696 20.0131852 17.3381488 47.6727913 52.858305 66.9854747"></polygon>
          <polygon id="Fill-10" fill="#F2F2F3" points="98.4561501 39.5299032 65.4852029 21.5260142 20.0415196 47.6406805 52.8443247 65.4765191"></polygon>
          <path d="M83.4474293,27.2574719 C83.4474293,27.721641 83.9398902,28.0983489 84.5469647,28.0983489 C85.1540392,28.0983489 85.6465001,27.721641 85.6465001,27.2574719 C85.6465001,26.7933028 85.1540392,26.4172196 84.5469647,26.4172196 C83.9398902,26.4172196 83.4474293,26.7933028 83.4474293,27.2574719" id="Fill-12" fill="#222327"></path>
          <path d="M23.9017326,59.8016613 C23.9017326,61.8626221 26.0875786,63.5337558 28.7841482,63.5337558 C31.480088,63.5337558 33.6659341,61.8626221 33.6659341,59.8016613 C33.6659341,57.7407004 31.480088,56.0695667 28.7841482,56.0695667 C26.0875786,56.0695667 23.9017326,57.7407004 23.9017326,59.8016613" id="Fill-14" fill="#BDBCBC"></path>
          <path d="M23.9017326,59.8016613 C23.9017326,61.8626221 26.0875786,63.5337558 28.7841482,63.5337558 C31.480088,63.5337558 33.6659341,61.8626221 33.6659341,59.8016613 C33.6659341,57.7407004 31.480088,56.0695667 28.7841482,56.0695667 C26.0875786,56.0695667 23.9017326,57.7407004 23.9017326,59.8016613" id="Fill-16" fill="#EF8F04"></path>
          <path d="M25.0557409,59.8016613 C25.0557409,61.375963 26.7251958,62.6516471 28.7838333,62.6516471 C30.8431006,62.6516471 32.5119258,61.375963 32.5119258,59.8016613 C32.5119258,58.2273596 30.8431006,56.9516754 28.7838333,56.9516754 C26.7251958,56.9516754 25.0557409,58.2273596 25.0557409,59.8016613" id="Fill-18" fill="#E5E4E2"></path>
          <path d="M78.1025917,24.1744644 L81.5051058,26.0448848 C81.5976783,26.0954873 81.714811,26.0617523 81.7658203,25.9705427 L81.9723768,25.6013315 C82.0233862,25.510122 81.9900097,25.3932988 81.8974371,25.3426962 L78.494923,23.4722759 C78.4029802,23.4216733 78.2852178,23.4554084 78.2342085,23.5472426 L78.027652,23.9158292 C77.9766426,24.0070387 78.0106489,24.1238619 78.1025917,24.1744644" id="Fill-20" fill="#BDBCBC"></path>
          <path d="M87.1969961,29.1728098 L90.5995102,31.0426054 C90.691453,31.0938327 90.8092154,31.0600977 90.8602247,30.9688881 L91.0667812,30.5996769 C91.1177906,30.5078426 91.0837843,30.3916442 90.9912118,30.3410416 L87.5886977,28.4706213 C87.4967549,28.4200187 87.3796222,28.453129 87.3279831,28.5449633 L87.1220564,28.9141745 C87.071047,29.0053841 87.1050533,29.1222073 87.1969961,29.1728098" id="Fill-22" fill="#BDBCBC"></path>
          <polygon id="Fill-24" fill="#1E1E1C" points="41.2655749 46.6836675 46.1039084 49.4062099 46.1039084 43.9192687"></polygon>
          <polygon id="Fill-26" fill="#1E1E1C" points="59.7375802 36.1018613 64.5759136 38.8244037 64.5759136 33.3374625"></polygon>
          <polygon id="Fill-28" fill="#F6A83F" points="74.427146 38.7501866 69.4962399 41.5614396 69.4962399 35.0155931 74.427146 32.2043401"></polygon>
          <polygon id="Fill-30" fill="#DF8208" points="64.5648931 38.7501866 69.4964289 41.5614396 69.4964289 35.0155931 64.5648931 32.2043401"></polygon>
          <polygon id="Fill-32" fill="#F08F03" points="64.5648931 32.2107123 69.4964289 35.0219653 74.4273349 32.2044651 69.4964289 29.3925873"></polygon>
          <polygon id="Fill-34" fill="#F6A83F" points="71.9256715 31.7385467 69.5641265 33.0848246 69.5641265 29.9499651 71.9256715 28.6036873"></polygon>
          <polygon id="Fill-36" fill="#DF8208" points="67.2025815 31.7385467 69.5641265 33.0848246 69.5641265 29.9499651 67.2025815 28.6036873"></polygon>
          <polygon id="Fill-38" fill="#F08F03" points="67.2025815 28.6069983 69.5641265 29.9532761 71.9256715 28.6038747 69.5641265 27.2575968"></polygon>
          <polygon id="Fill-40" fill="#1E1E1C" points="66.2982672 31.2196519 67.2025815 31.7381719 67.2025815 30.7036308"></polygon>
          <polygon id="Fill-42" fill="#F6A83F" points="66.8311577 44.7250363 59.9669334 48.6389252 59.9669334 39.5260924 66.8311577 35.6128282"></polygon>
          <polygon id="Fill-44" fill="#DF8208" points="53.1022054 44.7250363 59.9664296 48.6389252 59.9664296 39.5260924 53.1022054 35.6128282"></polygon>
          <polygon id="Fill-46" fill="#F08F03" points="53.1022054 35.6216993 59.9664296 39.5355882 66.8312836 35.6123284 59.9664296 31.6990642"></polygon>
          <polygon id="Fill-48" fill="#F6A83F" points="63.3487919 34.9643659 60.0615212 36.8385345 60.0615212 32.4748451 63.3487919 30.6006765"></polygon>
          <polygon id="Fill-50" fill="#DF8208" points="56.7742505 34.9643659 60.0615212 36.8385345 60.0615212 32.4748451 56.7742505 30.6006765"></polygon>
          <polygon id="Fill-52" fill="#F08F03" points="56.7742505 30.604987 60.0615212 32.4791557 63.3487919 30.600614 60.0615212 28.7264453"></polygon>
          <polygon id="Fill-54" fill="#1E1E1C" points="55.5224427 34.2408118 56.7743764 34.9579937 56.7743764 33.5267535"></polygon>
          <polygon id="Fill-56" fill="#1E1E1C" points="46.1187074 40.8293893 53.1019535 44.759521 53.1019535 36.8386595"></polygon>
          <polygon id="Fill-58" fill="#F6A83F" points="55.9655315 49.4064598 51.0346255 52.2177128 51.0346255 45.6718663 55.9655315 42.8606133"></polygon>
          <polygon id="Fill-60" fill="#DF8208" points="46.1036565 49.4064598 51.0345625 52.2177128 51.0345625 45.6718663 46.1036565 42.8606133"></polygon>
          <polygon id="Fill-62" fill="#F08F03" points="46.1036565 42.867048 51.0345625 45.678301 55.9654686 42.8608007 51.0345625 40.0495477"></polygon>
          <polygon id="Fill-64" fill="#1E1E1C" points="47.8366527 41.8768622 48.7415968 42.3947575 48.7415968 41.3595916"></polygon>
          <polygon id="Fill-66" fill="#F6A83F" points="53.4641201 42.3948199 51.102575 43.7410978 51.102575 40.606863 53.4641201 39.2599605"></polygon>
          <polygon id="Fill-68" fill="#DF8208" points="48.7413449 42.3948199 51.1028899 43.7410978 51.1028899 40.606863 48.7413449 39.2599605"></polygon>
          <polygon id="Fill-70" fill="#F08F03" points="48.7413449 39.2632715 51.1028899 40.6095493 53.4644349 39.2601479 51.1028899 37.91387"></polygon>
          <g id="Group-76" transform="translate(104.537727, 37.868828)" fill="#2B2523">
            <path d="M16.1157501,23.6154624 L7.05749307,18.8844359 C7.02789504,18.8681931 0.260021852,22.5640538 0.289619883,22.5796718 L9.2842726,27.5499672 C9.31324089,27.56621 9.36110154,27.56621 9.39006982,27.5499672 L16.1157501,23.6729369 C16.1447184,23.6566941 16.1447184,23.6310805 16.1157501,23.6154624" id="Fill-72"></path>
            <path d="M22.9030194,5.12172815 L13.8447624,0.390701696 C13.8157941,0.374458901 7.04792095,4.07031953 7.07688923,4.0859376 L9.58390544,5.49843606 C9.55493715,5.48219326 2.78706396,9.17805389 2.81666199,9.19367196 L9.06562502,12.6465154 C7.86155193,13.2824833 2.50997601,16.2074359 2.53642531,16.2218045 L11.531078,21.1920998 C11.5600463,21.2077179 11.607907,21.2077179 11.6368753,21.1920998 L18.3625555,17.3150696 C18.3915238,17.2988268 18.3915238,17.2732131 18.3625555,17.2569703 L12.1658613,14.0209057 L18.6421624,10.286937 C18.6717605,10.2706942 18.6717605,10.2450806 18.6421624,10.2288378 L16.2818769,8.99625953 L22.9030194,5.17920266 C22.9319877,5.16358459 22.9319877,5.13734623 22.9030194,5.12172815" id="Fill-74"></path>
          </g>
          <g id="Group-79" transform="translate(142.952193, 45.365502)">
            <mask id="mask-4" fill="white">
              <use xlink:href="#path-3"></use>
            </mask>
            <g id="Clip-78"></g>
            <polygon id="Fill-77" fill="#94C01F" mask="url(#mask-4)" points="0.344092855 9.4877915 8.36578902 4.89357935 8.36578902 0.389952029 0.344092855 4.98416417"></polygon>
          </g>
          <g id="Group-82" transform="translate(134.765503, 40.992442)">
            <mask id="mask-6" fill="white">
              <use xlink:href="#path-5"></use>
            </mask>
            <g id="Clip-81"></g>
            <polygon id="Fill-80" fill="#FFDA62" mask="url(#mask-6)" points="8.5307823 9.35691205 16.5524785 4.76269991 8.53141205 0.169112487 0.510975371 4.76269991"></polygon>
          </g>
          <polygon id="Fill-83" fill="#8AB31D" points="143.296286 50.349354 135.276479 45.7551419 135.276479 50.2587692 143.296286 54.8529814"></polygon>
          <g id="Group-87" transform="translate(142.952193, 40.992442)">
            <mask id="mask-8" fill="white">
              <use xlink:href="#path-7"></use>
            </mask>
            <g id="Clip-86"></g>
            <polygon id="Fill-85" fill="#B9D26C" mask="url(#mask-8)" points="0.344092855 9.35691205 8.36578902 4.76269991 8.36578902 0.259072583 0.344092855 4.85266"></polygon>
          </g>
          <g id="Group-90" transform="translate(134.765503, 36.619382)">
            <mask id="mask-10" fill="white">
              <use xlink:href="#path-9"></use>
            </mask>
            <g id="Clip-89"></g>
            <polygon id="Fill-88" fill="#FFDA62" mask="url(#mask-10)" points="8.5307823 9.22578272 16.5524785 4.63157057 8.53141205 0.0379831518 0.510975371 4.63157057"></polygon>
          </g>
          <polygon id="Fill-91" fill="#94C01F" points="143.296286 45.8451645 135.276479 41.2509523 135.276479 45.7552044 143.296286 50.3494165"></polygon>
          <g id="Group-95" transform="translate(142.952193, 36.619382)">
            <mask id="mask-12" fill="white">
              <use xlink:href="#path-11"></use>
            </mask>
            <g id="Clip-94"></g>
            <polygon id="Fill-93" fill="#94C01F" mask="url(#mask-12)" points="0.344092855 9.22578272 8.36578902 4.63157057 8.36578902 0.127943248 0.344092855 4.72215539"></polygon>
          </g>
          <g id="Group-98" transform="translate(134.765503, 31.621599)">
            <mask id="mask-14" fill="white">
              <use xlink:href="#path-13"></use>
            </mask>
            <g id="Clip-97"></g>
            <polygon id="Fill-96" fill="#FFDA62" mask="url(#mask-14)" points="8.5307823 9.71962616 16.5524785 5.12541402 8.53141205 0.531826598 0.510975371 5.12541402"></polygon>
          </g>
          <polygon id="Fill-99" fill="#8AB31D" points="143.296286 41.3412248 135.276479 36.7470126 135.276479 41.2512647 143.296286 45.8448521"></polygon>
          <g id="Group-103" transform="translate(142.952193, 31.621599)">
            <mask id="mask-16" fill="white">
              <use xlink:href="#path-15"></use>
            </mask>
            <g id="Clip-102"></g>
            <polygon id="Fill-101" fill="#B9D26C" mask="url(#mask-16)" points="0.344092855 9.71962616 8.36578902 5.12541402 8.36578902 0.621786694 0.344092855 5.21537412"></polygon>
          </g>
          <g id="Group-106" transform="translate(134.765503, 27.248538)">
            <mask id="mask-18" fill="white">
              <use xlink:href="#path-17"></use>
            </mask>
            <g id="Clip-105"></g>
            <polygon id="Fill-104" fill="#FFDA62" mask="url(#mask-18)" points="8.5307823 9.58843436 16.5524785 4.99422221 8.53141205 0.40063479 0.510975371 4.99422221"></polygon>
          </g>
          <polygon id="Fill-107" fill="#94C01F" points="143.296286 36.8369727 135.276479 32.2427606 135.276479 36.7470126 143.296286 41.3412248"></polygon>
          <g id="Group-111" transform="translate(142.952193, 27.248538)">
            <mask id="mask-20" fill="white">
              <use xlink:href="#path-19"></use>
            </mask>
            <g id="Clip-110"></g>
            <polygon id="Fill-109" fill="#94C01F" mask="url(#mask-20)" points="0.344092855 9.58843436 8.36578902 4.99422221 8.36578902 0.490594887 0.344092855 5.08480703"></polygon>
          </g>
          <g id="Group-114" transform="translate(134.765503, 22.875478)">
            <mask id="mask-22" fill="white">
              <use xlink:href="#path-21"></use>
            </mask>
            <g id="Clip-113"></g>
            <polygon id="Fill-112" fill="#FFDA62" mask="url(#mask-22)" points="8.5307823 9.45755491 16.5524785 4.86334277 8.53141205 0.269755345 0.510975371 4.86334277"></polygon>
          </g>
          <polygon id="Fill-115" fill="#8AB31D" points="143.296286 32.333033 135.276479 27.7388209 135.276479 32.2430729 143.296286 36.8366604"></polygon>
          <g id="Group-119" transform="translate(142.952193, 22.875478)">
            <mask id="mask-24" fill="white">
              <use xlink:href="#path-23"></use>
            </mask>
            <g id="Clip-118"></g>
            <polygon id="Fill-117" fill="#B9D26C" mask="url(#mask-24)" points="0.344092855 9.45755491 8.36578902 4.86334277 8.36578902 0.359715441 0.344092855 4.95392759"></polygon>
          </g>
          <g id="Group-122" transform="translate(134.765503, 18.502418)">
            <mask id="mask-26" fill="white">
              <use xlink:href="#path-25"></use>
            </mask>
            <g id="Clip-121"></g>
            <polygon id="Fill-120" fill="#FFDA62" mask="url(#mask-26)" points="8.5307823 9.32673794 16.5524785 4.73252579 8.53141205 0.138313648 0.510975371 4.73252579"></polygon>
          </g>
          <polygon id="Fill-123" fill="#94C01F" points="143.296286 27.8291558 135.276479 23.2349437 135.276479 27.738571 143.296286 32.3327831"></polygon>
          <g id="Group-127" transform="translate(142.952193, 18.502418)">
            <mask id="mask-28" fill="white">
              <use xlink:href="#path-27"></use>
            </mask>
            <g id="Clip-126"></g>
            <polygon id="Fill-125" fill="#94C01F" mask="url(#mask-28)" points="0.344092855 9.32673794 8.36578902 4.73252579 8.36578902 0.228898467 0.344092855 4.82248589"></polygon>
          </g>
          <g id="Group-130" transform="translate(134.765503, 14.129358)">
            <mask id="mask-30" fill="white">
              <use xlink:href="#path-29"></use>
            </mask>
            <g id="Clip-129"></g>
            <polygon id="Fill-128" fill="#FFDA62" mask="url(#mask-30)" points="8.5307823 9.19554613 16.5524785 4.60133399 8.53141205 0.00774656386 0.510975371 4.60133399"></polygon>
          </g>
          <polygon id="Fill-131" fill="#8AB31D" points="143.296286 23.3249038 135.276479 18.7306916 135.276479 23.2349437 143.296286 27.8291558"></polygon>
          <g id="Group-135" transform="translate(142.952193, 14.129358)">
            <mask id="mask-32" fill="white">
              <use xlink:href="#path-31"></use>
            </mask>
            <g id="Clip-134"></g>
            <polygon id="Fill-133" fill="#B9D26C" mask="url(#mask-32)" points="0.344092855 9.19554613 8.36578902 4.60133399 8.36578902 0.0977066602 0.344092855 4.6919188"></polygon>
          </g>
          <g id="Group-138" transform="translate(134.765503, 9.131575)">
            <mask id="mask-34" fill="white">
              <use xlink:href="#path-33"></use>
            </mask>
            <g id="Clip-137"></g>
            <polygon id="Fill-136" fill="#FFDA62" mask="url(#mask-34)" points="8.5307823 9.68938958 16.5524785 5.09517743 8.53141205 0.500965287 0.510975371 5.09517743"></polygon>
          </g>
          <polygon id="Fill-139" fill="#94C01F" points="143.296286 18.8209641 135.276479 14.2267519 135.276479 18.7303793 143.296286 23.3245914"></polygon>
          <g id="Group-143" transform="translate(142.952193, 9.131575)">
            <mask id="mask-36" fill="white">
              <use xlink:href="#path-35"></use>
            </mask>
            <g id="Clip-142"></g>
            <polygon id="Fill-141" fill="#94C01F" mask="url(#mask-36)" points="0.344092855 9.68938958 8.36578902 5.09517743 8.36578902 0.591550106 0.344092855 5.18513753"></polygon>
          </g>
          <g id="Group-146" transform="translate(134.765503, 4.758514)">
            <mask id="mask-38" fill="white">
              <use xlink:href="#path-37"></use>
            </mask>
            <g id="Clip-145"></g>
            <polygon id="Fill-144" fill="#FFDA62" mask="url(#mask-38)" points="8.5307823 9.55826024 16.5524785 4.9640481 8.53141205 0.370460675 0.510975371 4.9640481"></polygon>
          </g>
          <polygon id="Fill-147" fill="#8AB31D" points="143.296286 14.3167745 135.276479 9.72256236 135.276479 14.2268144 143.296286 18.8210266"></polygon>
          <g id="Group-151" transform="translate(142.952193, 4.758514)">
            <mask id="mask-40" fill="white">
              <use xlink:href="#path-39"></use>
            </mask>
            <g id="Clip-150"></g>
            <polygon id="Fill-149" fill="#B9D26C" mask="url(#mask-40)" points="0.344092855 9.55826024 8.36578902 4.9640481 8.36578902 0.460420771 0.344092855 5.05463292"></polygon>
          </g>
          <g id="Group-154" transform="translate(134.765503, 0.385454)">
            <mask id="mask-42" fill="white">
              <use xlink:href="#path-41"></use>
            </mask>
            <g id="Clip-153"></g>
            <polygon id="Fill-152" fill="#B9D26C" mask="url(#mask-42)" points="8.5307823 9.4273808 16.5524785 4.83316865 8.53141205 0.239581229 0.510975371 4.83316865"></polygon>
          </g>
          <polygon id="Fill-155" fill="#94C01F" points="143.296286 9.81283482 135.276479 5.21862267 135.276479 9.72225 143.296286 14.3164621"></polygon>
          <polygon id="Fill-157" fill="#C7D300" points="135.27566 59.4471935 143.296726 54.8529814 143.296726 50.349354 135.27566 54.9435662"></polygon>
          <polygon id="Fill-159" fill="#FFDA62" points="135.27566 54.9432538 143.296726 50.3490417 135.27629 45.7548295 127.255853 50.3490417"></polygon>
          <polygon id="Fill-161" fill="#B8C300" points="135.27566 54.9432538 127.255853 50.3490417 127.255853 54.852669 135.27566 59.4468811"></polygon>
          <polygon id="Fill-163" fill="#D9DF69" points="135.27566 54.9432538 143.296726 50.3490417 143.296726 45.8454143 135.27566 50.4390018"></polygon>
          <polygon id="Fill-165" fill="#FFDA62" points="135.27566 50.4390642 143.296726 45.8448521 135.27629 41.2512647 127.255853 45.8448521"></polygon>
          <polygon id="Fill-167" fill="#C7D300" points="135.27566 50.4390642 127.255853 45.8448521 127.255853 50.3491041 135.27566 54.9433163"></polygon>
          <polygon id="Fill-169" fill="#C7D300" points="135.27566 50.4390642 143.296726 45.8448521 143.296726 41.3412248 135.27566 45.9354369"></polygon>
          <polygon id="Fill-171" fill="#FFDA62" points="135.27566 45.9351245 143.296726 41.3409124 135.27629 36.747325 127.255853 41.3409124"></polygon>
          <polygon id="Fill-173" fill="#B8C300" points="135.27566 45.9351245 127.255853 41.3409124 127.255853 45.8445397 135.27566 50.4387519"></polygon>
          <polygon id="Fill-175" fill="#D9DF69" points="135.27566 45.9351245 143.296726 41.3409124 143.296726 36.8372851 135.27566 41.4308725"></polygon>
          <polygon id="Fill-177" fill="#FFDA62" points="135.27566 41.4308725 143.296726 36.8366604 135.27629 32.2430729 127.255853 36.8366604"></polygon>
          <polygon id="Fill-179" fill="#C7D300" points="135.27566 41.4308725 127.255853 36.8366604 127.255853 41.3409124 135.27566 45.9351245"></polygon>
          <polygon id="Fill-181" fill="#C7D300" points="135.27566 41.4308725 143.296726 36.8366604 143.296726 32.333033 135.27566 36.9272452"></polygon>
          <polygon id="Fill-183" fill="#FFDA62" points="135.27566 36.9269953 143.296726 32.3327831 135.27629 27.7391957 127.255853 32.3327831"></polygon>
          <polygon id="Fill-185" fill="#B8C300" points="135.27566 36.9269953 127.255853 32.3327831 127.255853 36.8364105 135.27566 41.4306226"></polygon>
          <polygon id="Fill-187" fill="#D9DF69" points="135.27566 36.9269953 143.296726 32.3327831 143.296726 27.8291558 135.27566 32.4227432"></polygon>
          <polygon id="Fill-189" fill="#FFDA62" points="135.27566 32.4227432 143.296726 27.8285311 135.27629 23.2349437 127.255853 27.8285311"></polygon>
          <polygon id="Fill-191" fill="#C7D300" points="135.27566 32.4227432 127.255853 27.8285311 127.255853 32.3327831 135.27566 36.9269953"></polygon>
          <polygon id="Fill-193" fill="#C7D300" points="135.27566 32.4227432 143.296726 27.8285311 143.296726 23.3249038 135.27566 27.9191159"></polygon>
          <polygon id="Fill-195" fill="#FFDA62" points="135.27566 27.9188036 143.296726 23.3245914 135.27629 18.731004 127.255853 23.3245914"></polygon>
          <polygon id="Fill-197" fill="#B8C300" points="135.27566 27.9188036 127.255853 23.3245914 127.255853 27.8288435 135.27566 32.4224309"></polygon>
          <polygon id="Fill-199" fill="#D9DF69" points="135.27566 27.9188036 143.296726 23.3245914 143.296726 18.8209641 135.27566 23.4145515"></polygon>
          <polygon id="Fill-201" fill="#FFDA62" points="135.27566 23.414614 143.296726 18.8204018 135.27629 14.2268144 127.255853 18.8204018"></polygon>
          <polygon id="Fill-203" fill="#C7D300" points="135.27566 23.414614 127.255853 18.8204018 127.255853 23.3246539 135.27566 27.918866"></polygon>
          <polygon id="Fill-205" fill="#C7D300" points="135.27566 23.414614 143.296726 18.8204018 143.296726 14.3167745 135.27566 18.9109867"></polygon>
          <polygon id="Fill-207" fill="#D9DF69" points="135.27566 18.9106743 143.296726 14.3164621 135.27629 9.72287472 127.255853 14.3164621"></polygon>
          <polygon id="Fill-209" fill="#B8C300" points="135.27566 18.9106743 127.255853 14.3164621 127.255853 18.8207142 135.27566 23.4143016"></polygon>
          <polygon id="Fill-211" fill="#94C01F" points="127.255034 64.0410933 135.276101 59.4468811 135.276101 54.9432538 127.255034 59.5368412"></polygon>
          <polygon id="Fill-213" fill="#FFDA62" points="127.255034 59.5369037 135.276101 54.9426916 127.255034 50.3491041 119.235227 54.9426916"></polygon>
          <polygon id="Fill-215" fill="#8AB31D" points="127.255034 59.5369037 119.235227 54.9426916 119.235227 59.4469436 127.255034 64.0411558"></polygon>
          <polygon id="Fill-217" fill="#B9D26C" points="127.255034 59.5369037 135.276101 54.9426916 135.276101 50.4390642 127.255034 55.0332764"></polygon>
          <polygon id="Fill-219" fill="#FFDA62" points="127.255034 55.032964 135.276101 50.4387519 127.255034 45.8451645 119.235227 50.4387519"></polygon>
          <polygon id="Fill-221" fill="#94C01F" points="127.255034 55.032964 119.235227 50.4387519 119.235227 54.9430039 127.255034 59.5365913"></polygon>
          <polygon id="Fill-223" fill="#94C01F" points="127.255034 55.032964 135.276101 50.4387519 135.276101 45.9351245 127.255034 50.5293367"></polygon>
          <polygon id="Fill-225" fill="#FFDA62" points="127.255034 50.5290243 135.276101 45.9348122 127.255034 41.3406 119.235227 45.9348122"></polygon>
          <polygon id="Fill-227" fill="#8AB31D" points="127.255034 50.5290243 119.235227 45.9348122 119.235227 50.4384395 127.255034 55.0326517"></polygon>
          <polygon id="Fill-229" fill="#B9D26C" points="127.255034 50.5290243 135.276101 45.9348122 135.276101 41.4311849 127.255034 46.0247723"></polygon>
          <polygon id="Fill-231" fill="#FFDA62" points="127.255034 46.0248348 135.276101 41.4306226 127.255034 36.8370352 119.235227 41.4306226"></polygon>
          <polygon id="Fill-233" fill="#94C01F" points="127.255034 46.0248348 119.235227 41.4306226 119.235227 45.9348747 127.255034 50.5290868"></polygon>
          <polygon id="Fill-235" fill="#94C01F" points="127.255034 46.0248348 135.276101 41.4306226 135.276101 36.9269953 127.255034 41.5212074"></polygon>
          <polygon id="Fill-237" fill="#FFDA62" points="127.255034 41.5208951 135.276101 36.9266829 127.255034 32.3324708 119.235227 36.9266829"></polygon>
          <polygon id="Fill-239" fill="#8AB31D" points="127.255034 41.5208951 119.235227 36.9266829 119.235227 41.4303103 127.255034 46.0245224"></polygon>
          <polygon id="Fill-241" fill="#B9D26C" points="127.255034 41.5208951 135.276101 36.9266829 135.276101 32.4230556 127.255034 37.016643"></polygon>
          <polygon id="Fill-243" fill="#B9D26C" points="127.255034 37.016643 135.276101 32.4224309 127.255034 27.8288435 119.235227 32.4224309"></polygon>
          <polygon id="Fill-245" fill="#94C01F" points="127.255034 37.016643 119.235227 32.4224309 119.235227 36.9266829 127.255034 41.5208951"></polygon>
          <polygon id="Fill-247" fill="#C7D300" points="119.234346 68.6349931 127.255412 64.0407809 127.255412 59.5371536 119.234346 64.130741"></polygon>
          <polygon id="Fill-249" fill="#FFDA62" points="119.234346 64.1308035 127.255412 59.5365913 119.234346 54.9430039 111.213909 59.5365913"></polygon>
          <polygon id="Fill-251" fill="#B8C300" points="119.234346 64.1308035 111.213909 59.5365913 111.213909 64.0408434 119.234346 68.6350555"></polygon>
          <polygon id="Fill-253" fill="#D9DF69" points="119.234346 64.1308035 127.255412 59.5365913 127.255412 55.032964 119.234346 59.6271762"></polygon>
          <polygon id="Fill-255" fill="#FFDA62" points="119.234346 59.6268638 127.255412 55.0326517 119.234346 50.4390642 111.213909 55.0326517"></polygon>
          <polygon id="Fill-257" fill="#C7D300" points="119.234346 59.6268638 111.213909 55.0326517 111.213909 59.536279 119.234346 64.1304911"></polygon>
          <polygon id="Fill-259" fill="#C7D300" points="119.234346 59.6268638 127.255412 55.0326517 127.255412 50.5290243 119.234346 55.1226118"></polygon>
          <polygon id="Fill-261" fill="#D9DF69" points="119.234346 55.1226118 127.255412 50.5283996 119.234346 45.9348122 111.213909 50.5283996"></polygon>
          <polygon id="Fill-263" fill="#B8C300" points="119.234346 55.1226118 111.213909 50.5283996 111.213909 55.0326517 119.234346 59.6268638"></polygon>
        </g>
      </g>
    </g>
  </g>
</svg>
