<?xml version="1.0" encoding="UTF-8"?>
<svg xmlns="http://www.w3.org/2000/svg" xmlns:xlink="http://www.w3.org/1999/xlink" width="224px" height="166px" viewBox="0 0 224 166">
  <!-- Generator: Sketch 49 (51002) - http://www.bohemiancoding.com/sketch -->
  <title>5</title>
  <desc>Created with Sketch.</desc>
  <defs>
    <polygon id="path-1" points="0.000336716398 0.202303695 112.468671 0.202303695 112.468671 72.110504 0.000336716398 72.110504"></polygon>
  </defs>
  <g id="Page-1" stroke="none" stroke-width="1" fill="none" fill-rule="evenodd">
    <g id="Desktop-HD" transform="translate(-422.000000, -4406.000000)">
      <g id="5" transform="translate(422.000000, 4406.000000)">
        <path d="M82.3250313,0.389487695 L23.3594673,12.2321534 C7.81422398,12.7490646 -3.19686194,27.6700519 0.83930663,42.7499701 L14.0406211,92.0818094 C17.6172259,105.445891 31.5916527,113.097719 44.719191,108.88065 L44.7238021,108.879107 C53.4847163,106.064642 63.0786859,108.493352 69.4649313,115.140675 L111.193012,158.584357 C117.400965,165.046518 126.658331,167.536949 135.251712,165.054233 L206.517907,144.473454 C219.399525,140.753237 226.549661,127.379897 223.162107,114.862932 C222.587269,112.741282 221.477553,110.806337 219.989734,109.190797 C213.186961,101.799739 189.790709,73.7646387 196.459763,44.3099617 C200.099385,28.2286246 190.307142,14.6624073 173.893492,13.9711351 L114.233203,15.0851944 C111.497339,15.136114 108.856768,14.1346951 106.841758,12.276901 C105.071131,10.6443876 102.816349,8.55514074 101.088758,6.63099687 C96.3670861,1.37547641 89.2384685,-0.997685791 82.3250313,0.389487695" id="Fill-1" fill="#FCE7D2" opacity="0.5"></path>
        <g id="Page-1" transform="translate(42.400000, 40.096618)">
          <path d="M114.293786,52.1226736 L110.44175,55.7883714 C110.44175,55.7883714 77.4716012,36.8000001 77.7129146,36.6675729 L82.2546579,33.90238 L114.293786,52.1226736 Z" id="Fill-1" fill="#231F20"></path>
          <path d="M113.165393,34.5748285 L113.165393,47.072576 L106.514683,43.2169719 C106.467543,42.911544 106.467543,42.6337286 106.467543,42.3553497 C106.467543,38.4997456 110.210707,37.4809014 113.165393,34.5748285 M126.78894,21.28928 C124.573907,20.0050178 122.914456,20.1813996 121.513155,20.2169014 C120.066396,20.2524031 117.277823,21.3512672 116.348486,21.5152515 C115.502767,16.9918762 113.037441,13.3165985 109.033883,10.9954594 C106.854767,9.73261099 104.970277,9.04906118 103.591423,9.30997096 C102.730552,9.47226473 99.2971666,11.0146191 98.4289994,11.2867993 C96.4620143,11.9044172 95.5495128,13.8361639 95.5495128,17.8055991 L95.5495128,21.57104 L100.401035,24.3835686 L105.653811,22.5498743 C105.694217,22.9713873 105.717787,23.4238939 105.717787,23.9203551 C105.717787,35.1129902 95.5495128,31.1029815 95.5495128,42.5114448 L95.5495128,47.2776973 L110.381871,55.8764496 L113.767555,52.9602334 C114.829334,57.0046167 117.280629,60.3203687 120.954767,62.4499109 C122.570444,63.3864812 123.949298,63.8198281 125.077859,63.7724924 C126.425847,63.7161404 130.789131,62.4341323 131.790301,62.1236328 C133.615865,61.5578587 134.578313,59.3826713 134.578313,55.717537 L134.578313,35.5530993 C134.578313,29.3504342 131.826217,24.2088773 126.78894,21.28928" id="Fill-3" fill="#E3E2E2"></path>
          <path d="M103.059524,17.9493531 C101.42701,17.0032029 100.401147,17.4624718 100.401147,20.2316092 L100.401147,24.3836249 L95.5496251,21.5710964 L95.5496251,17.8056555 C95.5496251,11.6029904 98.1619833,9.57206413 103.199261,12.492225 C108.237661,15.4135129 110.848897,20.4727958 110.848897,26.6748974 C110.848897,38.8638359 100.633482,37.4837753 100.633482,43.8521153 C100.633482,44.1304942 100.633482,44.4083096 100.680622,44.7137375 L110.381983,50.338231 L110.381983,55.876506 L95.5496251,47.2771901 L95.5496251,42.5115011 C95.5496251,31.1030379 105.717339,35.1130465 105.717339,23.9204114 C105.717339,20.4327859 104.691476,18.8960667 103.059524,17.9493531" id="Fill-5" fill="#28373C"></path>
          <path d="M118.296727,51.5473196 C118.296727,54.3164571 119.32259,55.9613721 120.954542,56.9080858 C122.587617,57.8542359 123.613479,57.3983482 123.613479,54.6292107 L123.613479,33.688806 C123.613479,30.9196685 122.587617,29.2708088 120.954542,28.3246587 C119.32259,27.377945 118.296727,27.8377774 118.296727,30.6069148 L118.296727,51.5473196 Z M113.165169,28.0181038 C113.165169,21.8154387 115.918387,19.8656593 120.954542,22.7858202 C125.99182,25.705981 128.743915,30.8475379 128.743915,37.0496395 L128.743915,57.2140771 C128.743915,63.4206869 125.99182,65.3699027 120.954542,62.4503054 C115.918387,59.5301445 113.165169,54.3885876 113.165169,48.1825414 L113.165169,28.0181038 Z" id="Fill-7" fill="#28373C"></path>
          <path d="M145.41323,56.8548331 L145.41323,49.2247717 C145.907642,49.6417766 146.210125,50.2413619 146.210125,51.0550848 L146.210125,58.6885273 C145.7,58.2670143 145.41323,57.6770089 145.41323,56.8548331 M146.568167,46.3434938 C145.490675,45.7191136 144.656179,45.5399142 144.084322,45.7889901 C143.847499,45.8915507 142.679093,46.292777 142.387833,46.4871914 C141.903522,46.8100884 141.652669,47.5105438 141.652669,48.5750331 L141.652669,55.9858852 C141.652669,58.3070243 142.840716,60.2849796 145.052943,61.5675512 C145.815045,62.0093509 146.454806,62.2279967 146.967737,62.2308143 C147.479546,62.2330684 148.684991,61.6419359 148.916203,61.5726229 C149.609839,61.365811 149.970687,60.6118212 149.970687,59.3348848 L149.970687,51.9240327 C149.970687,49.6034572 148.782639,47.6271924 146.568167,46.3434938" id="Fill-9" fill="#E3E2E2"></path>
          <path d="M134.278691,42.1501721 L134.278691,34.5201107 C134.771981,34.936552 135.072781,35.5355738 135.072781,36.3492968 L135.072781,43.9821757 C134.563217,43.5600992 134.278691,42.9717843 134.278691,42.1501721 Z M146.375229,38.141854 L144.290393,36.9331035 L142.776291,37.5281807 L138.785079,45.3785784 C138.81819,45.1526069 138.835587,44.904658 138.835587,44.6302238 L138.835587,37.2193717 C138.835587,34.8987962 137.6481,32.9225314 135.433067,31.6388327 C134.380829,31.0285405 133.560924,30.843706 132.989629,31.0668599 C132.734285,31.166603 131.562512,31.5847348 131.27462,31.7673153 C130.776279,32.0840136 130.51813,32.7895407 130.51813,33.8703721 L130.51813,41.2812242 C130.51813,43.6023632 131.703933,45.5791915 133.918405,46.8628902 C134.870751,47.4151398 135.632853,47.6185706 136.192363,47.4872704 C136.528518,47.4083776 137.418011,46.9372748 137.606011,46.9068448 C137.794011,46.8769782 137.961247,46.8121734 138.106596,46.7129939 L133.918405,54.9505298 L136.003802,56.1592803 L137.517903,55.5642032 L146.375229,38.141854 Z" id="Fill-11" fill="#E3E2E2"></path>
          <path d="M143.89896,57.4499666 C143.89896,58.4496512 144.31705,59.1100967 145.053336,59.5366813 C145.759879,59.9469239 146.209957,59.7897018 146.209957,58.7900173 L146.209957,51.0551412 C146.209957,50.0577107 145.759879,49.3769785 145.053336,48.9667359 C144.31705,48.5401512 143.89896,48.7176601 143.89896,49.7150905 L143.89896,57.4499666 Z M141.6525,48.574526 C141.6525,46.2539504 142.840548,45.6554922 145.053336,46.9386273 C147.268369,48.2223259 148.456417,50.1985907 148.456417,52.5191663 L148.456417,59.9300183 C148.456417,62.2511574 147.268369,62.8518697 145.053336,61.5676076 C142.840548,60.285036 141.6525,58.3070806 141.6525,55.9859416 L141.6525,48.574526 Z M142.776011,37.5284061 L144.860847,38.7371566 L136.004082,56.1595057 L133.918685,54.9507552 L142.776011,37.5284061 Z M132.764309,42.7454747 C132.764309,43.7451592 133.180154,44.4044777 133.918685,44.8321894 C134.62579,45.2418684 135.0725,45.0835193 135.0725,44.0838348 L135.0725,36.3495222 C135.0725,35.3520917 134.62579,34.6724865 133.918685,34.2622439 C133.180154,33.8345322 132.764309,34.0131681 132.764309,35.0105986 L132.764309,42.7454747 Z M130.51785,33.870034 C130.51785,31.5494585 131.704214,30.9498731 133.918685,32.2335718 C136.133157,33.517834 137.321205,35.4940988 137.321205,37.8146743 L137.321205,45.2260899 C137.321205,47.5466654 136.133157,48.1473778 133.918685,46.8631156 C131.704214,45.5794169 130.51785,43.6020251 130.51785,41.2814496 L130.51785,33.870034 Z" id="Fill-13" fill="#28373C"></path>
          <g id="Group-17" transform="translate(0.000000, 0.361216)">
            <mask id="mask-2" fill="white">
              <use xlink:href="#path-1"></use>
            </mask>
            <g id="Clip-16"></g>
            <polygon id="Fill-15" fill="#231F20" mask="url(#mask-2)" points="25.3730412 13.1567278 25.3730412 13.1567278 3.59871284 0.201965583 0.000336716398 2.59861632 0.000336716398 7.33725635 21.7741039 20.2920186 108.869734 72.110504 112.468671 69.7144168 112.468671 64.9752133"></polygon>
          </g>
          <polygon id="Fill-18" fill="#F3F3F3" points="123.404435 69.9618585 36.3088048 18.143373 32.7098675 20.5394602 32.7098675 25.2786638 119.805497 77.0971492 123.404435 74.701062"></polygon>
          <polygon id="Fill-20" fill="#8ABF56" points="36.3086925 18.143373 14.5343642 5.18861078 10.9354269 7.58526152 10.9354269 12.3239016 32.7097552 25.2786638 32.7097552 20.5394602"></polygon>
          <polygon id="Fill-22" fill="#E3E2E2" points="119.805441 77.0972619 10.935483 12.3240143 10.935483 7.58481071 119.805441 72.3580584"></polygon>
          <polygon id="Fill-24" fill="#64A830" points="32.7096991 25.2787201 10.9353707 12.3239579 10.9353707 7.58531787 32.7096991 20.5395166"></polygon>
          <path d="M89.0351725,80.6558347 L86.0866591,83.1984371 C86.0866591,83.1984371 69.7879009,74.2463577 70.0297755,74.1139305 L73.666874,72.4718331 L89.0351725,80.6558347 Z" id="Fill-26" fill="#231F20"></path>
          <polygon id="Fill-28" fill="#F8BE72" points="88.9694006 80.7403063 88.2409707 74.6317491 88.4362663 74.490869 91.429114 72.0322311 86.9799678 68.5879966 84.9905349 62.0370761 81.997126 64.4951505 81.4415439 65.6802332 78.5519558 64.5667176 75.5591081 67.0253555 78.778117 73.0927758 78.0176991 78.5848421 81.997126 78.0906351 85.9765528 83.1983807"></polygon>
          <polygon id="Fill-30" fill="#F08F03" points="81.9971821 64.4950942 83.9871761 71.0460147 88.4363224 74.4908127 85.216191 76.8254762 85.976609 83.1983244 81.9971821 78.0905787 78.0183164 78.5847858 78.7781731 73.0927195 75.558603 67.0252992 80.0077493 68.7389636"></polygon>
          <polygon id="Fill-32" fill="#F8BE72" points="73.5321875 20.2925821 73.0781815 16.4882583 73.1999606 16.4003492 75.063686 14.8692652 72.293071 12.7233809 71.0539546 8.64405933 69.1902293 10.1745798 68.8439725 10.912791 67.0436621 10.2196614 65.1799367 11.7507453 67.1845218 15.5297107 66.7114352 18.9502774 69.1902293 18.6425954 71.6684621 21.8236661"></polygon>
          <polygon id="Fill-34" fill="#F08F03" points="69.1900609 10.1748052 70.4291773 14.2546903 73.2003534 16.4000111 71.194646 17.8544563 71.6682937 21.823328 69.1900609 18.6422573 66.7112669 18.9499393 67.1849146 15.5293726 65.1797684 11.7504072 67.9509445 12.8177142"></polygon>
          <polygon id="Fill-36" fill="#231F20" points="13.9269278 47.6203175 9.17754269 41.4565353 3.97751881 40.9516213 7.17688597 38.4822765 5.67400836 34.0687875 11.1243248 37.4420185 17.4905099 36.2310139 16.4769934 39.7039879 24.3466173 45.2721295 13.9426412 42.3497145"></polygon>
          <polygon id="Fill-38" fill="#F8BE72" points="13.3948036 47.4279881 14.1232334 41.3194308 13.9284991 41.1785508 10.9356513 38.7199129 15.3842364 35.2756784 17.3742304 28.7241944 20.3670782 31.1822688 20.9232215 32.367915 23.8128096 31.2543994 26.8056573 33.7130373 23.5866484 39.7804576 24.3465051 45.2725239 20.3670782 44.7783169 16.3876513 49.8860625"></polygon>
          <polygon id="Fill-40" fill="#F08F03" points="20.3672466 31.1824379 18.3778137 37.7333583 13.9286675 41.1781564 17.1476764 43.5133834 16.3878197 49.8862316 20.3672466 44.7784859 24.3466734 45.2721295 23.5862555 39.7806267 26.8058257 33.7126429 22.3566794 35.4263073"></polygon>
          <path d="M89.5963666,80.0923146 L86.6478531,82.634917 C86.6478531,82.634917 70.3490949,73.6828377 70.5909696,73.5504104 L74.2280681,71.908313 L89.5963666,80.0923146 Z" id="Fill-42" fill="#231F20"></path>
          <polygon id="Fill-44" fill="#F8BE72" points="89.5305946 80.1767863 88.8021648 74.068229 88.9974603 73.927349 91.9903081 71.4687111 87.5411618 68.0244766 85.551729 61.4735561 82.55832 63.9316305 82.0027379 65.1167131 79.1131499 64.0031975 76.1203021 66.4618355 79.339311 72.5292558 78.5788931 78.0213221 82.55832 77.527115 86.5377469 82.6348607"></polygon>
          <polygon id="Fill-46" fill="#F08F03" points="82.5583761 63.9315741 84.5483701 70.4824946 88.9975164 73.9272926 85.7773851 76.2619562 86.537803 82.6348043 82.5583761 77.5270587 78.5795104 78.0212658 79.3393672 72.5291994 76.119797 66.4617791 80.5689433 68.1754436"></polygon>
        </g>
      </g>
    </g>
  </g>
</svg>
