<?xml version="1.0" encoding="UTF-8"?>
<svg xmlns="http://www.w3.org/2000/svg" xmlns:xlink="http://www.w3.org/1999/xlink" width="189px" height="170px" viewBox="0 0 189 170">
  <!-- Generator: Sketch 49 (51002) - http://www.bohemiancoding.com/sketch -->
  <title>1</title>
  <desc>Created with Sketch.</desc>
  <defs>
    <polygon id="path-1" points="0 0.315035737 121.771596 0.315035737 121.771596 73.8512949 0 73.8512949"></polygon>
    <polygon id="path-3" points="0.125176082 0.121507472 55.5241732 0.121507472 55.5241732 104.78047 0.125176082 104.78047"></polygon>
  </defs>
  <g id="Page-1" stroke="none" stroke-width="1" fill="none" fill-rule="evenodd">
    <g id="Desktop-HD" transform="translate(-781.000000, -3641.000000)">
      <g id="1" transform="translate(781.000000, 3641.000000)">
        <path d="M89.6535225,29.9234935 L48.0839189,40.3183131 C38.8088386,42.6381792 30.8197912,48.5169928 25.8430076,56.6829215 L5.35561228,90.3036947 C-8.55246061,113.129358 6.06502222,142.663527 32.6442481,145.43645 L76.1911046,149.981568 C78.7195144,150.245396 81.2115442,150.774871 83.630814,151.559077 L134.990275,168.207527 C157.156607,175.392744 180.268819,160.168964 182.429791,136.959386 L188.843585,67.982034 C189.036399,65.9059813 189.050951,63.8171921 188.887241,61.7393198 L186.655328,33.5624991 C184.485261,6.14805012 153.867855,-9.04479844 130.731996,5.81508111 L100.487486,25.2400932 C97.1550779,27.3816481 93.4952502,28.962796 89.6535225,29.9234935" id="Fill-1" fill="#FCE7D2" opacity="0.5"></path>
        <g id="Page-1" transform="translate(18.900000, 26.984127)">
          <g id="Group-6" transform="translate(0.000000, 33.902794)">
            <path d="M54.6777835,53.3026455 C54.6714742,53.307064 54.664534,53.3121136 54.6582247,53.3159009 C54.1263526,53.6857885 53.4556763,53.6523345 52.7698577,53.2218509 L40.1210165,48.6853616 C39.1430784,48.0705653 38.4326536,46.4862341 38.5348639,45.1455491 C38.6364433,43.8054952 39.5109093,43.2159473 40.4894784,43.8294811 L52.1124309,47.7227699 L57.8393629,13.1256475 C57.9239072,11.7736007 58.7851237,11.1550172 59.7643237,11.7439339 C60.7441546,12.3328506 61.4709835,13.9058201 61.3870701,15.2584981 L55.5724392,51.2726817 C55.5150247,52.2093939 55.197668,52.9289706 54.6777835,53.3026455" id="Fill-1" fill="#1E1E1C"></path>
            <g id="Group-5">
              <mask id="mask-2" fill="white">
                <use xlink:href="#path-1"></use>
              </mask>
              <g id="Clip-4"></g>
              <path d="M6.26233732,33.0614573 L56.0860775,4.08523902 L116.270284,41.9179319 L66.3727249,70.7079439 L6.26233732,33.0614573 Z M60.8722961,3.41742133 L56.3832445,0.720902256 L55.7075208,0.315035737 L-0.000252371127,32.6050942 L60.8855456,70.7407667 L65.3884775,73.4454915 L66.0642012,73.851358 L66.3727249,73.6727263 L66.3727249,73.851358 L121.771974,41.8870027 L121.771974,41.5606683 L60.8855456,3.42562703 L60.8855456,3.40984684 L60.8722961,3.41742133 Z" id="Fill-3" fill="#1E1E1C" mask="url(#mask-2)"></path>
            </g>
          </g>
          <path d="M116.593003,-6.31207649e-05 L60.885861,32.2906266 L60.885861,104.643435 L66.0645167,107.754026 L121.771659,75.4633361 L121.771659,3.11052817 L116.593003,-6.31207649e-05 Z M68.7680425,36.8201727 L119.376026,7.61987561 L119.376026,74.0292323 L68.7680425,103.228898 L68.7680425,36.8201727 Z" id="Fill-7" fill="#D57B0F"></path>
          <path d="M116.593003,-6.31207649e-05 L60.885861,32.2906266 L60.885861,104.643435 L66.0645167,107.754026 L121.771659,75.4633361 L121.771659,3.10989696 L116.593003,-6.31207649e-05 Z M63.281494,33.7247303 L113.889478,4.52443331 L113.889478,70.93379 L63.281494,100.133456 L63.281494,33.7247303 Z" id="Fill-8" fill="#D57B0F"></path>
          <g id="Group-16" transform="translate(66.247423, 2.973619)">
            <path d="M42.3490751,27.6351546 C41.6077348,27.1371317 39.560374,24.4986837 38.8190338,24.0006609 C38.0770627,23.5026381 36.8751452,24.1969665 36.1319122,25.5502757 L17.1371988,60.1991572 L9.18561526,54.4823095 C8.45752454,53.9596695 7.25497608,54.6255936 6.49912454,55.9700659 C5.74264206,57.3145382 5.71992866,58.8275429 6.44738845,59.3514453 C6.44738845,59.3514453 9.59571835,62.7113636 9.97742969,62.9859389 L18.6924359,69.2506748 C19.2028565,69.6180377 19.889306,69.5908958 20.6255988,69.1742987 C20.6344318,69.169249 20.6438957,69.1641994 20.6527287,69.1591497 C21.3782957,68.7400278 22.0596977,67.9939404 22.5739039,67.056597 L42.3478132,30.9881296 C43.0897843,29.6341892 43.0904153,28.1331774 42.3490751,27.6351546" id="Fill-9" fill="#D57B0F"></path>
            <g id="Group-13">
              <mask id="mask-4" fill="white">
                <use xlink:href="#path-3"></use>
              </mask>
              <g id="Clip-12"></g>
              <path d="M53.1287926,71.0553606 L2.52080907,100.255026 L2.52080907,33.8463009 L53.1287926,4.64663511 L53.1287926,71.0553606 Z M0.125176082,32.0852316 L0.125176082,104.780785 L55.5244256,72.81643 L55.5244256,0.121507472 L0.125176082,32.0852316 Z" id="Fill-11" fill="#EF8F04" mask="url(#mask-4)"></path>
            </g>
            <path d="M20.6529179,69.1589604 C20.643454,69.16401 20.634621,69.1696909 20.625788,69.1741093 C19.8894953,69.5907064 19.2030458,69.6178483 18.6926252,69.2511167 L9.97761897,62.9857496 C9.25015918,62.4624784 9.27287258,60.9488425 10.0293551,59.6043702 C10.7852066,58.2605291 11.9877551,57.594605 12.7152148,58.1166138 L20.6667984,63.8340926 L39.6621427,29.1852112 C40.4053757,27.8312708 41.6072932,27.1375736 42.3492643,27.6349652 C43.0906045,28.132988 43.0899736,29.634631 42.3473715,30.9885714 L22.5740932,67.0564077 C22.059887,67.9943823 21.3784849,68.7398385 20.6529179,69.1589604" id="Fill-14" fill="#EF8F04"></path>
          </g>
        </g>
      </g>
    </g>
  </g>
</svg>
