<?xml version="1.0" encoding="UTF-8"?>
<svg xmlns="http://www.w3.org/2000/svg" xmlns:xlink="http://www.w3.org/1999/xlink" width="167px" height="222px" viewBox="0 0 167 222">
  <!-- Generator: Sketch 49 (51002) - http://www.bohemiancoding.com/sketch -->
  <title>8</title>
  <desc>Created with Sketch.</desc>
  <defs>
    <polygon id="path-1" points="0.324875199 0.208605587 8.71781523 0.208605587 8.71781523 6.16308033 0.324875199 6.16308033"></polygon>
  </defs>
  <g id="Page-1" stroke="none" stroke-width="1" fill="none" fill-rule="evenodd">
    <g id="Desktop-HD" transform="translate(-480.000000, -4951.000000)">
      <g id="8" transform="translate(480.000000, 4951.000000)">
        <path d="M7.72007017,108.315823 L15.2474402,112.805956 C25.5773892,118.965638 25.5292563,134.021249 15.1604904,140.115336 C4.82588333,146.189119 4.73427549,161.179136 14.9943541,167.379424 L101.621217,219.736718 C106.861496,222.904018 113.45105,222.735346 118.52364,219.304103 L160.035968,191.227887 C166.035506,187.168807 168.519786,179.522305 166.057243,172.684809 L150.949712,130.713388 C149.398589,126.405983 146.071206,122.984112 141.819981,121.330181 L28.4094691,77.2050578 C24.7591293,75.7838331 20.7113047,75.7807095 17.0594123,77.1988106 L10.0863474,79.9022612 C-2.18910385,84.6625831 -3.5958277,101.567348 7.72007017,108.315823" id="Fill-1" fill="#FCE7D2" opacity="0.5"></path>
        <g id="Page-1" transform="translate(27.167464, 0.000000)">
          <path d="M35.8538453,117.266218 L32.0789261,120.850329 C32.0789261,120.850329 -0.235254258,102.28489 0.00134239234,102.155466 L4.45249167,99.4521146 L35.8538453,117.266218 Z" id="Fill-1" fill="#231F20"></path>
          <path d="M73.0312894,7.06339431 C73.2354449,7.35754133 73.4149899,7.65673087 73.5716023,7.95648068 C72.6755554,6.81743138 71.4707583,5.65877228 69.8425482,4.60544582 C69.7435468,4.5415739 69.6451047,4.47938281 69.5477812,4.41999313 C70.6876961,4.64186402 72.0177832,5.60442511 73.0312894,7.06339431 Z M68.5706315,10.1712676 C67.6326348,8.82043249 67.1885267,7.36202357 67.2774602,6.24314435 C68.4386296,6.42467508 69.820175,7.40180345 70.8638851,8.90559505 C71.8024411,10.2564302 72.2465492,11.7142788 72.1576157,12.8337183 C70.995887,12.6516273 69.6149009,11.674499 68.5706315,10.1712676 Z M106.162092,42.8949831 L94.9217932,36.38621 C92.3499932,22.9041916 78.3147219,12.5003517 78.3147219,12.5003517 C78.3147219,12.5003517 78.3147219,6.8420837 72.0099525,2.76324508 C65.7046238,-1.31559354 62.6836817,3.42157412 62.6836817,3.42157412 C54.8933315,0.442004916 50.7699497,2.51055879 48.6226812,5.05030816 C47.3076961,5.82853713 46.3730554,6.87177854 45.7141645,7.89597044 L32.0776956,0.000504252027 L29.9102913,1.84214471 L29.9102913,119.653347 L103.994687,161.184104 L106.162092,159.342464 L106.162092,42.8949831 Z" id="Fill-3" fill="#E3E2E2"></path>
          <path d="M71.3778535,14.4113549 C70.1462086,15.2697039 67.9183966,14.1962073 66.4031712,12.0133563 C64.8873866,9.83106561 64.6575019,7.36583347 65.8891468,6.50748447 C67.1213511,5.64913546 69.3486038,6.722632 70.8638291,8.905483 C72.3796138,11.0877737 72.6094985,13.5530058 71.3778535,14.4113549 Z M92.754333,38.2282987 C90.182533,24.7462803 76.1472617,14.3418801 76.1472617,14.3418801 C76.1472617,14.3418801 76.1472617,8.68417239 69.8424923,4.60533376 C63.5371636,0.526495144 60.5162215,5.26310252 60.5162215,5.26310252 C49.0477162,0.877230443 45.523377,7.43194652 44.5579732,10.3229915 L29.9102354,1.84203266 L29.9102354,119.653235 L103.994632,161.183992 L103.994632,44.7370718 L92.754333,38.2282987 Z" id="Fill-5" fill="#28373C"></path>
          <polygon id="Fill-7" fill="#FEFEFE" points="34.1136014 9.34227731 34.1136014 115.920986 100.120152 154.60552 100.120152 47.8290331"></polygon>
          <polygon id="Fill-9" fill="#E3E2E2" points="41.6011862 20.9869694 41.6011862 30.657963 90.0710585 59.0792881 90.0710585 49.4082945"></polygon>
          <path d="M43.3742068,44.9720532 L50.0738633,48.7147238 L50.0738633,43.0418885 L43.3742068,39.0941554 L43.3742068,44.9720532 Z M52.0438241,52.0752834 L41.4042461,46.1312726 L41.4042461,35.6428304 L52.0438241,41.9134845 L52.0438241,52.0752834 Z" id="Fill-11" fill="#E3E2E2"></path>
          <polygon id="Fill-13" fill="#64A830" points="37.3974287 42.2223669 41.4039105 48.0924208 54.0140086 40.7236178 52.5032578 37.894764 41.601354 44.6713509 38.7112952 40.7897309"></polygon>
          <polygon id="Fill-15" fill="#E3E2E2" points="56.3786327 44.2763535 56.3786327 47.0396546 89.1520231 66.249976 89.1520231 63.4872352"></polygon>
          <polygon id="Fill-17" fill="#E3E2E2" points="56.3786327 51.6448203 56.3786327 54.4081214 89.1520231 73.6184428 89.1520231 70.855702"></polygon>
          <polygon id="Fill-19" fill="#E3E2E2" points="64.6538662 52.9429331 56.3785767 48.0920286 56.3785767 50.8553297 64.6538662 55.7062342"></polygon>
          <polygon id="Fill-21" fill="#E3E2E2" points="67.8721959 54.829508 67.8721959 57.5928091 89.1519112 70.0657632 89.1519112 67.3030223"></polygon>
          <path d="M43.3742068,68.4083428 L50.0738633,72.1504531 L50.0738633,66.4781781 L43.3742068,62.5298847 L43.3742068,68.4083428 Z M52.0438241,75.5110127 L41.4042461,69.5675622 L41.4042461,59.07912 L52.0438241,65.3492138 L52.0438241,75.5110127 Z" id="Fill-23" fill="#E3E2E2"></path>
          <polygon id="Fill-25" fill="#64A830" points="37.3974287 65.6583763 41.4039105 71.5284302 54.0140086 64.1601875 52.5032578 61.3307734 41.601354 68.1073603 38.7112952 64.2257403"></polygon>
          <polygon id="Fill-27" fill="#E3E2E2" points="64.6538662 76.3789425 56.3785767 71.528038 56.3785767 74.2913391 64.6538662 79.1422436"></polygon>
          <polygon id="Fill-29" fill="#E3E2E2" points="68.8570644 75.0272109 56.3784089 67.7127551 56.3784089 70.4754959 68.8570644 77.790512"></polygon>
          <polygon id="Fill-31" fill="#E3E2E2" points="72.765272 84.6862705 56.3785767 75.0808297 56.3785767 77.8441308 72.765272 87.4495717"></polygon>
          <path d="M43.3742068,89.5444027 L50.0738633,93.286513 L50.0738633,87.614238 L43.3742068,83.6659446 L43.3742068,89.5444027 Z M52.0438241,96.6476329 L41.4042461,90.703622 L41.4042461,80.2151799 L52.0438241,86.4852737 L52.0438241,96.6476329 Z" id="Fill-33" fill="#E3E2E2"></path>
          <polygon id="Fill-35" fill="#64A830" points="37.3974287 86.7944362 41.4039105 92.6644901 54.0140086 85.2962474 52.5032578 82.4668333 41.601354 89.2434202 38.7112952 85.3618002"></polygon>
          <polygon id="Fill-37" fill="#E3E2E2" points="56.3786327 88.848703 56.3786327 91.6120041 89.1520231 110.822325 89.1520231 108.059024"></polygon>
          <polygon id="Fill-39" fill="#E3E2E2" points="56.3786327 96.2171697 56.3786327 98.9804709 89.1520231 118.190792 89.1520231 115.427491"></polygon>
          <polygon id="Fill-41" fill="#E3E2E2" points="64.6538662 97.5152825 56.3785767 92.664378 56.3785767 95.4276792 64.6538662 100.278584"></polygon>
          <polygon id="Fill-43" fill="#E3E2E2" points="67.8721959 99.4015773 67.8721959 102.164878 89.1519112 114.637832 89.1519112 111.875092"></polygon>
          <path d="M43.3742068,112.980412 L50.0738633,116.722522 L50.0738633,111.050247 L43.3742068,107.102514 L43.3742068,112.980412 Z M52.0438241,120.083642 L41.4042461,114.139631 L41.4042461,103.651189 L52.0438241,109.921283 L52.0438241,120.083642 Z" id="Fill-45" fill="#E3E2E2"></path>
          <polygon id="Fill-47" fill="#64A830" points="37.3974287 110.230446 41.4039105 116.1005 54.0140086 108.732257 52.5032578 105.902843 41.601354 112.67943 38.7112952 108.79781"></polygon>
          <polygon id="Fill-49" fill="#E3E2E2" points="64.6538662 120.951292 56.3785767 116.100387 56.3785767 118.863689 64.6538662 123.714593"></polygon>
          <polygon id="Fill-51" fill="#E3E2E2" points="68.8570644 119.59928 56.3784089 112.284824 56.3784089 115.047565 68.8570644 122.362581"></polygon>
          <polygon id="Fill-53" fill="#E3E2E2" points="72.765272 129.25834 56.3785767 119.652899 56.3785767 122.4162 72.765272 132.021641"></polygon>
          <path d="M52.6545007,160.288273 C52.9145892,160.430584 52.9151486,160.664221 52.65506,160.807092 L42.6995428,166.558927 C42.4400136,166.701798 42.0154821,166.702359 41.7548342,166.560608 L12.2294739,148.891617 L23.3483978,142.425985 L52.6545007,160.288273 Z" id="Fill-55" fill="#231F20"></path>
          <path d="M99.8097234,176.399013 C100.069253,176.541324 100.069812,176.774401 99.8102827,176.917832 L89.8542062,182.669667 C89.594677,182.812538 89.1701454,182.813099 88.9100569,182.670788 L66.8797205,169.416243 L77.9992038,162.950611 L99.8097234,176.399013 Z" id="Fill-57" fill="#231F20"></path>
          <path d="M48.5605956,139.207456 C48.8754985,140.0955 48.3273549,140.653539 48.2261162,140.719652 L46.6359406,142.403854 C46.5347018,142.469967 41.7848702,142.520392 41.6836315,142.45484 L39.3103937,141.089997 C37.6894549,139.99465 37.7090315,137.598332 39.3467501,136.529318 L42.473965,134.487657 L48.5605956,139.207456 Z" id="Fill-59" fill="#231F20"></path>
          <path d="M98.5512306,163.118359 C98.8661334,164.006403 98.3179899,164.564442 98.2161918,164.630555 L96.6260162,166.314757 C96.5247775,166.38087 91.7755052,166.431295 91.6737071,166.365742 L89.3010287,165.0009 C87.6800899,163.905553 87.6996665,161.509235 89.3368258,160.440221 L92.4646,158.39856 L98.5512306,163.118359 Z" id="Fill-61" fill="#231F20"></path>
          <path d="M80.5385067,179.587286 C80.9580043,179.912809 80.4048268,181.244595 80.3785383,181.261963 L79.5568823,182.232368 C79.3739813,182.426225 79.1228421,182.539962 78.856601,182.549487 C78.0097751,182.580302 76.1511211,182.598792 75.4430091,182.580863 C75.2735321,182.57638 75.1079703,182.530437 74.9608665,182.445835 L73.1872306,181.426126 C71.8381263,180.51399 71.8543469,178.519393 73.2174344,177.629108 L73.3382498,177.550108 C74.8249493,176.579703 76.7619096,176.658142 78.1647096,177.746206 L80.5385067,179.587286 Z" id="Fill-63" fill="#231F20"></path>
          <path d="M70.8245082,175.122247 C71.3592278,175.586159 71.5108063,176.373352 71.1450044,176.980135 C71.0594269,177.122447 70.974968,177.20985 70.9402896,177.235063 L69.7321365,178.667139 C69.4614207,178.987619 69.0704489,179.179795 68.6515106,179.194362 C67.6100379,179.23078 67.2045235,180.73121 66.3179853,180.712721 C66.0422355,180.706558 64.2121073,179.146738 63.9805446,178.997704 L61.9647188,177.699535 C61.919413,177.6704 61.8746666,177.639585 61.8327168,177.605968 C60.2537278,176.340296 60.2939996,173.673923 61.9333963,172.475484 L61.9608034,172.455314 C63.8015589,171.109521 66.3258159,171.215414 68.0479934,172.710802 L70.8245082,175.122247 Z" id="Fill-65" fill="#231F20"></path>
          <path d="M73.9543519,142.820814 C74.2138811,142.963126 74.2144404,143.196762 73.9549112,143.339634 L55.0501117,155.066855 C54.7905825,155.209726 54.366051,155.210287 54.1059624,155.068536 L40.217795,146.808327 L60.2860012,134.366749 L73.9543519,142.820814 Z" id="Fill-67" fill="#231F20"></path>
          <path d="M45.3493134,142.266529 C47.5905493,141.735944 49.1577924,140.24616 48.8490422,138.939026 C48.5408512,137.631333 46.4741264,137.001578 44.2328905,137.532163 C41.9910953,138.062748 40.4244115,139.552533 40.7326024,140.859666 C41.0413527,142.16736 43.1080776,142.797115 45.3493134,142.266529 Z" id="Stroke-69" stroke="#F7BE02" stroke-width="0.5"></path>
          <path d="M45.5481553,143.110255 C43.3069194,143.64084 41.2401945,143.011086 40.9320036,141.703392 C40.8978845,141.5594 40.7664419,141.003602 40.7328821,140.85961 C40.4246912,139.552477 41.9913749,138.062692 44.2326108,137.532107 C46.4738467,137.001522 48.5411309,137.631277 48.8487625,138.93897 C48.883441,139.082962 49.0143242,139.63876 49.0484433,139.782752 C49.3566343,141.089885 47.7899505,142.57967 45.5481553,143.110255" id="Fill-71" fill="#F7CC00"></path>
          <path d="M45.214403,141.695044 C43.5145987,142.097325 41.9467963,141.619406 41.712437,140.62771 C41.478637,139.636015 42.6672135,138.50593 44.3670178,138.103649 C46.0673815,137.701368 47.6351839,138.179287 47.8689839,139.170982 C48.1033432,140.162678 46.9147667,141.292763 45.214403,141.695044 M48.8489303,138.939026 C48.5407394,137.631333 46.4740145,137.001578 44.2327786,137.532163 C41.9909834,138.062748 40.424859,139.552533 40.7324906,140.859666 C41.0412408,142.16736 43.1079657,142.797115 45.3492016,142.266529 C47.5904375,141.735944 49.1576805,140.24616 48.8489303,138.939026" id="Fill-73" fill="#FEE10A"></path>
          <path d="M44.8659403,138.302156 C43.166136,138.704437 41.9775595,139.834522 42.2113595,140.826218 C42.2980556,141.193201 42.5676528,141.489029 42.9580652,141.696893 C42.3008523,141.507518 41.8321336,141.134932 41.712437,140.627878 C41.478637,139.636183 42.6672135,138.506098 44.3670178,138.103817 C45.4386944,137.85001 46.4577939,137.946378 47.1228375,138.299915 C46.4958284,138.118944 45.6965456,138.105498 44.8659403,138.302156" id="Fill-75" fill="#DCB204"></path>
          <path d="M45.1385019,141.37193 C47.3797378,140.841345 48.9469809,139.35156 48.6382306,138.044427 C48.3294804,136.736734 46.2627555,136.106979 44.0215196,136.637564 C41.7802837,137.168149 40.2130407,138.657934 40.5217909,139.965067 C40.8305411,141.272761 42.897266,141.902515 45.1385019,141.37193 Z" id="Stroke-77" stroke="#F7BE02" stroke-width="0.5"></path>
          <path d="M45.3373438,142.215656 C43.0961079,142.746241 41.029383,142.116486 40.7206328,140.808793 C40.687073,140.664801 40.5556304,140.109003 40.5220706,139.965011 C40.2133203,138.657878 41.7805634,137.168093 44.02124,136.637508 C46.2624758,136.106923 48.32976,136.736678 48.637951,138.044371 C48.6720701,138.188363 48.8029533,138.744161 48.8370725,138.888153 C49.1458227,140.195286 47.5785797,141.685071 45.3373438,142.215656" id="Fill-79" fill="#F7CC00"></path>
          <path d="M45.0035915,140.800445 C43.3037872,141.202726 41.7354255,140.724807 41.5016255,139.733111 C41.2678255,138.741416 42.456402,137.611331 44.1562063,137.20905 C45.8560106,136.806769 47.4243723,137.284687 47.6581723,138.276383 C47.8919723,139.268079 46.7033958,140.398164 45.0035915,140.800445 M48.6381188,138.044427 C48.3293685,136.736734 46.2626436,136.106979 44.0214078,136.637564 C41.7801719,137.168149 40.2134881,138.657934 40.521679,139.965067 C40.8304293,141.272761 42.8971542,141.902515 45.13839,141.37193 C47.3796259,140.841345 48.946869,139.35156 48.6381188,138.044427" id="Fill-81" fill="#FEE10A"></path>
          <path d="M44.6550729,137.407613 C42.9552686,137.809894 41.766692,138.939979 42.000492,139.931674 C42.0871882,140.298658 42.356226,140.594486 42.7466384,140.80235 C42.0899848,140.612975 41.6212662,140.240389 41.5015695,139.733335 C41.2677695,138.74164 42.4563461,137.611555 44.1561504,137.209274 C45.2272676,136.955467 46.2463671,137.051835 46.91197,137.405372 C46.2844016,137.224401 45.4856781,137.210955 44.6550729,137.407613" id="Fill-83" fill="#DCB204"></path>
          <path d="M44.862081,139.907246 C47.1033168,139.376661 48.6705599,137.886876 48.3618097,136.579743 C48.0536188,135.27205 45.9868939,134.642295 43.7450987,135.17288 C41.5038628,135.703465 39.9366197,137.19325 40.24537,138.500383 C40.5541202,139.808077 42.6208451,140.437831 44.862081,139.907246 Z" id="Stroke-85" stroke="#F7BE02" stroke-width="0.5"></path>
          <path d="M45.0609228,140.750916 C42.8196869,141.281501 40.7529621,140.651746 40.4442118,139.344053 C40.410652,139.200061 40.2792094,138.644263 40.2456496,138.500271 C39.9368994,137.193138 41.5041424,135.703353 43.744819,135.172768 C45.9866142,134.642183 48.0538984,135.271937 48.36153,136.579631 C48.3956491,136.723623 48.5265324,137.278861 48.5612109,137.423413 C48.8694018,138.730546 47.302718,140.220331 45.0609228,140.750916" id="Fill-87" fill="#F7CC00"></path>
          <path d="M44.7271705,139.335761 C43.0273662,139.738042 41.4590045,139.260123 41.2252045,138.268427 C40.9914045,137.276731 42.1799811,136.146647 43.8797854,135.744366 C45.580149,135.342085 47.1479514,135.820003 47.3817514,136.811699 C47.6155514,137.803395 46.4269748,138.93348 44.7271705,139.335761 M48.3616978,136.579743 C48.0535069,135.27205 45.986782,134.642295 43.7449868,135.17288 C41.5037509,135.703465 39.9370672,137.19325 40.2452581,138.500383 C40.5540083,139.808077 42.6207332,140.437831 44.8619691,139.907246 C47.103205,139.376661 48.670448,137.886876 48.3616978,136.579743" id="Fill-89" fill="#FEE10A"></path>
          <path d="M44.3787078,135.942873 C42.6789035,136.345154 41.490327,137.475239 41.724127,138.466934 C41.8108232,138.833918 42.079861,139.129746 42.4708327,139.33761 C41.8136198,139.148235 41.3449011,138.775649 41.2252045,138.268595 C40.9914045,137.2769 42.1799811,136.146815 43.8797854,135.744534 C44.9509026,135.490727 45.9700021,135.587095 46.635605,135.940632 C46.0080366,135.759661 45.2093131,135.746215 44.3787078,135.942873" id="Fill-91" fill="#DCB204"></path>
          <path d="M44.004516,139.019202 C46.2457519,138.488617 47.8129949,136.998833 47.5042447,135.691699 C47.1960538,134.384006 45.1293289,133.754251 42.888093,134.284836 C40.6462978,134.815421 39.0796141,136.305206 39.387805,137.612339 C39.6965552,138.920033 41.7632801,139.549788 44.004516,139.019202 Z" id="Stroke-93" stroke="#F7BE02" stroke-width="0.5"></path>
          <path d="M44.2033578,139.862928 C41.962122,140.393513 39.8953971,139.763759 39.5872062,138.456065 C39.553087,138.312073 39.4216444,137.756275 39.3880846,137.612283 C39.0798937,136.30515 40.6465775,134.815365 42.8878133,134.28478 C45.1290492,133.754195 47.1963334,134.38395 47.503965,135.691643 C47.5386435,135.835635 47.6695267,136.391433 47.7036459,136.535425 C48.0118368,137.842558 46.4451531,139.332343 44.2033578,139.862928" id="Fill-95" fill="#F7CC00"></path>
          <path d="M43.8696056,138.447717 C42.1698012,138.849998 40.6019989,138.372079 40.3676395,137.380383 C40.1338395,136.388688 41.3224161,135.258603 43.0222204,134.856322 C44.722584,134.454041 46.2903864,134.93196 46.5241864,135.923655 C46.7585457,136.915351 45.5699692,138.045436 43.8696056,138.447717 M47.5041328,135.691699 C47.1959419,134.384006 45.129217,133.754251 42.8879811,134.284836 C40.6461859,134.815421 39.0800615,136.305206 39.3876931,137.612339 C39.6964433,138.920033 41.7631682,139.549788 44.0044041,139.019202 C46.24564,138.488617 47.8128831,136.998833 47.5041328,135.691699" id="Fill-97" fill="#FEE10A"></path>
          <path d="M43.5211429,135.054829 C41.8213386,135.45711 40.632762,136.587195 40.866562,137.578891 C40.9532582,137.945874 41.2228553,138.242262 41.6132678,138.450126 C40.9560548,138.260191 40.4873362,137.887605 40.3676395,137.380551 C40.1338395,136.388856 41.3224161,135.258771 43.0222204,134.85649 C44.0938969,134.602683 45.1124371,134.699051 45.77804,135.052588 C45.1510309,134.871617 44.3517481,134.858171 43.5211429,135.054829" id="Fill-99" fill="#DCB204"></path>
          <path d="M43.905123,137.931475 C46.1463589,137.40089 47.713602,135.911105 47.4048517,134.603972 C47.0966608,133.296278 45.0299359,132.666523 42.7881407,133.196548 C40.5469048,133.727133 38.9796618,135.216918 39.288412,136.524612 C39.5971622,137.832305 41.6638871,138.46206 43.905123,137.931475 Z" id="Stroke-101" stroke="#F7BE02" stroke-width="0.5"></path>
          <path d="M44.1039649,138.7752 C41.862729,139.305786 39.7960041,138.675471 39.4872539,137.368337 C39.4536941,137.224345 39.3222515,136.668548 39.2886917,136.524556 C38.9799414,135.216862 40.5471845,133.727077 42.7878611,133.196492 C45.0296563,132.666467 47.0969405,133.296222 47.4045721,134.603916 C47.4386912,134.747908 47.5695744,135.303145 47.6042529,135.447137 C47.9124438,136.754831 46.3457601,138.244615 44.1039649,138.7752" id="Fill-103" fill="#F7CC00"></path>
          <path d="M43.7702126,137.359709 C42.0704083,137.76199 40.5020466,137.284631 40.2682466,136.292936 C40.0344466,135.30124 41.2230231,134.171155 42.9228274,133.768314 C44.6231911,133.366033 46.1909934,133.843952 46.4247934,134.835647 C46.6585934,135.827343 45.4700169,136.957428 43.7702126,137.359709 M47.4047399,134.603691 C47.0965489,133.296558 45.0298241,132.666243 42.7880289,133.196828 C40.546793,133.727414 38.9801092,135.217198 39.2883001,136.524331 C39.5970504,137.832025 41.6637753,138.46178 43.9050111,137.931755 C46.146247,137.40117 47.7134901,135.911385 47.4047399,134.603691" id="Fill-105" fill="#FEE10A"></path>
          <path d="M43.3015499,137.172856 C45.0119814,136.795227 46.193846,135.673546 45.9404695,134.667283 C45.8470613,134.295257 45.5701929,133.991586 45.1719499,133.775317 C45.8386714,133.977579 46.3185767,134.361931 46.4477819,134.876268 C46.7005991,135.882531 45.5192939,137.004211 43.808303,137.38184 C42.7304738,137.619399 41.6996283,137.505102 41.0211609,137.136437 C41.6582379,137.329734 42.4653513,137.357188 43.3015499,137.172856" id="Fill-107" fill="#DCB204"></path>
          <polygon id="Fill-109" fill="#42814B" points="43.1988568 146.309398 62.4862382 134.536794 73.9228616 140.888689 73.9228616 143.634621 54.634921 155.407225 43.1988568 149.05533"></polygon>
          <polygon id="Fill-111" fill="#4A9358" points="54.6350888 152.661293 73.9224701 140.888689 62.486406 134.536794 43.1990246 146.309398"></polygon>
          <path d="M45.5798693,145.771585 L61.536999,136.032237 C62.3681636,136.249626 63.288821,136.23674 63.9924583,135.985734 L71.410854,140.106034 C71.1121717,140.507754 71.1636301,140.994077 71.5417373,141.426614 L55.4458937,151.251124 C54.6852047,151.051664 53.8495655,151.044941 53.1738947,151.237117 L45.7107526,147.092165 C46.0094349,146.690444 45.9579765,146.204121 45.5798693,145.771585" id="Fill-113" fill="#C4DA93"></path>
          <path d="M64.8674185,139.749639 C65.5319027,140.118864 66.5157644,140.146318 67.0650266,139.81127 C67.6137295,139.476223 67.5203213,138.905297 66.8558371,138.536073 C66.1907936,138.166848 65.2069319,138.139395 64.658229,138.474442 C64.1095261,138.80949 64.2029343,139.380415 64.8674185,139.749639" id="Fill-115" fill="#488B55"></path>
          <path d="M56.0339734,145.14155 C57.7237098,146.080019 60.2244749,146.150054 61.6200036,145.298429 C63.0155323,144.446243 62.777817,142.995118 61.0875213,142.056649 C59.3983443,141.118179 56.8970199,141.048144 55.5014911,141.89977 C54.1059624,142.751956 54.3442371,144.203081 56.0339734,145.14155" id="Fill-117" fill="#488B55"></path>
          <path d="M50.2658813,148.662182 C50.9303656,149.031407 51.9142273,149.05886 52.4634895,148.723813 C53.0121923,148.388765 52.9187842,147.81784 52.2543,147.448615 C51.5892565,147.079391 50.6053947,147.051937 50.0566919,147.386985 C49.507989,147.722032 49.6013971,148.292957 50.2658813,148.662182" id="Fill-119" fill="#488B55"></path>
          <polygon id="Fill-121" fill="#DF8208" points="66.318209 145.529712 66.318209 148.461097 62.3626262 150.875904 62.3626262 147.892413"></polygon>
          <polygon id="Fill-123" fill="#EF8F04" points="55.3796131 138.832069 66.3184327 145.529656 62.3622906 147.904683 51.476048 141.226145"></polygon>
          <polygon id="Fill-125" fill="#42814B" points="53.6409913 151.123492 34.3541693 139.350888 22.9169865 145.702783 22.9169865 155.231465 42.2049272 167.004069 53.6409913 160.652175"></polygon>
          <polygon id="Fill-127" fill="#4A9358" points="42.2047594 157.475387 22.917378 145.702783 34.3540015 139.350888 53.6408235 151.123492"></polygon>
          <polyline id="Stroke-129" stroke="#4A9358" stroke-width="0.5" stroke-linecap="round" stroke-linejoin="round" points="53.4344866 153.973076 42.2048153 160.117667 23.1243861 148.552367"></polyline>
          <polyline id="Stroke-131" stroke="#4A9358" stroke-width="0.5" stroke-linecap="round" stroke-linejoin="round" points="53.4344866 156.252744 42.2048153 162.397335 23.1243861 150.832034"></polyline>
          <polyline id="Stroke-133" stroke="#4A9358" stroke-width="0.5" stroke-linecap="round" stroke-linejoin="round" points="53.4344866 158.50647 42.2048153 164.651061 23.1243861 153.085761"></polyline>
          <path d="M51.2599788,150.585679 L35.3034085,140.846332 C34.4716845,141.06372 33.5510271,141.050834 32.8473898,140.799828 L25.4289941,144.920128 C25.7282357,145.321848 25.676218,145.808172 25.2986702,146.240708 L41.3939544,156.065218 C42.1546434,155.865758 42.9902826,155.859035 43.6659534,156.051211 L51.1296549,151.906259 C50.8304133,151.504539 50.882431,151.018216 51.2599788,150.585679" id="Fill-135" fill="#C4DA93"></path>
          <path d="M31.9723737,144.563734 C31.3078895,144.932958 30.3240278,144.960412 29.7747656,144.625364 C29.2260627,144.290317 29.3200302,143.719392 29.9845144,143.350167 C30.6489986,142.980942 31.6334197,142.953489 32.1821225,143.288536 C32.7308254,143.623584 32.6368579,144.194509 31.9723737,144.563734" id="Fill-137" fill="#488B55"></path>
          <path d="M40.806434,149.955644 C39.1166977,150.894114 36.6153733,150.964149 35.2198445,150.112523 C33.8243158,149.260337 34.0625905,147.809212 35.7523268,146.870743 C37.4415039,145.932274 39.9428283,145.862239 41.3389163,146.713864 C42.734445,147.56549 42.4961704,149.017175 40.806434,149.955644" id="Fill-139" fill="#488B55"></path>
          <path d="M46.5739668,153.476276 C45.9094826,153.845501 44.9256209,153.872954 44.3763587,153.537907 C43.8276558,153.202859 43.9216233,152.631934 44.5861075,152.26271 C45.2505917,151.893485 46.2350127,151.866031 46.7837156,152.201079 C47.3324185,152.536126 47.238451,153.107052 46.5739668,153.476276" id="Fill-141" fill="#488B55"></path>
          <polygon id="Fill-143" fill="#DF8208" points="30.5221985 150.343806 30.5221985 159.872489 34.4772219 162.286736 34.4772219 152.706507"></polygon>
          <polygon id="Fill-145" fill="#EF8F04" points="41.460235 143.646163 30.5219747 150.34375 34.4775575 152.718777 45.3638001 146.04024"></polygon>
          <polygon id="Fill-147" fill="#42814B" points="97.4457145 148.196813 78.1583332 136.424209 66.7217098 142.776104 66.7217098 152.305347 86.0090911 164.077391 97.4457145 157.725496"></polygon>
          <polygon id="Fill-149" fill="#4A9358" points="86.0089233 154.548652 66.7221013 142.776048 78.1581654 136.424153 97.4455467 148.196757"></polygon>
          <polyline id="Stroke-151" stroke="#4A9358" stroke-width="0.5" stroke-linecap="round" stroke-linejoin="round" points="97.2386505 151.046622 86.0089792 157.191213 66.92855 145.625912"></polyline>
          <polyline id="Stroke-153" stroke="#4A9358" stroke-width="0.5" stroke-linecap="round" stroke-linejoin="round" points="97.2386505 153.326345 86.0089792 159.470936 66.92855 147.905636"></polyline>
          <polyline id="Stroke-155" stroke="#4A9358" stroke-width="0.5" stroke-linecap="round" stroke-linejoin="round" points="97.2386505 155.580016 86.0089792 161.724607 66.92855 150.159306"></polyline>
          <path d="M95.0641987,147.658945 L79.1076283,137.919597 C78.2759044,138.136985 77.355247,138.124659 76.6516097,137.873654 L69.2337733,141.993393 C69.5324556,142.395114 69.4809972,142.881437 69.10289,143.313973 L85.1987336,153.138483 C85.9594226,152.939024 86.7950618,152.9323 87.4707326,153.124476 L94.9338747,148.979525 C94.6346331,148.577804 94.6866508,148.091481 95.0641987,147.658945" id="Fill-157" fill="#C4DA93"></path>
          <path d="M75.7765936,141.637055 C75.1126687,142.006279 74.1282477,142.033733 73.5789855,141.698686 C73.0302826,141.363638 73.12425,140.792713 73.7887343,140.423488 C74.4537778,140.054264 75.4376395,140.02681 75.9863424,140.361857 C76.5350453,140.696905 76.4410778,141.26783 75.7765936,141.637055" id="Fill-159" fill="#488B55"></path>
          <path d="M84.6105979,147.02891 C82.9208616,147.967379 80.4200965,148.037414 79.0245678,147.185788 C77.6290391,146.334162 77.8667544,144.882477 79.5564908,143.944008 C81.2462271,143.005539 83.7475515,142.935504 85.1430802,143.787129 C86.5386089,144.639315 86.3003343,146.090441 84.6105979,147.02891" id="Fill-161" fill="#488B55"></path>
          <path d="M90.37869,150.549541 C89.7142058,150.918766 88.7297848,150.94622 88.1805226,150.611172 C87.6318197,150.276125 87.7257872,149.705199 88.3902714,149.335975 C89.0553149,148.96675 90.0391767,148.939296 90.5878795,149.274344 C91.1365824,149.609391 91.0426149,150.180317 90.37869,150.549541" id="Fill-163" fill="#488B55"></path>
          <polygon id="Fill-165" fill="#DF8208" points="74.3263624 147.417128 74.3263624 156.94581 78.2813858 159.360057 78.2813858 149.779829"></polygon>
          <polygon id="Fill-167" fill="#EF8F04" points="85.2643989 140.719484 74.3261387 147.417072 78.2817214 149.792099 89.167964 143.113561"></polygon>
          <polygon id="Fill-169" fill="#42814B" points="45.5798693 162.023516 64.8672507 150.250912 76.3044334 156.602807 76.3044334 163.881965 57.0164928 175.655129 45.5798693 169.303234"></polygon>
          <polygon id="Fill-171" fill="#4A9358" points="57.0166046 168.375355 76.303986 156.602751 64.8673625 150.250856 45.5799812 162.02346"></polygon>
          <polyline id="Stroke-173" stroke="#4A9358" stroke-width="0.5" stroke-linecap="round" stroke-linejoin="round" points="45.7868774 164.8731 57.0165487 171.017691 76.0969779 159.452391"></polyline>
          <polyline id="Stroke-175" stroke="#4A9358" stroke-width="0.5" stroke-linecap="round" stroke-linejoin="round" points="45.7868774 167.152768 57.0165487 173.297359 76.0969779 161.732058"></polyline>
          <path d="M47.9613852,161.485703 L63.9179556,151.746355 C64.7496795,151.963744 65.6703369,151.950858 66.3739742,151.699852 L73.7923699,155.820152 C73.4931283,156.221872 73.5445867,156.708195 73.9226938,157.140732 L57.8268503,166.965242 C57.0667206,166.765782 56.2305221,166.759059 55.5554106,166.951235 L48.0917091,162.806283 C48.3909508,162.404562 48.3389331,161.918239 47.9613852,161.485703" id="Fill-177" fill="#C4DA93"></path>
          <path d="M67.2489903,155.463757 C67.9129152,155.832982 68.8973362,155.860436 69.4465984,155.525388 C69.9953013,155.190341 69.9013338,154.619415 69.2368496,154.250191 C68.5723654,153.880966 67.5879444,153.853513 67.0392415,154.18856 C66.4905386,154.523608 66.5845061,155.094533 67.2489903,155.463757" id="Fill-179" fill="#488B55"></path>
          <path d="M58.41493,160.855668 C60.1046664,161.794137 62.6054314,161.864172 64.0015195,161.012547 C65.3970482,160.160361 65.1587735,158.709236 63.4690372,157.770766 C61.7793008,156.832297 59.2779764,156.762262 57.8824477,157.613888 C56.486919,158.465514 56.7251936,159.917199 58.41493,160.855668" id="Fill-181" fill="#488B55"></path>
          <path d="M52.6473972,164.3763 C53.3113221,164.745524 54.2957432,164.772978 54.8450054,164.437931 C55.3937082,164.102883 55.2997408,163.531958 54.6352566,163.162733 C53.9707723,162.793509 52.9863513,162.765495 52.4376484,163.101103 C51.8889456,163.43615 51.982913,164.007075 52.6473972,164.3763" id="Fill-183" fill="#488B55"></path>
          <polygon id="Fill-185" fill="#DF8208" points="68.6991656 161.24383 68.6991656 168.709001 64.7441421 171.123248 64.7441421 163.606531"></polygon>
          <polygon id="Fill-187" fill="#EF8F04" points="57.761129 154.546187 68.6993893 161.243774 64.7438065 163.618801 53.8575639 156.940263"></polygon>
          <polygon id="Fill-189" fill="#42814B" points="100.527456 173.788052 81.2406338 162.015448 69.8034511 168.367343 69.8034511 171.113275 89.0913917 182.885879 100.527456 176.533984"></polygon>
          <polygon id="Fill-191" fill="#4A9358" points="89.0912239 180.139891 69.8038426 168.367287 81.240466 162.015392 100.527288 173.787996"></polygon>
          <path d="M98.1464993,173.250183 L82.1899289,163.510835 C81.358205,163.728224 80.4375476,163.715338 79.7339103,163.464332 L72.3155146,167.584631 C72.6141969,167.986352 72.5627385,168.472675 72.1851907,168.905212 L88.2804749,178.729722 C89.0411639,178.530262 89.8768031,178.523539 90.5524739,178.715715 L98.015616,174.570763 C97.7169337,174.169042 97.7683921,173.682719 98.1464993,173.250183" id="Fill-193" fill="#C4DA93"></path>
          <path d="M78.8588942,167.228293 C78.19441,167.597518 77.2105483,167.624972 76.6612861,167.289924 C76.1125832,166.954877 76.2065507,166.383951 76.8704756,166.014727 C77.5355191,165.645502 78.5193808,165.618049 79.068643,165.953096 C79.6173459,166.288144 79.5233784,166.859069 78.8588942,167.228293" id="Fill-195" fill="#488B55"></path>
          <path d="M87.6928986,172.620148 C86.0031622,173.558617 83.5018378,173.628652 82.1063091,172.777027 C80.7107804,171.924841 80.949055,170.473715 82.6387914,169.535246 C84.3279684,168.596777 86.8292928,168.526742 88.2248215,169.378368 C89.6203502,170.229994 89.3826349,171.681679 87.6928986,172.620148" id="Fill-197" fill="#488B55"></path>
          <path d="M93.4604873,176.14078 C92.7960031,176.510004 91.8121413,176.537458 91.2628791,176.202411 C90.7141763,175.867363 90.8081437,175.296438 91.4720686,174.927213 C92.1371122,174.557989 93.1209739,174.530535 93.6702361,174.865583 C94.2189389,175.20063 94.1249715,175.771555 93.4604873,176.14078" id="Fill-199" fill="#488B55"></path>
          <polygon id="Fill-201" fill="#DF8208" points="77.408663 173.008366 77.408663 175.939751 81.3636865 178.354558 81.3636865 175.371067"></polygon>
          <polygon id="Fill-203" fill="#EF8F04" points="88.3467555 166.310723 77.4084952 173.00831 81.364078 175.383337 92.2503206 168.704799"></polygon>
          <path d="M67.7837099,180.299683 C65.542474,179.769097 63.975231,178.279313 64.2839812,176.972179 C64.5927314,175.664486 66.6594563,175.034731 68.9006922,175.565316 C71.1419281,176.095901 72.7091711,177.585686 72.4004209,178.892819 C72.09223,180.200513 70.0255051,180.830268 67.7837099,180.299683 Z" id="Stroke-205" stroke="#F7BE02" stroke-width="0.5"></path>
          <path d="M67.584868,181.143352 C69.8261039,181.673937 71.8928288,181.044183 72.201579,179.736489 C72.2351389,179.592497 72.3665814,179.036699 72.4001412,178.892707 C72.7088915,177.585574 71.1416484,176.095789 68.9009719,175.565204 C66.659736,175.034619 64.5924518,175.664374 64.2842609,176.972067 C64.2501417,177.116059 64.1192585,177.671857 64.0851393,177.815849 C63.7763891,179.122982 65.3436322,180.612767 67.584868,181.143352" id="Fill-207" fill="#F7CC00"></path>
          <path d="M65.2639835,177.203911 C65.4977835,176.212216 67.0661453,175.734297 68.7659496,176.137138 C70.4657539,176.538859 71.6543304,177.669504 71.4205304,178.6612 C71.1867304,179.652895 69.618928,180.130814 67.9185644,179.727973 C66.2187601,179.325692 65.0301835,178.195607 65.2639835,177.203911 M67.7837658,180.299458 C70.0255611,180.830044 72.0922859,180.200289 72.4004768,178.893156 C72.7092271,177.585462 71.141984,176.095677 68.9007481,175.565092 C66.6595122,175.034507 64.5927874,175.664262 64.2840371,176.971955 C63.9752869,178.279089 65.54253,179.769434 67.7837658,180.299458" id="Fill-209" fill="#FEE10A"></path>
          <path d="M68.2671389,176.335309 C69.9669433,176.73759 71.1555198,177.867675 70.9217198,178.859371 C70.835583,179.226354 70.5659858,179.522182 70.1755734,179.730606 C70.832227,179.540671 71.3009456,179.168085 71.4206423,178.661032 C71.6544423,177.669336 70.4658657,176.539251 68.7660614,176.13697 C67.6949442,175.883163 66.6758447,175.979531 66.0102418,176.333068 C66.6378102,176.152098 67.4365337,176.138651 68.2671389,176.335309" id="Fill-211" fill="#DCB204"></path>
          <path d="M66.9201601,178.904137 C64.6789242,178.373552 63.1116811,176.883767 63.4204314,175.576634 C63.7291816,174.26894 65.7959065,173.639186 68.0371424,174.16921 C70.2783783,174.699796 71.8456213,176.190141 71.5368711,177.497274 C71.2286802,178.804967 69.1619553,179.434722 66.9201601,178.904137 Z" id="Stroke-213" stroke="#F7BE02" stroke-width="0.5"></path>
          <path d="M66.7213182,179.747863 C68.9625541,180.278448 71.029279,179.648133 71.3380292,178.341 C71.371589,178.197008 71.5030316,177.64121 71.5365914,177.497218 C71.8453417,176.190085 70.2780986,174.69974 68.0374221,174.169154 C65.7961862,173.63913 63.728902,174.268884 63.4207111,175.576578 C63.3865919,175.72057 63.2557087,176.275807 63.2215895,176.419799 C62.9128393,177.727493 64.4800823,179.217278 66.7213182,179.747863" id="Fill-215" fill="#F7CC00"></path>
          <path d="M64.4004337,175.808366 C64.6342337,174.81667 66.2025955,174.338751 67.9023998,174.741032 C69.6022041,175.143313 70.7907806,176.273958 70.5569806,177.265654 C70.3231806,178.25735 68.7553782,178.734708 67.0550146,178.332427 C65.3552103,177.930146 64.1666337,176.800061 64.4004337,175.808366 M66.920216,178.903913 C69.1620112,179.434498 71.2287361,178.804743 71.536927,177.49761 C71.8456773,176.189916 70.2784342,174.699572 68.0371983,174.169547 C65.7959624,173.638961 63.7292376,174.268716 63.4204873,175.57641 C63.1117371,176.883543 64.6789801,178.373888 66.920216,178.903913" id="Fill-217" fill="#FEE10A"></path>
          <path d="M67.4035332,174.93954 C69.1033375,175.341821 70.2919141,176.471905 70.0581141,177.463601 C69.9719772,177.830584 69.7023801,178.126973 69.3119677,178.334836 C69.9686212,178.145462 70.4373399,177.772876 70.5570366,177.265262 C70.7908366,176.273566 69.60226,175.143481 67.9024557,174.7412 C66.8313385,174.487394 65.8122389,174.583762 65.1466361,174.937859 C65.7742045,174.756328 66.5729279,174.742881 67.4035332,174.93954" id="Fill-219" fill="#DCB204"></path>
          <path d="M68.240347,177.939559 C65.9991111,177.408974 64.4318681,175.919189 64.7406183,174.612056 C65.0488092,173.304362 67.1155341,172.674607 69.3573293,173.205193 C71.5985652,173.735778 73.1658083,175.225562 72.857058,176.532696 C72.5483078,177.840389 70.4815829,178.470144 68.240347,177.939559 Z" id="Stroke-221" stroke="#F7BE02" stroke-width="0.5"></path>
          <path d="M68.0415611,178.783229 C70.282797,179.313814 72.3495219,178.684059 72.6582721,177.376365 C72.6918319,177.232373 72.8232745,176.676576 72.8568343,176.532584 C73.1655845,175.22545 71.5983415,173.735666 69.3576649,173.205081 C67.1158697,172.674495 65.0485855,173.30425 64.7409539,174.611944 C64.7068348,174.755936 64.5759515,175.311734 64.5412731,175.455726 C64.2330822,176.762859 65.8003252,178.252643 68.0415611,178.783229" id="Fill-223" fill="#F7CC00"></path>
          <path d="M65.7206207,174.843788 C65.9544207,173.852092 67.5222231,173.374173 69.2225867,173.777014 C70.922391,174.178735 72.1109676,175.30938 71.8771676,176.301076 C71.6433676,177.292772 70.0750058,177.770691 68.3752015,177.367849 C66.6753972,176.965568 65.4868207,175.835483 65.7206207,174.843788 M68.240403,177.939335 C70.4816389,178.47048 72.5483637,177.840165 72.857114,176.533032 C73.1658642,175.225338 71.5986211,173.735554 69.3573853,173.204969 C67.11559,172.674383 65.0488652,173.304138 64.7406743,174.611832 C64.431924,175.918965 65.9991671,177.40931 68.240403,177.939335" id="Fill-225" fill="#FEE10A"></path>
          <path d="M68.7237761,173.975186 C70.4235804,174.377467 71.6121569,175.507551 71.3783569,176.499247 C71.2916608,176.86623 71.022623,177.162619 70.6316512,177.370483 C71.2888641,177.181108 71.7575828,176.807961 71.8772794,176.300908 C72.1110794,175.309212 70.9225029,174.179127 69.2226986,173.776846 C68.1515813,173.52304 67.1324818,173.619408 66.4668789,173.972944 C67.0944474,173.791974 67.8931708,173.778527 68.7237761,173.975186" id="Fill-227" fill="#DCB204"></path>
          <path d="M68.240347,176.544013 C65.9991111,176.013428 64.4318681,174.523644 64.7406183,173.21651 C65.0488092,171.908817 67.1155341,171.279062 69.3573293,171.809087 C71.5985652,172.340232 73.1658083,173.830017 72.857058,175.13715 C72.5483078,176.444844 70.4815829,177.074599 68.240347,176.544013 Z" id="Stroke-229" stroke="#F7BE02" stroke-width="0.5"></path>
          <path d="M68.0415611,177.387739 C70.282797,177.918324 72.3495219,177.28857 72.6582721,175.980876 C72.6918319,175.836884 72.8232745,175.281086 72.8568343,175.137094 C73.1655845,173.829961 71.5983415,172.340176 69.3576649,171.809031 C67.1158697,171.279006 65.0485855,171.908761 64.7409539,173.216454 C64.7068348,173.360446 64.5759515,173.915684 64.5412731,174.060236 C64.2330822,175.367369 65.8003252,176.857154 68.0415611,177.387739" id="Fill-231" fill="#F7CC00"></path>
          <path d="M65.7206207,173.448242 C65.9544207,172.456546 67.5222231,171.978628 69.2225867,172.380909 C70.922391,172.78319 72.1109676,173.913835 71.8771676,174.905531 C71.6433676,175.897226 70.0750058,176.374585 68.3752015,175.972304 C66.6753972,175.570023 65.4868207,174.439938 65.7206207,173.448242 M68.240403,176.543789 C70.4816389,177.074375 72.5483637,176.44462 72.857114,175.137486 C73.1658642,173.829793 71.5986211,172.340008 69.3573853,171.809423 C67.11559,171.278838 65.0488652,171.908593 64.7406743,173.216286 C64.431924,174.52342 65.9991671,176.013764 68.240403,176.543789" id="Fill-233" fill="#FEE10A"></path>
          <path d="M68.7237761,172.579416 C70.4235804,172.981697 71.6121569,174.111782 71.3783569,175.103477 C71.2916608,175.470461 71.022623,175.766849 70.6316512,175.974713 C71.2888641,175.785338 71.7575828,175.412752 71.8772794,174.905138 C72.1110794,173.913443 70.9225029,172.783358 69.2226986,172.381077 C68.1515813,172.12727 67.1324818,172.223638 66.4668789,172.577735 C67.0944474,172.396204 67.8931708,172.382758 68.7237761,172.579416" id="Fill-235" fill="#DCB204"></path>
          <path d="M68.3397959,175.579659 C66.09856,175.049074 64.531317,173.55929 64.8400672,172.251596 C65.1488175,170.944463 67.2155423,170.314708 69.4567782,170.844733 C71.6980141,171.375318 73.2652572,172.865103 72.9565069,174.172796 C72.648316,175.47993 70.5810318,176.110245 68.3397959,175.579659 Z" id="Stroke-237" stroke="#F7BE02" stroke-width="0.5"></path>
          <path d="M68.1409541,176.423105 C70.38219,176.95369 72.4489148,176.323935 72.7576651,175.016242 C72.7912249,174.87225 72.9226675,174.317012 72.9562273,174.17246 C73.2649775,172.865327 71.6977344,171.375542 69.4570579,170.844957 C67.215822,170.314372 65.1485378,170.944127 64.8403469,172.25182 C64.8062278,172.395812 64.6753445,172.95161 64.6412254,173.095602 C64.3324751,174.402735 65.8997182,175.89252 68.1409541,176.423105" id="Fill-239" fill="#F7CC00"></path>
          <path d="M65.8200696,172.483664 C66.0538696,171.491968 67.6222313,171.01405 69.3220356,171.416891 C71.0218399,171.818612 72.2104165,172.949257 71.9766165,173.940952 C71.7428165,174.932648 70.1744547,175.410567 68.4746504,175.007726 C66.7748461,174.605445 65.5862696,173.47536 65.8200696,172.483664 M68.3398519,175.579771 C70.5810878,176.110357 72.648372,175.480042 72.9565629,174.172908 C73.2653131,172.865215 71.69807,171.37543 69.4568342,170.844845 C67.2155983,170.31426 65.1488734,170.944015 64.8401232,172.251708 C64.5313729,173.558841 66.098616,175.049186 68.3398519,175.579771" id="Fill-241" fill="#FEE10A"></path>
          <path d="M68.823169,171.615062 C70.5229733,172.017343 71.7115499,173.147428 71.4777499,174.139123 C71.3916131,174.506107 71.1220159,174.802495 70.7316035,175.010359 C71.3882571,174.820984 71.8569757,174.447838 71.9766724,173.940784 C72.2104724,172.949089 71.0218958,171.819004 69.3220915,171.416723 C68.2509743,171.162916 67.2318748,171.259284 66.5662719,171.612821 C67.1938403,171.43185 67.9925638,171.418404 68.823169,171.615062" id="Fill-243" fill="#DCB204"></path>
          <path d="M68.4391889,174.540676 C66.197953,174.010091 64.6312693,172.520306 64.9394602,171.213173 C65.2482104,169.905479 67.3149353,169.275725 69.5561712,169.80575 C71.7974071,170.336335 73.3646501,171.826119 73.0558999,173.133813 C72.747709,174.441507 70.6809841,175.071261 68.4391889,174.540676 Z" id="Stroke-245" stroke="#F7BE02" stroke-width="0.5"></path>
          <path d="M68.240347,175.384346 C70.4815829,175.914931 72.5483078,175.284616 72.857058,173.977483 C72.8906178,173.833491 73.0220604,173.277693 73.0556202,173.133701 C73.3643705,171.826007 71.7971274,170.336223 69.5564509,169.805638 C67.315215,169.275613 65.2479308,169.905367 64.9397399,171.213061 C64.9056207,171.357053 64.7747375,171.91229 64.7406183,172.056282 C64.4318681,173.363976 65.9991111,174.853761 68.240347,175.384346" id="Fill-247" fill="#F7CC00"></path>
          <path d="M65.9194625,171.444905 C66.1538219,170.453209 67.7216243,169.97529 69.4214286,170.377571 C71.1212329,170.779852 72.3098094,171.910498 72.0760094,172.902193 C71.8422094,173.893889 70.274407,174.371247 68.5740434,173.968966 C66.8742391,173.566685 65.6856625,172.436601 65.9194625,171.444905 M68.4392448,174.540452 C70.68104,175.071037 72.7477649,174.441282 73.0559558,173.134149 C73.3647061,171.826456 71.797463,170.336111 69.5562271,169.806086 C67.3149912,169.275501 65.2482664,169.905255 64.9395161,171.212949 C64.6313252,172.520082 66.1980089,174.010427 68.4392448,174.540452" id="Fill-249" fill="#FEE10A"></path>
          <path d="M68.922562,170.576023 C70.6223663,170.978304 71.8109429,172.108388 71.5771429,173.100084 C71.491006,173.467068 71.2214089,173.763456 70.8309965,173.97132 C71.48765,173.781945 71.9563687,173.409359 72.0760654,172.901745 C72.3098654,171.910049 71.1212888,170.779965 69.4214845,170.377683 C68.3503673,170.123877 67.3312678,170.220245 66.6662242,170.573781 C67.2932333,170.392811 68.0925161,170.379364 68.922562,170.576023" id="Fill-251" fill="#DCB204"></path>
          <path d="M68.8270284,173.566741 C66.5857925,173.036156 65.0191088,171.546372 65.3272997,170.239238 C65.63605,168.931545 67.7027748,168.30179 69.9440107,168.832375 C72.1852466,169.36296 73.7524897,170.852745 73.4437394,172.159878 C73.1355485,173.467572 71.0688236,174.097327 68.8270284,173.566741 Z" id="Stroke-253" stroke="#F7BE02" stroke-width="0.5"></path>
          <path d="M68.6281866,174.410411 C70.8694224,174.940996 72.9361473,174.311241 73.2448976,173.003548 C73.2784574,172.859556 73.4099,172.303758 73.4434598,172.159766 C73.75221,170.852633 72.1849669,169.362848 69.9442904,168.832263 C67.7030545,168.301678 65.6357703,168.931433 65.3275794,170.239126 C65.2934602,170.383118 65.162577,170.938916 65.1284578,171.082908 C64.8197076,172.390041 66.3869507,173.879826 68.6281866,174.410411" id="Fill-255" fill="#F7CC00"></path>
          <path d="M66.3073021,170.47097 C66.5416614,169.479274 68.1094638,169.001356 69.8092681,169.403637 C71.5090724,169.805918 72.6976489,170.936563 72.4638489,171.928258 C72.2300489,172.919954 70.6622466,173.397313 68.9618829,172.995032 C67.2620786,172.592751 66.0735021,171.462666 66.3073021,170.47097 M68.8270844,173.566517 C71.0688796,174.097102 73.1356044,173.467348 73.4437954,172.160214 C73.7525456,170.852521 72.1853025,169.362736 69.9440667,168.832151 C67.7028308,168.301566 65.6361059,168.931321 65.3273556,170.239014 C65.0191647,171.546147 66.5858485,173.036492 68.8270844,173.566517" id="Fill-257" fill="#FEE10A"></path>
          <path d="M69.3104015,169.602368 C71.0102058,170.004649 72.1987824,171.134734 71.9649824,172.12643 C71.8788456,172.493413 71.6092484,172.789241 71.218836,172.997105 C71.8754896,172.80773 72.3442082,172.435144 72.4639049,171.92809 C72.6977049,170.936395 71.5091283,169.80631 69.809324,169.404029 C68.7382068,169.150222 67.7191073,169.24659 67.0540637,169.600127 C67.6810728,169.419156 68.4803556,169.40571 69.3104015,169.602368" id="Fill-259" fill="#DCB204"></path>
          <path d="M68.7275795,172.180553 C66.4863436,171.649967 64.9191006,170.160183 65.2278508,168.853049 C65.5366011,167.545356 67.6033259,166.915601 69.8445618,167.445626 C72.0857977,167.976211 73.6530408,169.466556 73.3442905,170.773689 C73.0360996,172.081383 70.9688154,172.711138 68.7275795,172.180553 Z" id="Stroke-261" stroke="#F7BE02" stroke-width="0.5"></path>
          <path d="M68.5287377,173.024222 C70.7699735,173.554807 72.8366984,172.924492 73.1454487,171.617359 C73.1790085,171.473367 73.3104511,170.917569 73.3440109,170.773577 C73.6527611,169.466444 72.085518,167.976099 69.8448415,167.445514 C67.6036056,166.915489 65.5363214,167.545244 65.2281305,168.852937 C65.1940113,168.996929 65.0631281,169.552167 65.0290089,169.696719 C64.7202587,171.003852 66.2875018,172.493637 68.5287377,173.024222" id="Fill-263" fill="#F7CC00"></path>
          <path d="M66.2078532,169.084781 C66.4416532,168.093086 68.0100149,167.615167 69.7098192,168.017448 C71.4096235,168.419729 72.5982,169.550374 72.3644,170.54207 C72.1306,171.533765 70.5622383,172.011124 68.862434,171.608843 C67.1626297,171.206562 65.9740532,170.076477 66.2078532,169.084781 M68.7276355,172.180328 C70.9688713,172.710914 73.0361556,172.081159 73.3443465,170.774026 C73.6530967,169.466332 72.0858536,167.975987 69.8446178,167.445962 C67.6033819,166.915377 65.536657,167.545132 65.2279067,168.852825 C64.9191565,170.159959 66.4863996,171.650304 68.7276355,172.180328" id="Fill-265" fill="#FEE10A"></path>
          <path d="M69.2110086,168.215899 C70.9108129,168.61818 72.0993894,169.748265 71.8655894,170.739961 C71.7794526,171.106944 71.5098555,171.403332 71.119443,171.611196 C71.7760966,171.421821 72.2448153,171.049235 72.3645119,170.541621 C72.5983119,169.549926 71.4097354,168.419841 69.7099311,168.01756 C68.6388138,167.763753 67.6197143,167.860121 66.9541114,168.214218 C67.5816799,168.032687 68.3804033,168.019241 69.2110086,168.215899" id="Fill-267" fill="#DCB204"></path>
          <path d="M76.9492852,182.292935 C74.7080493,181.76235 73.1413656,180.272565 73.4495565,178.965432 C73.7583067,177.657738 75.8250316,177.027983 78.0662675,177.558008 C80.3075033,178.088593 81.8747464,179.578378 81.5659962,180.886072 C81.2578053,182.193205 79.1910804,182.82352 76.9492852,182.292935 Z" id="Stroke-269" stroke="#F7BE02" stroke-width="0.5"></path>
          <path d="M76.7504992,183.13638 C78.9917351,183.666966 81.05846,183.037211 81.3672102,181.729517 C81.40077,181.585525 81.5322126,181.030288 81.5657724,180.885735 C81.8745227,179.578602 80.3072796,178.088818 78.0666031,177.558232 C75.8253672,177.027647 73.758083,177.657402 73.4498921,178.965095 C73.4157729,179.109087 73.2848897,179.664885 73.2507705,179.808877 C72.9420203,181.116011 74.5092633,182.605795 76.7504992,183.13638" id="Fill-271" fill="#F7CC00"></path>
          <path d="M74.4296147,179.196883 C74.6639741,178.205188 76.2317765,177.727269 77.9315808,178.13011 C79.6313851,178.532391 80.8199616,179.662476 80.5861616,180.654172 C80.3523616,181.645867 78.7845592,182.123786 77.0841956,181.720945 C75.3843913,181.318664 74.1958147,180.188579 74.4296147,179.196883 M76.949397,182.292991 C79.1911922,182.823576 81.2579171,182.193261 81.566108,180.886128 C81.8748583,179.578434 80.3076152,178.088649 78.0663793,177.558064 C75.8251434,177.027479 73.7584186,177.657234 73.4496683,178.964927 C73.1414774,180.272621 74.7081611,181.762406 76.949397,182.292991" id="Fill-273" fill="#FEE10A"></path>
          <path d="M77.4327142,178.328281 C79.1325185,178.730562 80.3210951,179.860647 80.0872951,180.852343 C80.0011582,181.219326 79.7315611,181.515714 79.3411487,181.723578 C79.9978022,181.534204 80.4665209,181.161617 80.5862176,180.654004 C80.8200176,179.662308 79.631441,178.532223 77.9316367,178.129942 C76.8605195,177.876135 75.84142,177.972503 75.1763764,178.32604 C75.8033855,178.14507 76.6026683,178.131623 77.4327142,178.328281" id="Fill-275" fill="#DCB204"></path>
          <path d="M94.2252034,166.617644 C91.9839676,166.087059 90.4167245,164.597274 90.7254747,163.290141 C91.0336656,161.982447 93.1003905,161.352693 95.3416264,161.882718 C97.5834216,162.413303 99.1501054,163.903087 98.8419144,165.210781 C98.5331642,166.518475 96.4664393,167.148229 94.2252034,166.617644 Z" id="Stroke-277" stroke="#F7BE02" stroke-width="0.5"></path>
          <path d="M94.0263616,167.46137 C96.2675975,167.991955 98.3343223,167.36164 98.6425133,166.054507 C98.6766324,165.910515 98.808075,165.354717 98.8416348,165.210725 C99.1498257,163.903031 97.583142,162.413247 95.3419061,161.882662 C93.1006702,161.352637 91.033386,161.982391 90.7257544,163.290085 C90.6910759,163.434077 90.5601927,163.989315 90.5260735,164.133307 C90.2178826,165.441 91.7845664,166.930785 94.0263616,167.46137" id="Fill-279" fill="#F7CC00"></path>
          <path d="M91.7054771,163.521929 C91.9392771,162.530233 93.5070795,162.052314 95.2074431,162.454595 C96.9072474,162.856877 98.095824,163.987522 97.862024,164.979217 C97.6276646,165.970913 96.0598622,166.448272 94.3600579,166.04599 C92.6596943,165.643709 91.4711178,164.513625 91.7054771,163.521929 M94.2252594,166.617476 C96.4664953,167.148061 98.5332201,166.518307 98.8419704,165.211173 C99.1501613,163.90348 97.5834776,162.413135 95.3416823,161.88311 C93.1004465,161.352525 91.0337216,161.982279 90.7255307,163.289973 C90.4167804,164.597106 91.9840235,166.087451 94.2252594,166.617476" id="Fill-281" fill="#FEE10A"></path>
          <path d="M94.7085766,162.653047 C96.4083809,163.055328 97.5969574,164.185413 97.3631574,165.177108 C97.2764612,165.544092 97.0068641,165.84048 96.6164517,166.048344 C97.2736646,165.858969 97.7423833,165.486383 97.8620799,164.978769 C98.0958799,163.987073 96.9073033,162.856989 95.207499,162.454708 C94.1358225,162.200901 93.116723,162.297269 92.4516794,162.650806 C93.0786885,162.469835 93.8779713,162.456388 94.7085766,162.653047" id="Fill-283" fill="#DCB204"></path>
          <path d="M93.7767325,165.56443 C91.5354967,165.033845 89.9682536,163.54406 90.2770038,162.236927 C90.5857541,160.929233 92.6524789,160.299478 94.8937148,160.830064 C97.1349507,161.360649 98.7021938,162.850433 98.3934435,164.157567 C98.0846933,165.46526 96.0179684,166.095015 93.7767325,165.56443 Z" id="Stroke-285" stroke="#F7BE02" stroke-width="0.5"></path>
          <path d="M93.5778907,166.408099 C95.8191266,166.938685 97.8858514,166.30893 98.1946017,165.001236 C98.2281615,164.857244 98.3596041,164.301447 98.3931639,164.157455 C98.7019141,162.850321 97.1346711,161.360537 94.8939945,160.829951 C92.6527586,160.299366 90.5854744,160.929121 90.2772835,162.236815 C90.2431644,162.380807 90.1122811,162.936604 90.078162,163.080596 C89.7694117,164.38773 91.3366548,165.877514 93.5778907,166.408099" id="Fill-287" fill="#F7CC00"></path>
          <path d="M91.2570062,162.468659 C91.4908062,161.476963 93.0591679,160.999044 94.7589722,161.401325 C96.4587765,161.803606 97.6473531,162.934251 97.4135531,163.925947 C97.1797531,164.917643 95.6113913,165.395001 93.911587,164.99272 C92.2117827,164.590439 91.0232062,163.460354 91.2570062,162.468659 M93.7767885,165.564206 C96.0180244,166.094791 98.0847492,165.465036 98.3934995,164.157903 C98.7022497,162.850209 97.1350067,161.360425 94.8937708,160.829839 C92.6525349,160.299254 90.58581,160.929009 90.2770598,162.236703 C89.9683095,163.543836 91.5355526,165.034181 93.7767885,165.564206" id="Fill-289" fill="#FEE10A"></path>
          <path d="M94.2601616,161.600056 C95.9599659,162.002337 97.1485424,163.132422 96.9147424,164.124118 C96.8280463,164.491101 96.5590085,164.786929 96.168596,164.994793 C96.8252496,164.805418 97.2939683,164.432832 97.4136649,163.925779 C97.6474649,162.934083 96.4588884,161.803998 94.7590841,161.401717 C93.6879668,161.14791 92.6688673,161.244279 92.0032644,161.597815 C92.6308329,161.416845 93.4295563,161.403398 94.2601616,161.600056" id="Fill-291" fill="#DCB204"></path>
          <path d="M93.7767325,164.342907 C91.5354967,163.812322 89.9682536,162.322537 90.2770038,161.015404 C90.5857541,159.707711 92.6524789,159.077956 94.8937148,159.608541 C97.1349507,160.139126 98.7021938,161.628911 98.3934435,162.936044 C98.0846933,164.243738 96.0179684,164.873492 93.7767325,164.342907 Z" id="Stroke-293" stroke="#F7BE02" stroke-width="0.5"></path>
          <path d="M93.5778907,165.186577 C95.8191266,165.717162 97.8858514,165.087407 98.1946017,163.779714 C98.2281615,163.635722 98.3596041,163.079924 98.3931639,162.935932 C98.7019141,161.628799 97.1346711,160.139014 94.8939945,159.608429 C92.6527586,159.077844 90.5854744,159.707599 90.2772835,161.015292 C90.2431644,161.159284 90.1122811,161.714522 90.078162,161.859074 C89.7694117,163.166207 91.3366548,164.655992 93.5778907,165.186577" id="Fill-295" fill="#F7CC00"></path>
          <path d="M91.2570062,161.247136 C91.4908062,160.25544 93.0591679,159.777521 94.7589722,160.179803 C96.4587765,160.582084 97.6473531,161.712729 97.4135531,162.704424 C97.1797531,163.69612 95.6113913,164.173479 93.911587,163.771198 C92.2117827,163.368916 91.0232062,162.238832 91.2570062,161.247136 M93.7767885,164.342683 C96.0180244,164.873268 98.0847492,164.243514 98.3934995,162.93638 C98.7022497,161.628687 97.1350067,160.138902 94.8937708,159.608317 C92.6525349,159.077732 90.58581,159.707486 90.2770598,161.01518 C89.9683095,162.322313 91.5355526,163.812658 93.7767885,164.342683" id="Fill-297" fill="#FEE10A"></path>
          <path d="M94.2601616,160.378534 C95.9599659,160.780815 97.1485424,161.9109 96.9147424,162.902595 C96.8280463,163.269579 96.5590085,163.565407 96.168596,163.773271 C96.8252496,163.583896 97.2939683,163.21131 97.4136649,162.704256 C97.6474649,161.712561 96.4588884,160.582476 94.7590841,160.180195 C93.6879668,159.926388 92.6688673,160.022756 92.0032644,160.376293 C92.6308329,160.195322 93.4295563,160.181876 94.2601616,160.378534" id="Fill-299" fill="#DCB204"></path>
          <path d="M93.7767325,162.741683 C91.5354967,162.211098 89.9682536,160.721313 90.2770038,159.41418 C90.5857541,158.106486 92.6524789,157.476732 94.8937148,158.006756 C97.1349507,158.537342 98.7021938,160.027687 98.3934435,161.33482 C98.0846933,162.642513 96.0179684,163.272268 93.7767325,162.741683 Z" id="Stroke-301" stroke="#F7BE02" stroke-width="0.5"></path>
          <path d="M93.5778907,163.585353 C95.8191266,164.115938 97.8858514,163.485623 98.1946017,162.178489 C98.2281615,162.034498 98.3596041,161.4787 98.3931639,161.334708 C98.7019141,160.027574 97.1346711,158.53723 94.8939945,158.006644 C92.6527586,157.476619 90.5854744,158.106374 90.2772835,159.414068 C90.2431644,159.55806 90.1122811,160.113297 90.078162,160.25785 C89.7694117,161.564983 91.3366548,163.054767 93.5778907,163.585353" id="Fill-303" fill="#F7CC00"></path>
          <path d="M91.2570062,159.645912 C91.4908062,158.654216 93.0591679,158.176297 94.7589722,158.578578 C96.4587765,158.980859 97.6473531,160.111504 97.4135531,161.1032 C97.1797531,162.094896 95.6113913,162.572254 93.911587,162.169973 C92.2117827,161.767692 91.0232062,160.637607 91.2570062,159.645912 M93.7767885,162.741459 C96.0180244,163.272044 98.0847492,162.642289 98.3934995,161.335156 C98.7022497,160.027462 97.1350067,158.537118 94.8937708,158.007093 C92.6525349,157.476507 90.58581,158.106262 90.2770598,159.413956 C89.9683095,160.721089 91.5355526,162.211434 93.7767885,162.741459" id="Fill-305" fill="#FEE10A"></path>
          <path d="M94.2601616,158.777029 C95.9599659,159.17931 97.1485424,160.309395 96.9147424,161.301091 C96.8280463,161.668074 96.5590085,161.964463 96.168596,162.172326 C96.8252496,161.982952 97.2939683,161.610366 97.4136649,161.102752 C97.6474649,160.111056 96.4588884,158.980971 94.7590841,158.57869 C93.6879668,158.324883 92.6688673,158.421252 92.0032644,158.775349 C92.6308329,158.593818 93.4295563,158.580371 94.2601616,158.777029" id="Fill-307" fill="#DCB204"></path>
          <path d="M93.7767325,160.682486 C91.5354967,160.151901 89.9682536,158.662116 90.2770038,157.354983 C90.5857541,156.047289 92.6524789,155.417534 94.8937148,155.947559 C97.1349507,156.478144 98.7021938,157.967929 98.3934435,159.275623 C98.0846933,160.583316 96.0179684,161.213071 93.7767325,160.682486 Z" id="Stroke-309" stroke="#F7BE02" stroke-width="0.5"></path>
          <path d="M93.5778907,161.526155 C95.8191266,162.056741 97.8858514,161.426426 98.1946017,160.119292 C98.2281615,159.9753 98.3596041,159.419503 98.3931639,159.275511 C98.7019141,157.967817 97.1346711,156.478032 94.8939945,155.947447 C92.6527586,155.417422 90.5854744,156.047177 90.2772835,157.354871 C90.2431644,157.498863 90.1122811,158.0541 90.078162,158.198092 C89.7694117,159.505786 91.3366548,160.99557 93.5778907,161.526155" id="Fill-311" fill="#F7CC00"></path>
          <path d="M91.2570062,157.586434 C91.4908062,156.594739 93.0591679,156.11682 94.7589722,156.519661 C96.4587765,156.921942 97.6473531,158.052027 97.4135531,159.043723 C97.1797531,160.035418 95.6113913,160.513337 93.911587,160.110496 C92.2117827,159.708215 91.0232062,158.57813 91.2570062,157.586434 M93.7767885,160.682542 C96.0180244,161.213127 98.0847492,160.583372 98.3934995,159.275679 C98.7022497,157.967985 97.1350067,156.4782 94.8937708,155.947615 C92.6525349,155.41703 90.58581,156.047345 90.2770598,157.354478 C89.9683095,158.662172 91.5355526,160.151957 93.7767885,160.682542" id="Fill-313" fill="#FEE10A"></path>
          <path d="M94.2601616,156.717832 C95.9599659,157.120113 97.1485424,158.250198 96.9147424,159.241894 C96.8280463,159.608877 96.5590085,159.905265 96.168596,160.113129 C96.8252496,159.923755 97.2939683,159.551168 97.4136649,159.043555 C97.6474649,158.051859 96.4588884,156.921774 94.7590841,156.519493 C93.6879668,156.265686 92.6688673,156.362054 92.0032644,156.715591 C92.6308329,156.534621 93.4295563,156.521174 94.2601616,156.717832" id="Fill-315" fill="#DCB204"></path>
          <path d="M57.7583883,182.784805 C55.5171524,182.254219 53.9499093,180.764435 54.2581002,179.457302 C54.5668505,178.149608 56.6335754,177.519853 58.8748112,178.050438 C61.1166065,178.581024 62.6832902,180.070808 62.3750993,181.377941 C62.066349,182.685635 59.9996242,183.31539 57.7583883,182.784805 Z" id="Stroke-317" stroke="#F7BE02" stroke-width="0.5"></path>
          <g id="Group-321" transform="translate(53.695694, 177.653592)">
            <mask id="mask-2" fill="white">
              <use xlink:href="#path-1"></use>
            </mask>
            <g id="Clip-320"></g>
            <path d="M3.8632933,5.9749383 C6.10508852,6.50552349 8.1718134,5.87576873 8.48000431,4.56807514 C8.51356411,4.42408318 8.6450067,3.86828539 8.67912584,3.72429342 C8.98731675,2.41716011 7.42063301,0.927375506 5.17939713,0.396790317 C2.93816124,-0.133794871 0.870877033,0.495959883 0.562686124,1.80365347 C0.528566986,1.94764544 0.397683732,2.50344323 0.363564593,2.6474352 C0.0553736842,3.95456851 1.62205742,5.44435311 3.8632933,5.9749383" id="Fill-319" fill="#F7CC00" mask="url(#mask-2)"></path>
          </g>
          <path d="M55.2386619,179.689033 C55.4724619,178.697338 57.0402643,178.219419 58.7400686,178.62226 C60.4404322,179.023981 61.6290088,180.154626 61.3946495,181.146322 C61.1608495,182.138017 59.5930471,182.615936 57.8932428,182.213095 C56.1928791,181.810814 55.0043026,180.680729 55.2386619,179.689033 M57.7584442,182.78458 C59.9996801,183.315166 62.066405,182.685411 62.3751552,181.378278 C62.6833461,180.070584 61.1166624,178.580799 58.8748672,178.050214 C56.6336313,177.519629 54.5669064,178.149384 54.2581562,179.457077 C53.9499653,180.764211 55.5172083,182.254556 57.7584442,182.78458" id="Fill-322" fill="#FEE10A"></path>
          <path d="M58.241258,178.820431 C59.9416216,179.222712 61.1301982,180.352797 60.8958389,181.344493 C60.809702,181.711476 60.5401049,182.007864 60.1496924,182.215728 C60.806346,182.025793 61.2750647,181.653207 61.3947613,181.146154 C61.6291207,180.154458 60.4405441,179.024373 58.7401805,178.622092 C57.6690633,178.368285 56.6499637,178.464653 55.9849202,178.81819 C56.6119293,178.63722 57.4112121,178.623773 58.241258,178.820431" id="Fill-324" fill="#DCB204"></path>
          <path d="M57.9905103,181.800785 C55.7492744,181.2702 54.1820313,179.780415 54.4902222,178.473282 C54.7989725,177.165588 56.8656974,176.535833 59.1069333,177.066419 C61.3487285,177.597004 62.9154122,179.086788 62.6072213,180.393922 C62.2984711,181.701615 60.2317462,182.33137 57.9905103,181.800785 Z" id="Stroke-326" stroke="#F7BE02" stroke-width="0.5"></path>
          <path d="M57.791165,182.644454 C60.0329602,183.17504 62.0996851,182.545285 62.407876,181.237591 C62.4414358,181.093599 62.5728784,180.537802 62.6069976,180.39381 C62.9151885,179.086676 61.3485047,177.596892 59.1072689,177.066306 C56.866033,176.535721 54.7987488,177.165476 54.4905578,178.47317 C54.4564387,178.617162 54.3255555,179.172399 54.2914363,179.316951 C53.9832454,180.624085 55.5499291,182.113869 57.791165,182.644454" id="Fill-328" fill="#F7CC00"></path>
          <path d="M55.4707839,178.705014 C55.7045839,177.713318 57.2723863,177.235399 58.9721906,177.63768 C60.6725543,178.039961 61.8611308,179.170606 61.6267715,180.162302 C61.3929715,181.153998 59.8251691,181.631356 58.1253648,181.229075 C56.4250011,180.826794 55.2364246,179.696709 55.4707839,178.705014 M57.9905662,181.800561 C60.2318021,182.331146 62.298527,181.701391 62.6072772,180.394258 C62.9154681,179.086564 61.3487844,177.59678 59.1069892,177.066194 C56.8657533,176.535609 54.7990284,177.165364 54.4902782,178.473058 C54.1820873,179.780191 55.7493303,181.270536 57.9905662,181.800561" id="Fill-330" fill="#FEE10A"></path>
          <path d="M58.47338,177.836131 C60.1737436,178.238412 61.3623202,179.368497 61.1279609,180.360193 C61.041824,180.727176 60.7722269,181.023564 60.3818144,181.231428 C61.038468,181.042054 61.5071867,180.669467 61.6268833,180.161854 C61.8612427,179.170158 60.6726661,178.040073 58.9723025,177.637792 C57.9011853,177.383985 56.8820857,177.480353 56.2170422,177.83445 C56.8440513,177.65348 57.6433341,177.639473 58.47338,177.836131" id="Fill-332" fill="#DCB204"></path>
          <path d="M58.2456208,180.675294 C56.0043849,180.144709 54.4371418,178.654924 54.7458921,177.347231 C55.054083,176.040098 57.1208078,175.410343 59.3626031,175.940368 C61.6038389,176.470953 63.1705227,177.960738 62.8623318,179.268431 C62.5535815,180.575564 60.4868567,181.205879 58.2456208,180.675294 Z" id="Stroke-334" stroke="#F7BE02" stroke-width="0.5"></path>
          <path d="M58.0467789,181.518684 C60.2880148,182.049269 62.3547397,181.419514 62.6629306,180.111821 C62.6970497,179.967829 62.8284923,179.412031 62.8620521,179.268039 C63.170243,177.960906 61.6035593,176.471121 59.3628827,175.940536 C57.1210875,175.409951 55.0538033,176.039705 54.7461717,177.347399 C54.7114933,177.491391 54.5811693,178.047189 54.5464909,178.191181 C54.2383,179.498314 55.8049837,180.988099 58.0467789,181.518684" id="Fill-336" fill="#F7CC00"></path>
          <path d="M55.7258944,177.579243 C55.9596944,176.587547 57.5274968,176.109628 59.2278604,176.51247 C60.9276647,176.91419 62.1162413,178.044836 61.8824413,179.036531 C61.648082,180.028227 60.0802796,180.506146 58.3804753,180.103304 C56.6801116,179.701023 55.4920944,178.570938 55.7258944,177.579243 M58.2456767,180.67535 C60.4869126,181.205935 62.5536375,180.57562 62.8623877,179.268487 C63.1705786,177.960794 61.6038949,176.471009 59.362659,175.940424 C57.1208638,175.409839 55.0541389,176.039593 54.745948,177.347287 C54.4371978,178.65442 56.0044408,180.144765 58.2456767,180.67535" id="Fill-338" fill="#FEE10A"></path>
          <path d="M58.7289939,176.710641 C60.4287982,177.112922 61.6173747,178.243007 61.3835747,179.234702 C61.2968786,179.601686 61.0278408,179.898074 60.636869,180.105938 C61.2940819,179.916563 61.7628006,179.543417 61.8824972,179.036363 C62.1162972,178.044667 60.9277207,176.914583 59.2279164,176.512302 C58.1562398,176.258495 57.1376996,176.354863 56.4720967,176.7084 C57.0996652,176.527429 57.8983886,176.513982 58.7289939,176.710641" id="Fill-340" fill="#DCB204"></path>
        </g>
      </g>
    </g>
  </g>
</svg>
