<?xml version="1.0" encoding="UTF-8"?>
<svg xmlns="http://www.w3.org/2000/svg" xmlns:xlink="http://www.w3.org/1999/xlink" width="220px" height="160px" viewBox="0 0 220 160">
  <!-- Generator: Sketch 49 (51002) - http://www.bohemiancoding.com/sketch -->
  <title>7</title>
  <desc>Created with Sketch.</desc>
  <defs>
    <polygon id="path-1" points="0.0992636316 0.375583891 50.2295895 0.375583891 50.2295895 29.9205908 0.0992636316 29.9205908"></polygon>
    <polygon id="path-3" points="0.620444668 0.192273703 14.9910003 0.192273703 14.9910003 21.1435425 0.620444668 21.1435425"></polygon>
  </defs>
  <g id="Page-1" stroke="none" stroke-width="1" fill="none" fill-rule="evenodd">
    <g id="Desktop-HD" transform="translate(-795.000000, -4771.000000)">
      <g id="7" transform="translate(795.000000, 4771.000000)">
        <path d="M88.6665432,1.32554883 L149.809867,38.2895618 C151.241359,39.1546062 152.881035,39.6130058 154.555715,39.6130058 L210.789223,39.6130058 C218.563865,39.6130058 222.827022,48.6922753 217.88036,54.7069217 L182.86315,93.5544395 C178.373387,98.5358384 175.600677,104.835136 174.952176,111.520746 L173.279338,128.821635 C173.001146,131.699571 172.280794,134.540539 170.943261,137.102402 C163.000966,152.327553 146.574731,161.453032 129.216277,159.809817 L103.521268,159.89854 C86.0964897,159.959537 70.4200843,149.28511 64.0419299,133.015621 L59.9464253,122.568547 C58.7102203,120.91609 56.9581623,119.727578 54.9684434,119.193395 L6.82093161,106.265787 C0.265913353,104.506124 -2.19360024,96.4693434 2.24826289,91.3197414 L41.4973098,45.8291262 C44.1981689,42.6998096 44.4892574,38.1509329 42.2139771,34.6999972 L33.3597281,21.2844153 C29.0191933,14.7023146 34.3877495,6.04447698 42.1900267,7.04445353 L66.3079986,10.1349541 C70.1842658,10.6303214 73.9481506,8.61558119 75.6946816,5.10919392 L75.7002086,5.09995199 C78.0970829,0.28860457 84.0736088,-1.45072617 88.6665432,1.32554883" id="Fill-1" fill="#FCE7D2" opacity="0.5"></path>
        <g id="Page-1" transform="translate(58.367347, 23.370787)">
          <path d="M96.4208715,89.4210327 C97.0208372,89.751799 97.0214634,90.2940285 96.422124,90.6260573 L61.5477102,111.102639 C60.9483708,111.434667 59.9670073,111.43593 59.3664154,111.106426 L0.450788404,78.5006944 C-0.149803537,78.1705593 -0.149803537,77.6295922 0.450788404,77.2994571 L34.0156738,61.8171948 C34.6162657,61.4870597 35.599508,61.4876909 36.1994737,61.8184573 L96.4208715,89.4210327 Z" id="Fill-1" fill="#231F20"></path>
          <polygon id="Fill-3" fill="#D9D9D9" points="25.3948936 84.4453983 25.3948936 92.4721626 60.6726246 111.984219 96.6085643 92.0694357 96.6085643 84.0426714 61.3308333 64.5306148"></polygon>
          <polygon id="Fill-4" fill="#F5F5F5" points="96.6086269 84.0428607 60.6726872 103.957013 25.3949562 84.4455877 61.3308959 64.5308042"></polygon>
          <polygon id="Fill-5" fill="#F6A416" points="85.8042347 68.7213104 61.2313191 55.1302235 36.1993484 69.0015781 36.1993484 84.6031435 60.772264 98.1942305 85.8042347 84.3222447"></polygon>
          <polygon id="Fill-6" fill="#FAB811" points="85.8042347 68.7213104 60.772264 82.5932963 36.1993484 69.0015781 61.2313191 55.1302235"></polygon>
          <g id="Group-41" transform="translate(35.071062, 0.255650)">
            <path d="M13.4236996,70.2973741 C13.4236996,70.2973741 17.7117632,76.1627951 27.2072533,75.5454488 C27.2072533,75.5454488 35.2729714,75.2367757 38.4375085,70.2973741 L38.4375085,62.785065 L33.03907,55.4469764 L18.3374059,55.4469764 L13.4236996,61.7561545 L13.4236996,70.2973741 Z" id="Fill-7" fill="#F6A416"></path>
            <path d="M27.2071281,71.6569878 C17.711638,72.2749653 13.4235743,66.408913 13.4235743,66.408913 L13.4235743,70.2973109 C13.4235743,70.2973109 17.711638,76.1633632 27.2071281,75.5460169 C27.2071281,75.5460169 35.2728461,75.2367125 38.4380095,70.2973109 L38.4380095,66.408913 C35.2728461,71.3483146 27.2071281,71.6569878 27.2071281,71.6569878" id="Fill-9" fill="#F2931B"></path>
            <path d="M55.9604516,3.47853806 L54.8644809,2.71158945 L46.7737121,7.76587552 L47.8195813,9.91522535 L48.3581726,9.53522283 L48.915552,10.682174 L52.2585757,8.32388587 C51.6510948,12.5765055 49.5750132,15.6266254 49.5750132,15.6266254 L49.5750132,20.4650297 C49.9683101,20.0660901 50.3321724,19.6494761 50.6709839,19.2189749 L50.6709839,21.2313471 C57.0708265,14.749211 55.9604516,3.47853806 55.9604516,3.47853806" id="Fill-11" fill="#F9B311"></path>
            <path d="M47.8697454,8.53175104 L55.9605142,3.4780962 C55.9605142,3.4780962 57.0708891,14.7494003 50.6710465,21.2309052 L50.6710465,16.3931322 C50.6710465,16.3931322 53.3063864,12.5344022 53.51055,7.44034844 L48.9156146,10.6817321 L47.8697454,8.53175104 Z" id="Fill-13" fill="#F2DE00"></path>
            <path d="M18.337218,55.446787 C18.337218,55.446787 20.9813256,58.9968438 25.8111119,58.6881707 C30.6402719,58.3794975 32.7332628,56.1670244 33.0395084,55.446787 L33.0395084,51.7932079 L18.337218,51.7932079 L18.337218,55.446787 Z" id="Fill-15" fill="#FFD008"></path>
            <g id="Group-19" transform="translate(0.626269, 0.000000)">
              <mask id="mask-2" fill="white">
                <use xlink:href="#path-1"></use>
              </mask>
              <g id="Clip-18"></g>
              <path d="M25.1644266,27.8444641 C12.7304825,27.8444641 2.65193595,22.160207 2.65193595,15.1478349 C2.65193595,8.13609393 12.7304825,2.45183689 25.1644266,2.45183689 C37.5977444,2.45183689 47.6769172,8.13609393 47.6769172,15.1478349 C47.6769172,22.160207 37.5977444,27.8444641 25.1644266,27.8444641 M25.1644266,0.375078904 C11.3213773,0.375078904 0.0992636316,6.98914279 0.0992636316,15.1478349 C0.0992636316,23.3071582 11.3213773,29.9205908 25.1644266,29.9205908 C39.0074759,29.9205908 50.2295895,23.3071582 50.2295895,15.1478349 C50.2295895,6.98914279 39.0074759,0.375078904 25.1644266,0.375078904" id="Fill-17" fill="#FAB811" mask="url(#mask-2)"></path>
            </g>
            <path d="M0.741126698,15.5209569 C0.736116546,15.396604 0.725469974,15.2728822 0.725469974,15.147898 C0.725469974,15.147898 0.729227588,15.2817195 0.741126698,15.5209569" id="Fill-20" fill="#F2931B"></path>
            <path d="M25.7906956,29.920654 C12.4142166,29.920654 1.4864494,23.7446661 0.765613815,15.967239 C1.09816264,21.6420275 3.9971617,55.0759374 26.0969411,54.2622775 C26.0969411,54.2622775 50.9541827,55.8176367 50.8555269,15.1567353 C50.8483433,23.3116399 39.629361,29.920654 25.7906956,29.920654" id="Fill-22" fill="#F2931B"></path>
            <path d="M48.2776344,15.1485923 C48.2776344,22.1597021 38.2103607,27.8439591 25.7908208,27.8439591 C13.3712809,27.8439591 3.30338093,22.1597021 3.30338093,15.1485923 C3.30338093,8.13748264 13.3712809,2.4532256 25.7908208,2.4532256 C38.2103607,2.4532256 48.2776344,8.13748264 48.2776344,15.1485923" id="Fill-24" fill="#EF8F04"></path>
            <path d="M10.9351572,42.713925 C8.99121834,43.1494761 7.47502116,42.9045575 6.29199908,42.3143542 C4.26414016,40.3581618 3.78817574,37.3863149 3.78817574,37.3863149 L12.4156571,32.4469133 L12.4663848,28.8962252 L10.985885,27.8433279 L0.163957216,34.4296175 C-0.0427115437,41.589067 3.49069798,44.1342002 4.84970164,44.8462315 C5.92250039,45.8259058 6.85125727,46.1333165 6.85125727,46.1333165 C13.3857477,47.7284434 12.4156571,43.7668224 12.4156571,43.7668224 C11.8645404,43.8899129 10.9351572,42.713925 10.9351572,42.713925" id="Fill-26" fill="#F9B311"></path>
            <path d="M12.4157823,32.4468501 L3.78830099,37.3862517 C3.78830099,37.3862517 5.06463715,45.413016 12.4157823,43.7667592 C12.4157823,43.7667592 13.3858729,47.7283803 6.85138252,46.1338846 C6.85138252,46.1338846 1.38906457,44.3329756 1.64458231,35.4824517 L12.4665101,28.8961621 L12.4157823,32.4468501 Z" id="Fill-28" fill="#F2DE00"></path>
            <path d="M38.5466672,79.5332029 C38.5272528,80.282477 38.360039,81.0008206 38.0450257,81.6901275 C37.7293862,82.3800656 37.2978868,82.9715314 36.7480227,83.4664184 L36.7467702,83.5156546 C37.3855645,83.2846232 37.8646603,83.3117662 38.1828049,83.5983462 C38.5009495,83.8849261 38.6493753,84.4246307 38.6293347,85.2168287 C38.5986475,86.3700922 38.2974121,87.4198334 37.7250023,88.365421 C37.1525924,89.3116399 36.3515944,90.0659639 35.3207557,90.6302866 C34.4565045,91.1024492 33.696214,91.3057064 33.0392579,91.2394268 L33.0962483,89.0837647 C33.3987362,89.1500442 33.7325376,89.1550941 34.098905,89.1001767 C34.4652723,89.0452594 34.8297608,88.9190128 35.1936231,88.7201742 C35.7491237,88.4159197 36.1624612,88.0498043 36.4348882,87.6205656 C36.7073152,87.1919581 36.8519833,86.6629845 36.8682663,86.034276 C36.8832968,85.471847 36.7411337,85.1562303 36.4424034,85.0880571 C36.1436731,85.0198839 35.6608198,85.1682237 34.9925908,85.5330766 L34.3876149,85.8638429 L34.4383427,83.9215377 L35.0539651,83.584459 C35.6708401,83.2473804 36.1255113,82.8793713 36.4167264,82.4798005 C36.7073152,82.0814922 36.8620036,81.585974 36.8770341,80.9957707 C36.9008323,80.0893195 36.5350912,79.841876 35.7798109,80.2553339 C35.5186567,80.3979927 35.2506136,80.6088246 34.976934,80.8878298 C34.7026282,81.166835 34.397009,81.5581997 34.0581975,82.0612928 L33.3254628,80.7413837 C34.0713491,79.5571897 34.9481257,78.6905062 35.9532874,78.1400707 C36.7774573,77.68937 37.4212618,77.5852165 37.8853271,77.8263477 C38.3500187,78.0687413 38.5704654,78.6374826 38.5466672,79.5332029" id="Fill-30" fill="#FEFEFE"></path>
            <path d="M44.9445057,76.0333922 C44.9250914,76.7826663 44.7578776,77.50101 44.442238,78.1903169 C44.1272247,78.880255 43.6957254,79.472352 43.1458612,79.9666078 L43.1446087,80.015844 C43.783403,79.7848125 44.2624988,79.8119556 44.5806434,80.0985355 C44.8987881,80.3857467 45.0472138,80.9254513 45.0265469,81.7170181 C44.996486,82.8702815 44.6952507,83.9200227 44.1228408,84.8656104 C43.550431,85.8118293 42.749433,86.5661533 41.7185942,87.130476 C40.8543431,87.6032698 40.0940525,87.8058957 39.4370964,87.7396162 L39.4934606,85.583954 C39.7959485,85.6502336 40.1303761,85.6559147 40.4967435,85.6009973 C40.8631108,85.5454488 41.2275994,85.4192021 41.5914616,85.2203636 C42.1463359,84.9167403 42.5602997,84.5506249 42.8327267,84.1213862 C43.1051537,83.6921475 43.2498219,83.1631738 43.2661049,82.5344653 C43.2811353,81.9720364 43.1389723,81.6564196 42.840242,81.5882464 C42.5415117,81.5200732 42.0586583,81.6684131 41.389803,82.0338972 L40.7854535,82.3646636 L40.8361813,80.4217271 L41.4518037,80.0852796 C42.0686786,79.7475698 42.5233499,79.3795607 42.8145649,78.9799899 C43.1051537,78.5816816 43.2598422,78.0861634 43.2748726,77.4965913 C43.2986709,76.5895089 42.9323035,76.3420654 42.1776494,76.7555233 C41.9164952,76.898182 41.6484521,77.1096452 41.3747726,77.3880192 C41.1004668,77.6676556 40.7948475,78.0583891 40.456036,78.5614821 L39.7233013,77.241573 C40.4691877,76.0580104 41.3459642,75.1906956 42.3511259,74.6402601 C43.1752959,74.1895594 43.8191004,74.0854059 44.2831657,74.3265371 C44.7478572,74.5689307 44.9683039,75.137672 44.9445057,76.0333922" id="Fill-32" fill="#FEFEFE"></path>
            <polygon id="Fill-34" fill="#231F20" points="72.6397478 52.691895 67.3396335 45.7874637 61.5372515 45.2218786 65.1069847 42.4551824 63.4304626 37.5119934 69.5127869 41.2905567 76.6165558 39.9340361 75.4861403 43.8243277 84.2670575 50.0615453 72.6572833 46.7879687"></polygon>
            <polygon id="Fill-36" fill="#F8BE72" points="72.0465459 52.476455 72.859443 45.6338846 72.6415014 45.475445 69.301609 42.7220048 74.2666693 38.8632748 76.4867928 31.5251862 79.8273115 34.2786264 80.4473178 35.6067416 83.6719767 34.3594243 87.0118691 37.1134958 83.4195903 43.9099861 84.2675585 50.0619871 79.8273115 49.5083954 75.3864383 55.2298952"></polygon>
            <g id="Group-40" transform="translate(72.020931, 34.086605)">
              <mask id="mask-4" fill="white">
                <use xlink:href="#path-3"></use>
              </mask>
              <g id="Clip-39"></g>
              <polygon id="Fill-38" fill="#F08F03" mask="url(#mask-4)" points="7.80625482 0.192273703 5.58550505 7.53036233 0.620444668 11.3890923 4.21334974 14.0049236 3.36538156 21.1435425 7.80625482 15.4220427 12.2465018 15.9750032 11.3985336 9.82363338 14.9914387 3.0265118 10.0263783 4.94609267"></polygon>
            </g>
          </g>
        </g>
      </g>
    </g>
  </g>
</svg>
