<?xml version="1.0" encoding="UTF-8"?>
<svg xmlns="http://www.w3.org/2000/svg" xmlns:xlink="http://www.w3.org/1999/xlink" width="262px" height="158px" viewBox="0 0 262 158">
  <!-- Generator: Sketch 49 (51002) - http://www.bohemiancoding.com/sketch -->
  <title>4</title>
  <desc>Created with Sketch.</desc>
  <defs>
    <polygon id="path-1" points="0.432333106 0.470813555 50.490592 0.470813555 50.490592 70.6496094 0.432333106 70.6496094"></polygon>
  </defs>
  <g id="Page-1" stroke="none" stroke-width="1" fill="none" fill-rule="evenodd">
    <g id="Desktop-HD" transform="translate(-794.000000, -4204.000000)">
      <g id="4" transform="translate(794.000000, 4204.000000)">
        <path d="M101.604468,12.5929245 L59.8304039,39.7381962 C56.5790024,41.8513786 52.9294117,43.2735748 49.1079407,43.9171544 L23.6897156,48.1995452 C-0.148643405,52.2161719 -8.37168127,82.3825331 10.1126078,98.0022695 L33.8077333,118.026504 C38.2164619,121.752946 41.3876526,126.737815 42.9001988,132.317421 L44.173545,137.014978 C47.8661058,150.63933 60.9648136,159.484241 74.9401107,157.793408 L159.901953,147.504752 C164.091534,146.99621 168.341274,147.432924 172.340354,148.781856 L180.627847,151.577405 C200.114771,158.149675 219.881,142.390592 217.894351,121.866434 L217.785494,120.744479 C217.12089,113.88346 218.964306,107.013822 222.970548,101.412667 L256.608946,54.3954362 C270.981,34.306556 254.715399,6.66136083 230.235353,9.56608878 L153.645512,18.6509056 C146.571207,19.4912942 139.441041,17.6280736 133.673026,13.4361863 L133.668729,13.4333131 C124.180939,6.53637995 111.438883,6.20166105 101.604468,12.5929245" id="Fill-1" fill="#FCE7D2" opacity="0.5"></path>
        <g id="Page-1" transform="translate(23.963415, 0.000000)">
          <path d="M67.0639398,99.6928085 C55.2119246,106.546509 41.2027083,124.01201 41.2027083,130.681869 C41.2027083,137.351167 61.8004811,146.525305 73.6524963,139.671045 C85.5045115,132.817345 98.5187852,115.927469 98.5187852,109.25761 C98.5187852,102.588312 78.915955,92.8391083 67.0639398,99.6928085" id="Fill-1" fill="#231F20"></path>
          <path d="M99.5802625,105.757784 L95.2300469,103.228842 C91.0096551,100.225725 81.4743227,100.479628 72.5914667,105.6171 C60.7394515,112.4708 46.7296757,129.936302 46.7296757,136.606161 C46.7296757,138.445136 47.7962451,139.872149 49.588037,140.832273 L54.1715997,143.496293 L54.1715997,142.12701 C59.2738978,142.697591 66.2412935,141.356333 72.5914667,137.683987 C81.758592,132.382851 91.6162455,121.079402 95.6139223,113.143391 L99.5802625,115.448696 L99.5802625,105.757784 Z" id="Fill-3" fill="#CCCBCB"></path>
          <path d="M76.7954627,108.05939 C64.9434475,114.91309 50.9342312,132.378591 50.9342312,139.04845 C50.9342312,145.717748 64.9434475,146.980537 76.7954627,140.126837 C88.6474779,133.273137 101.661752,116.383261 101.661752,109.713402 C101.661752,103.043544 88.6474779,101.205129 76.7954627,108.05939" id="Fill-5" fill="#F5F5F5"></path>
          <path d="M161.219079,135.671876 L157.378086,139.317878 C157.378086,139.317878 112.319164,113.372128 112.559786,113.240412 L117.088509,110.490077 L161.219079,135.671876 Z" id="Fill-7" fill="#231F20"></path>
          <g id="Group-13" transform="translate(106.321194, 25.872326)" fill="#231F20">
            <path d="M67.0428994,30.683648 C67.3652205,30.8602031 67.3657801,31.1499776 67.043459,31.3265327 L30.6346054,51.8809073 C30.3122843,52.0580229 29.7851551,52.0591439 29.4622744,51.8825888 L1.0353446,36.2611071 C0.712463917,36.0845521 -0.276882773,35.1283522 1.23567611,34.3963492 L36.4285509,14.944463 C36.7514316,14.7679079 38.1946019,14.0112432 39.5532749,15.0044356 L67.0428994,30.683648 Z" id="Fill-9"></path>
            <path d="M46.3672323,20.3032741 C46.0281237,20.891791 45.2698857,21.0952497 44.6823212,20.7555914 L13.4031855,2.66738298 C12.815621,2.32716414 12.6124915,1.56825753 12.9521598,0.979740588 C13.2912684,0.391223644 14.0495064,0.18776493 14.6365113,0.52742328 L45.915647,18.6156317 C46.5032115,18.95529 46.706341,19.7147571 46.3672323,20.3032741" id="Fill-11"></path>
          </g>
          <g id="Group-16" transform="translate(145.492160, 0.089679)">
            <mask id="mask-2" fill="white">
              <use xlink:href="#path-1"></use>
            </mask>
            <g id="Clip-15"></g>
            <path d="M50.490592,70.6496094 L0.532501307,41.9249382 L0.43233555,2.46123391 C0.430097209,1.40078242 1.96559909,0.836927143 3.17486277,0.557801964 C4.03606444,0.358827188 4.94035418,0.505676177 5.70698595,0.945662654 L48.3899091,25.4363749 C49.6215562,26.1431557 50.3831517,27.4547078 50.3865092,28.8766768 L50.490592,70.6496094 Z" id="Fill-14" fill="#BDBCBC" mask="url(#mask-2)"></path>
          </g>
          <path d="M194.651555,70.0978047 L146.132158,42.2009806 L146.032552,2.55063243 C146.029194,1.40554661 147.264758,0.686434953 148.256903,1.25533466 L192.97168,26.9118709 C193.944799,27.4701213 194.546913,28.5070321 194.549711,29.6308192 L194.651555,70.0978047 Z" id="Fill-17" fill="#222327"></path>
          <polygon id="Fill-19" fill="#F5F5F5" points="148.027305 3.55738875 192.418642 29.0788464 192.510974 66.4065144 148.027305 40.829568"></polygon>
          <path d="M111.16709,63.1751079 C111.230323,63.1291476 149.956979,44.249524 149.956979,44.249524 L195.816108,70.7395124 L159.708871,91.6436342 C158.479462,92.354899 156.964665,92.354899 155.735256,91.6436342 C155.735256,91.6436342 118.375108,70.0108724 111.997515,66.3110625 C111.426178,65.9792511 111.076997,65.3694354 111.076997,64.7080545 L111.16709,63.1751079 Z" id="Fill-21" fill="#BDBCBC"></path>
          <path d="M194.593638,69.9089749 L146.130199,41.9146251 L111.856723,61.755493 C110.866817,62.3288766 110.866817,63.7598135 111.856723,64.3331972 L156.473573,90.1584417 C157.445572,90.7206155 158.642525,90.7206155 159.613965,90.1584417 L194.593638,69.9089749 Z" id="Fill-23" fill="#E5E4E2"></path>
          <path d="M181.180268,70.7702274 C182.145553,71.3251148 182.627915,71.6025585 183.5932,72.1580064 C184.569116,71.6053609 185.057075,71.3295987 186.032432,70.7769533 C185.067147,70.2215054 184.584785,69.9440617 183.6195,69.3891743 C182.644143,69.9412592 182.156185,70.2175819 181.180268,70.7702274" id="Fill-25" fill="#222327"></path>
          <path d="M177.61862,68.72174 C178.583904,69.2766274 179.066267,69.5540711 180.031551,70.109519 C181.007468,69.5568736 181.495426,69.2811114 182.470783,68.7284659 C181.506059,68.173018 181.023136,67.8955743 180.057852,67.3406869 C179.082495,67.8927719 178.594537,68.1690946 177.61862,68.72174" id="Fill-27" fill="#222327"></path>
          <path d="M174.056748,66.6730285 C175.022033,67.2284764 175.504395,67.5059201 176.46968,68.061368 C177.445596,67.5087225 177.933555,67.2323998 178.909471,66.6797544 C177.944187,66.1243065 177.461265,65.8468628 176.49654,65.2919754 C175.520623,65.8440603 175.032665,66.120383 174.056748,66.6730285" id="Fill-29" fill="#222327"></path>
          <path d="M170.4951,64.6245411 C171.460384,65.1794285 171.942747,65.4574327 172.908031,66.0123201 C173.883948,65.4596747 174.371906,65.1839124 175.347823,64.631267 C174.382539,64.0758191 173.899616,63.7983754 172.934332,63.243488 C171.958975,63.795573 171.471017,64.0718957 170.4951,64.6245411" id="Fill-31" fill="#222327"></path>
          <path d="M166.933228,62.5757735 C167.898513,63.1312214 168.380875,63.4086651 169.34616,63.964113 C170.322076,63.4114676 170.810035,63.1351448 171.785951,62.5824994 C170.820667,62.0270515 170.337745,61.7496078 169.37246,61.1947204 C168.397103,61.7468054 167.909145,62.0231281 166.933228,62.5757735" id="Fill-33" fill="#222327"></path>
          <path d="M163.371356,60.5270059 C164.336641,61.0824538 164.819003,61.3598975 165.784288,61.9153454 C166.760204,61.3627 167.248163,61.0863772 168.224079,60.5337318 C167.258795,59.9782839 166.775873,59.7008402 165.810588,59.1459528 C164.835231,59.6980377 164.347273,59.9743605 163.371356,60.5270059" id="Fill-35" fill="#222327"></path>
          <path d="M159.809428,58.4782943 C160.774713,59.0337422 161.257075,59.3111859 162.22236,59.8666338 C163.198276,59.3139884 163.686235,59.0376657 164.662151,58.4850203 C163.696867,57.9295724 163.213945,57.6521287 162.24866,57.0972413 C161.273303,57.6493262 160.785345,57.9256489 159.809428,58.4782943" id="Fill-37" fill="#222327"></path>
          <path d="M156.247556,56.429807 C157.212841,56.9846944 157.695203,57.2626986 158.660488,57.817586 C159.636404,57.2649406 160.124363,56.9891783 161.100279,56.4365329 C160.134995,55.881085 159.652073,55.6036413 158.686788,55.0487539 C157.710872,55.6008388 157.223473,55.8771616 156.247556,56.429807" id="Fill-39" fill="#222327"></path>
          <path d="M152.685684,54.3810394 C153.650969,54.9364873 154.133331,55.213931 155.098616,55.7688184 C156.074533,55.2167334 156.562491,54.9404107 157.538408,54.3877653 C156.573123,53.8323174 156.090201,53.5548737 155.124916,52.9999863 C154.149559,53.5520712 153.661601,53.828394 152.685684,54.3810394" id="Fill-41" fill="#222327"></path>
          <path d="M149.123757,52.332552 C150.089041,52.8874394 150.571404,53.1648831 151.536688,53.720331 C152.512605,53.1676856 153.000563,52.8919234 153.97648,52.3392779 C153.011195,51.78383 152.528273,51.5063863 151.562989,50.9509384 C150.587631,51.5035839 150.099673,51.7799066 149.123757,52.332552" id="Fill-43" fill="#222327"></path>
          <path d="M145.562164,50.2837844 C146.527449,50.8392323 147.009811,51.116676 147.975096,51.6715634 C148.951013,51.1194785 149.438971,50.8431558 150.414328,50.2905103 C149.449603,49.7350624 148.966681,49.4576187 148.001396,48.9027313 C147.026039,49.4548163 146.538081,49.731139 145.562164,50.2837844" id="Fill-45" fill="#222327"></path>
          <path d="M142.000796,48.2352971 C142.966081,48.790745 143.448443,49.0681887 144.413728,49.6230761 C145.389644,49.0704306 145.877043,48.7946684 146.85296,48.242023 C145.887675,47.6865751 145.405313,47.4091314 144.440028,46.854244 C143.464671,47.4063289 142.976713,47.6832121 142.000796,48.2352971" id="Fill-47" fill="#222327"></path>
          <path d="M177.756054,72.7089703 C178.721339,73.2638577 179.203701,73.5418619 180.168986,74.0967493 C181.144902,73.5441039 181.632861,73.2677812 182.608777,72.7151357 C181.643493,72.1602483 181.160571,71.8828046 180.195846,71.3273567 C179.219929,71.8800022 178.731971,72.1563249 177.756054,72.7089703" id="Fill-49" fill="#222327"></path>
          <path d="M174.194462,70.660483 C175.159746,71.2153704 175.642109,71.4933746 176.607393,72.048262 C177.58331,71.4956165 178.071268,71.2192938 179.047185,70.6666484 C178.081901,70.111761 177.599538,69.8343173 176.634254,69.2788694 C175.658337,69.8315148 175.170379,70.1078375 174.194462,70.660483" id="Fill-51" fill="#222327"></path>
          <path d="M170.632814,68.6117154 C171.598098,69.1671633 172.080461,69.444607 173.045745,70.0000549 C174.021662,69.4474094 174.50962,69.1710867 175.485537,68.6184413 C174.520252,68.0629934 174.03733,67.7855497 173.072605,67.2306623 C172.096689,67.7827472 171.608731,68.0590699 170.632814,68.6117154" id="Fill-53" fill="#222327"></path>
          <path d="M167.070942,66.5632841 C168.036226,67.118732 168.518589,67.3961757 169.483873,67.9510631 C170.45979,67.3984176 170.947748,67.1226554 171.923665,66.57001 C170.958381,66.0145621 170.476018,65.7371184 169.510734,65.1816705 C168.534817,65.7343159 168.046859,66.0106386 167.070942,66.5632841" id="Fill-55" fill="#222327"></path>
          <path d="M163.50907,64.5145165 C164.474355,65.0699644 164.956717,65.3474081 165.922002,65.902856 C166.897918,65.3502105 167.385877,65.0738878 168.361793,64.5212424 C167.396509,63.9657945 166.914146,63.6883508 165.948862,63.1334634 C164.972945,63.6855483 164.484987,63.961871 163.50907,64.5145165" id="Fill-57" fill="#222327"></path>
          <path d="M159.947142,62.4657489 C160.912427,63.0211968 161.394789,63.2986405 162.360074,63.8540884 C163.33599,63.3014429 163.823949,63.0251202 164.799865,62.4724748 C163.834581,61.9170269 163.352218,61.6395832 162.386934,61.0846958 C161.411017,61.6367807 160.923059,61.9131034 159.947142,62.4657489" id="Fill-59" fill="#222327"></path>
          <path d="M156.38527,60.4172615 C157.350555,60.9721489 157.832917,61.2495926 158.798202,61.8050405 C159.774118,61.2523951 160.262077,60.9766328 161.237993,60.4239874 C160.272709,59.8685395 159.790346,59.5910958 158.825062,59.0356479 C157.849145,59.5882934 157.361187,59.8646161 156.38527,60.4172615" id="Fill-61" fill="#222327"></path>
          <path d="M152.823398,58.3685499 C153.788683,58.9234374 154.271045,59.2014415 155.23633,59.7563289 C156.212246,59.2036835 156.700205,58.9279213 157.676121,58.3752759 C156.710837,57.819828 156.227915,57.5423843 155.26319,56.9869364 C154.287273,57.5395818 153.799315,57.8159045 152.823398,58.3685499" id="Fill-63" fill="#222327"></path>
          <path d="M149.26147,56.3197823 C150.226755,56.8752302 150.709117,57.1526739 151.674402,57.7081218 C152.650319,57.1554764 153.138277,56.8791537 154.114194,56.3265083 C153.148909,55.7710604 152.666547,55.4936167 151.701262,54.9387293 C150.725345,55.4908142 150.237387,55.7671369 149.26147,56.3197823" id="Fill-65" fill="#222327"></path>
          <path d="M145.699599,54.271295 C146.664883,54.8261824 147.147246,55.1036261 148.11253,55.659074 C149.088447,55.1064286 149.576405,54.8301058 150.552322,54.2774604 C149.587037,53.722573 149.104675,53.4451293 148.13939,52.8896814 C147.163473,53.4423268 146.675515,53.7186496 145.699599,54.271295" id="Fill-67" fill="#222327"></path>
          <path d="M142.138006,52.2225274 C143.103291,52.7779753 143.585653,53.055419 144.550938,53.6108669 C145.526855,53.0582214 146.014813,52.7818987 146.99073,52.2292533 C146.025445,51.6738054 145.543083,51.3963617 144.577798,50.8414743 C143.601881,51.3935592 143.113923,51.669882 142.138006,52.2225274" id="Fill-69" fill="#222327"></path>
          <path d="M138.576638,50.1743203 C140.194959,51.1047375 141.003559,51.5705067 142.62188,52.5009239 C143.598356,51.948839 144.085755,51.6719558 145.061671,51.1198708 C143.443351,50.1888931 142.634191,49.7236844 141.01643,48.7927067 C140.040513,49.3453521 139.552555,49.6216748 138.576638,50.1743203" id="Fill-71" fill="#222327"></path>
          <path d="M172.737582,73.7308599 C174.340793,74.6528698 175.14212,75.1135945 176.744772,76.0356044 C177.720688,75.482959 178.208647,75.2066362 179.184563,74.6539908 C177.581911,73.7319809 176.780585,73.2712562 175.177373,72.3492464 C174.201457,72.9018918 173.713498,73.1782145 172.737582,73.7308599" id="Fill-73" fill="#222327"></path>
          <path d="M170.770248,72.5992259 C171.735533,73.1546738 172.217895,73.4321175 173.18318,73.9870049 C174.159096,73.4343595 174.647054,73.1585973 175.622971,72.6059518 C174.657687,72.0505039 174.175324,71.7730602 173.21004,71.2181728 C172.234123,71.7702578 171.746165,72.0465805 170.770248,72.5992259" id="Fill-75" fill="#222327"></path>
          <path d="M167.208376,70.5507386 C168.173661,71.105626 168.656023,71.3836302 169.621308,71.9385176 C170.597784,71.3858721 171.085183,71.1101099 172.061099,70.5574645 C171.096374,70.0020166 170.613452,69.7245729 169.648168,69.169125 C168.672251,69.7217704 168.184293,69.9980931 167.208376,70.5507386" id="Fill-77" fill="#222327"></path>
          <path d="M163.646784,68.501971 C164.612068,69.0574189 165.094431,69.3348626 166.059715,69.8903105 C167.035632,69.337665 167.52359,69.0613423 168.499507,68.5086969 C167.534223,67.953249 167.05186,67.6758053 166.086576,67.1209179 C165.110659,67.6730028 164.622701,67.9493255 163.646784,68.501971" id="Fill-79" fill="#222327"></path>
          <path d="M160.084856,66.4535397 C161.050141,67.0084271 161.532503,67.2858708 162.497788,67.8413187 C163.473704,67.2886732 163.961663,67.0123505 164.937579,66.4597051 C163.972295,65.9048177 163.489932,65.627374 162.524648,65.0719261 C161.548731,65.6245715 161.060773,65.9008942 160.084856,66.4535397" id="Fill-81" fill="#222327"></path>
          <path d="M156.522984,64.4047721 C157.488269,64.9596595 157.970631,65.2376637 158.935916,65.7925511 C159.911832,65.2399056 160.399791,64.9641434 161.375707,64.411498 C160.410423,63.8560501 159.92806,63.5786064 158.962776,63.0231585 C157.986859,63.5758039 157.498901,63.8521266 156.522984,64.4047721" id="Fill-83" fill="#222327"></path>
          <path d="M152.961112,62.3560045 C153.926397,62.9114524 154.408759,63.1888961 155.374044,63.7437835 C156.34996,63.191138 156.837919,62.9153758 157.813835,62.3627304 C156.848551,61.8072825 156.366188,61.5298388 155.400904,60.9743909 C154.424987,61.5270363 153.937029,61.803359 152.961112,62.3560045" id="Fill-85" fill="#222327"></path>
          <path d="M149.399184,60.3072369 C150.364469,60.8626848 150.846831,61.1401285 151.812116,61.6955764 C152.788033,61.1429309 153.275991,60.8666082 154.251907,60.3139628 C153.286623,59.7585149 152.803701,59.4810712 151.838976,58.9261838 C150.863059,59.4782687 150.375101,59.7545914 149.399184,60.3072369" id="Fill-87" fill="#222327"></path>
          <path d="M145.837312,58.2585253 C146.802597,58.8139732 147.284959,59.0914169 148.250244,59.6468648 C149.226161,59.0942194 149.714119,58.8178966 150.690036,58.2652512 C149.724751,57.7098033 149.242389,57.4323596 148.277104,56.8774722 C147.301187,57.4295572 146.813229,57.7058799 145.837312,58.2585253" id="Fill-89" fill="#222327"></path>
          <path d="M142.275441,56.2100379 C143.240725,56.7654858 143.723088,57.0429295 144.688372,57.5978169 C145.664289,57.0451715 146.152247,56.7694093 147.128164,56.2167639 C146.162879,55.661316 145.680517,55.3838723 144.715232,54.8284244 C143.739315,55.3810698 143.251357,55.6573925 142.275441,56.2100379" id="Fill-91" fill="#222327"></path>
          <path d="M138.713792,54.1615506 C139.679077,54.716438 140.161439,54.9938817 141.126724,55.5493296 C142.102641,54.9966842 142.590599,54.7203614 143.566516,54.167716 C142.601231,53.6128286 142.118869,53.3353849 141.153584,52.779937 C140.177667,53.3325824 139.689709,53.6089052 138.713792,54.1615506" id="Fill-93" fill="#222327"></path>
          <path d="M135.15248,52.1130632 C136.117765,52.6679506 136.600127,52.9453943 137.565412,53.5008422 C138.541328,52.9481968 139.029287,52.6718741 140.004644,52.1192286 C139.039919,51.5643412 138.556997,51.2868975 137.592272,50.7314496 C136.616355,51.2840951 136.128397,51.5604178 135.15248,52.1130632" id="Fill-95" fill="#222327"></path>
          <path d="M170.907682,76.5867365 C171.872967,77.1416239 172.355329,77.4190676 173.320614,77.9745155 C174.29653,77.4218701 174.784489,77.1455473 175.760405,76.5929019 C174.795121,76.0380145 174.312199,75.7605708 173.346914,75.2051229 C172.371557,75.7577683 171.883599,76.0340911 170.907682,76.5867365" id="Fill-97" fill="#222327"></path>
          <path d="M167.34609,74.5382491 C168.311375,75.0931365 168.793737,75.3705802 169.759022,75.9260281 C170.734938,75.3733827 171.222896,75.09706 172.198813,74.5444146 C171.233529,73.9895272 170.750607,73.7120834 169.785882,73.1566356 C168.809965,73.709281 168.322007,73.9856037 167.34609,74.5382491" id="Fill-99" fill="#222327"></path>
          <path d="M163.784218,72.4894815 C164.749503,73.0449294 165.231865,73.3223731 166.19715,73.8772605 C167.173066,73.3246151 167.661025,73.0488529 168.636941,72.4962074 C167.671657,71.9407595 167.189294,71.6633158 166.22401,71.1084284 C165.248093,71.6605134 164.760135,71.9368361 163.784218,72.4894815" id="Fill-101" fill="#222327"></path>
          <path d="M160.22257,70.4407139 C161.187855,70.9961618 161.670217,71.2736055 162.635502,71.8290534 C163.611418,71.276408 164.099376,71.0000853 165.075293,70.4474398 C164.110009,69.8919919 163.627087,69.6145482 162.661802,69.0596608 C161.686445,69.6117458 161.198487,69.8880685 160.22257,70.4407139" id="Fill-103" fill="#222327"></path>
          <path d="M156.660698,68.3922266 C157.625983,68.947114 158.108345,69.2251182 159.07363,69.7800056 C160.049546,69.2273601 160.537505,68.9515979 161.513421,68.3989525 C160.548137,67.8435046 160.065215,67.5660609 159.10049,67.010613 C158.124573,67.5632584 157.636615,67.8395811 156.660698,68.3922266" id="Fill-105" fill="#222327"></path>
          <path d="M153.098546,66.343515 C154.063831,66.8989629 154.546753,67.1764066 155.511478,67.7318545 C156.487954,67.1792091 156.975912,66.9028864 157.95127,66.3502409 C156.986545,65.794793 156.503623,65.5173493 155.538338,64.9619014 C154.562421,65.5145469 154.074463,65.7908696 153.098546,66.343515" id="Fill-107" fill="#222327"></path>
          <path d="M149.536619,64.2947474 C150.501903,64.8501953 150.984265,65.127639 151.94955,65.6830869 C152.926026,65.1304415 153.413425,64.8541188 154.389342,64.3014733 C153.424617,63.7460254 152.941695,63.4685817 151.97641,62.9136943 C151.000493,63.4657793 150.512535,63.742102 149.536619,64.2947474" id="Fill-109" fill="#222327"></path>
          <path d="M145.974747,62.2459798 C146.940031,62.8014277 147.422394,63.0788714 148.387678,63.6343193 C149.364154,63.0816739 149.851553,62.8053512 150.82747,62.2527057 C149.862185,61.6972578 149.379823,61.4198141 148.414538,60.8649267 C147.438622,61.4170117 146.950663,61.6933344 145.974747,62.2459798" id="Fill-111" fill="#222327"></path>
          <path d="M142.412875,60.1974925 C143.378159,60.7523799 143.860522,61.0303841 144.825806,61.5852715 C145.802282,61.032626 146.289681,60.7568638 147.265598,60.2042184 C146.300313,59.6487705 145.817951,59.3713268 144.852666,58.8158789 C143.87675,59.3685243 143.388791,59.644847 142.412875,60.1974925" id="Fill-113" fill="#222327"></path>
          <path d="M138.851227,58.1487809 C139.816511,58.7042288 140.298874,58.9816725 141.264158,59.5371204 C142.240075,58.984475 142.728033,58.7081522 143.70395,58.1555068 C142.738665,57.6000589 142.256303,57.3226152 141.291018,56.7677278 C140.315102,57.3198128 139.827143,57.5961355 138.851227,58.1487809" id="Fill-115" fill="#222327"></path>
          <path d="M133.750775,55.2152201 C135.331603,56.1243387 136.121738,56.5788979 137.702566,57.4880165 C138.678483,56.9353711 139.166441,56.6596088 140.142358,56.1069634 C138.561529,55.1978449 137.771395,54.7432856 136.190567,53.834167 C135.21465,54.386252 134.726692,54.6625747 133.750775,55.2152201" id="Fill-117" fill="#222327"></path>
          <path d="M131.727986,54.0518062 C132.693271,54.6072541 133.175633,54.8846978 134.140918,55.4395852 C135.116835,54.8869398 135.604793,54.6111775 136.58071,54.0585321 C135.615425,53.5030842 135.133063,53.2256405 134.167778,52.6707531 C133.191861,53.222838 132.703903,53.4991608 131.727986,54.0518062" id="Fill-119" fill="#222327"></path>
          <path d="M167.010283,78.7933948 C167.975567,79.3482822 168.45793,79.6257259 169.423214,80.1811738 C170.399131,79.6285284 170.88653,79.3527661 171.862446,78.8001207 C170.897162,78.2446728 170.414799,77.9672291 169.449515,77.4123417 C168.473598,77.9644266 167.9862,78.2407494 167.010283,78.7933948" id="Fill-121" fill="#222327"></path>
          <path d="M163.448691,76.7449074 C164.413975,77.2997948 164.896338,77.5772385 165.861622,78.1326864 C166.837539,77.580041 167.325497,77.3042788 168.300854,76.7516333 C167.336129,76.1961854 166.853207,75.9187417 165.887923,75.3638543 C164.912566,75.9159393 164.424607,76.192262 163.448691,76.7449074" id="Fill-123" fill="#222327"></path>
          <path d="M159.886763,74.6961398 C160.852047,75.2515877 161.33441,75.5290314 162.299694,76.0844793 C163.275611,75.5318339 163.763569,75.2555112 164.739486,74.7028657 C163.774202,74.1474178 163.291279,73.8699741 162.326555,73.3150867 C161.350638,73.8671717 160.86268,74.1440549 159.886763,74.6961398" id="Fill-125" fill="#222327"></path>
          <path d="M138.515419,62.4041508 C145.256183,66.2810762 151.997506,70.1585621 158.73827,74.0354875 C159.714187,73.4834026 160.201586,73.2065194 161.178062,72.6544344 C154.436739,68.777509 147.695975,64.9000231 140.955211,61.0230977 C139.979294,61.5751826 139.491336,61.8515053 138.515419,62.4041508" id="Fill-127" fill="#222327"></path>
          <path d="M134.953827,60.3557194 C135.919112,60.9106068 136.401474,61.1880505 137.366759,61.7434984 C138.342676,61.190853 138.830634,60.9150908 139.80655,60.3624454 C138.841266,59.8069975 138.358344,59.5295538 137.393059,58.9746664 C136.417702,59.5267513 135.929744,59.803074 134.953827,60.3557194" id="Fill-129" fill="#222327"></path>
          <path d="M131.392179,58.3072321 C132.357464,58.8621195 132.839826,59.1395632 133.805111,59.6950111 C134.781027,59.1423657 135.268986,58.8660429 136.244343,58.313958 C135.279618,57.7585101 134.796696,57.4810664 133.831411,56.9256185 C132.856054,57.4782639 132.368096,57.7545867 131.392179,58.3072321" id="Fill-131" fill="#222327"></path>
          <path d="M127.830867,56.2587447 C128.796151,56.8136321 129.278514,57.0910758 130.243798,57.6465237 C131.219156,57.0938783 131.707114,56.8175556 132.68303,56.2649101 C131.717746,55.7100227 131.235383,55.432579 130.270099,54.8776916 C129.294182,55.4297766 128.806784,55.7060993 127.830867,56.2587447" id="Fill-133" fill="#222327"></path>
          <polygon id="Fill-135" fill="#BDBCBC" points="155.03958 75.0303054 138.410945 65.4139385 128.908628 71.2778092 145.531107 80.897539"></polygon>
          <polygon id="Fill-137" fill="#F08F03" points="162.271547 37.6037665 156.765229 34.3977504 156.786493 27.0306393 162.293371 30.2366554"></polygon>
          <polygon id="Fill-139" fill="#F08F03" points="160.861672 28.3638263 158.224907 26.8286378 158.234979 23.3008991 160.872304 24.8366481"></polygon>
          <polygon id="Fill-141" fill="#F08F03" points="178.559115 47.0869604 173.052237 43.8803838 173.07406 36.5138331 178.580939 39.7198492"></polygon>
          <polygon id="Fill-143" fill="#F08F03" points="177.14896 37.846796 174.512194 36.3116075 174.522267 32.7838688 177.159592 34.3196178"></polygon>
          <polygon id="Fill-145" fill="#F08F03" points="171.516735 42.9864546 163.807329 38.498032 163.837547 28.1844127 171.546952 32.6733958"></polygon>
          <polygon id="Fill-147" fill="#F08F03" points="169.54263 30.0510764 165.851046 27.9015883 165.865595 22.9625299 169.557179 25.112018"></polygon>
          <path d="M99.5756179,70.4536053 C99.8167991,70.585321 99.8167991,70.8022315 99.5761775,70.9345077 L44.022794,103.270991 C43.7816128,103.403268 43.3876648,103.403828 43.1464835,103.272112 L0.180969864,79.6563288 C-0.0602113709,79.5251736 -0.0602113709,79.309384 0.180410279,79.1776683 L55.2094624,48.8331742 C55.450084,48.7014585 55.8451512,48.7014585 56.0857729,48.8337347 L99.5756179,70.4536053 Z" id="Fill-149" fill="#231F20"></path>
          <polygon id="Fill-151" fill="#CDCBCB" points="99.6660469 70.7428753 43.6107155 103.514862 40.0802922 101.73698 40.0802922 71.3751107 43.6107155 72.7970797 99.6660469 40.381006"></polygon>
          <path d="M91.6701335,40.5058276 C90.7540925,41.5825334 89.477119,41.9995397 88.8179276,41.4368054 C88.3310884,41.0209201 88.3204563,40.1869075 88.7155235,39.3456085 C88.6332645,39.4038997 88.551565,39.4655539 88.4659485,39.5148772 C87.3943428,40.1347817 86.5253069,39.7670987 86.5253069,38.6931954 C86.5253069,37.6198526 87.3943428,36.2466464 88.4659485,35.6273024 C89.5381138,35.0073979 90.4071496,35.3750809 90.4071496,36.4489842 C90.4071496,36.8648695 90.2739684,37.3255942 90.0512534,37.7706251 C90.819564,37.2426413 91.6466309,37.120454 92.1345893,37.5374603 C92.7943402,38.1001946 92.5861745,39.4291219 91.6701335,40.5058276 Z M78.2876527,48.0472519 C77.3721713,49.1239577 76.0951978,49.5409639 75.4360063,48.9782296 C75.0012086,48.6077442 74.950846,47.9037659 75.223364,47.1588716 C75.1769184,47.1891381 75.1321516,47.2261306 75.0840272,47.2535948 C74.0124215,47.8734993 73.1433857,47.5058163 73.1433857,46.431913 C73.1433857,45.3585702 74.0124215,43.985364 75.0840272,43.36602 C76.155633,42.7461155 77.0246688,43.1137984 77.0246688,44.1871412 C77.0246688,44.5183922 76.9345756,44.8765468 76.7890834,45.2335804 C77.5221401,44.7734162 78.289891,44.6837374 78.752668,45.0788845 C79.4118594,45.6416188 79.2036937,46.9705461 78.2876527,48.0472519 Z M64.9057315,55.8846161 C63.9896904,56.9618824 62.7127169,57.3788886 62.0535255,56.8161543 C61.5929869,56.4226887 61.564448,55.6542538 61.8962821,54.8600361 C61.8319298,54.904315 61.7686966,54.9536383 61.702106,54.9923123 C60.6299407,55.6122168 59.7614644,55.2439734 59.7614644,54.1706306 C59.7614644,53.0972878 60.6299407,51.7246421 61.702106,51.1047375 C62.7737117,50.484833 63.6427476,50.852516 63.6427476,51.9258588 C63.6427476,52.2991467 63.5325093,52.7071851 63.3512037,53.1079371 C64.1010479,52.6163853 64.8956589,52.5115733 65.3701872,52.9168092 C66.0299382,53.478983 65.8217725,54.8084708 64.9057315,55.8846161 Z M51.5232506,63.6272571 C50.6077692,64.7039629 49.3307957,65.1209692 48.6716043,64.5587954 C48.2093869,64.1642088 48.1819672,63.3935318 48.5165992,62.5976327 C48.4511277,62.6419116 48.387335,62.6917954 48.3196252,62.7310299 C47.2480195,63.3509344 46.3789836,62.9832514 46.3789836,61.9093481 C46.3789836,60.8360053 47.2480195,59.4633596 48.3196252,58.8434551 C49.3912309,58.2235506 50.2608264,58.5912335 50.2608264,59.6651368 C50.2608264,60.0389852 50.1500285,60.4492656 49.9670441,60.8516991 C50.7174479,60.3590263 51.5131781,60.2536538 51.988266,60.6594502 C52.6474574,61.221624 52.4398512,62.5505513 51.5232506,63.6272571 Z M96.1350641,27.3129592 L40.0802922,59.729033 L40.0802922,71.3749425 L43.6107155,72.7969116 L99.6660469,40.3808378 L99.6660469,28.7349283 L96.1350641,27.3129592 Z" id="Fill-153" fill="#121D1F"></path>
          <polygon id="Fill-155" fill="#F5F5F5" points="99.6660469 70.7428753 43.6107155 103.158949 43.6107155 72.7970797 99.6660469 40.381006"></polygon>
          <polygon id="Fill-157" fill="#EF8F04" points="55.8771595 74.2379934 47.8236088 78.8951241 47.8236088 73.7458811 55.8771595 69.0881899"></polygon>
          <polygon id="Fill-159" fill="#EF8F04" points="69.2593605 66.4995 61.2058099 71.1566308 61.2058099 66.0068273 69.2593605 61.3496965"></polygon>
          <polygon id="Fill-161" fill="#E3E1E1" points="82.6416175 58.7607264 74.5880668 63.4178572 74.5880668 58.2680537 82.6416175 53.6109229"></polygon>
          <polygon id="Fill-163" fill="#E3E1E1" points="96.0235947 51.0218968 87.9706036 55.6790275 87.9706036 50.5297845 96.0235947 45.8720933"></polygon>
          <polygon id="Fill-165" fill="#E3E1E1" points="55.8771595 82.196536 47.8236088 86.8536668 47.8236088 81.7044238 55.8771595 77.0467325"></polygon>
          <polygon id="Fill-167" fill="#E3E1E1" points="69.2593605 74.4577624 61.2058099 79.1148932 61.2058099 73.9656502 69.2593605 69.3079589"></polygon>
          <polygon id="Fill-169" fill="#E3E1E1" points="82.6416175 66.7189888 74.5880668 71.3761196 74.5880668 66.2268766 82.6416175 61.5691853"></polygon>
          <polygon id="Fill-171" fill="#E3E1E1" points="96.0235947 58.9804394 87.9706036 63.6375702 87.9706036 58.4877667 96.0235947 53.8306359"></polygon>
          <polygon id="Fill-173" fill="#E3E1E1" points="55.8771595 90.1551347 47.8236088 94.8122655 47.8236088 89.662462 55.8771595 85.0053312"></polygon>
          <polygon id="Fill-175" fill="#E3E1E1" points="69.2593605 82.4163051 61.2058099 87.0734358 61.2058099 81.9236323 69.2593605 77.2665016"></polygon>
          <polygon id="Fill-177" fill="#E3E1E1" points="82.6416175 74.6775315 74.5880668 79.3346622 74.5880668 74.1854192 82.6416175 69.527728"></polygon>
          <polygon id="Fill-179" fill="#E3E1E1" points="96.0235947 66.9387579 87.9706036 71.5958886 87.9706036 66.4466456 96.0235947 61.7889544"></polygon>
          <path d="M91.9969313,40.936622 C90.9253256,41.5565266 90.0562897,41.1888436 90.0562897,40.1149403 C90.0562897,39.0415975 90.9253256,37.6683913 91.9969313,37.0484868 C93.0690966,36.4291427 93.9375729,36.7968257 93.9375729,37.8701685 C93.9375729,38.9440718 93.0690966,40.3167175 91.9969313,40.936622 Z M78.6150101,48.6753396 C77.5428447,49.2952441 76.6743685,48.9270007 76.6743685,47.8536578 C76.6743685,46.780315 77.5428447,45.4076693 78.6150101,44.7877648 C79.6866158,44.1678603 80.5556516,44.5355433 80.5556516,45.6088861 C80.5556516,46.6827894 79.6866158,48.0554351 78.6150101,48.6753396 Z M65.2325292,56.4140572 C64.1609235,57.0339617 63.2918876,56.6657182 63.2918876,55.5923754 C63.2918876,54.5190326 64.1609235,53.1463869 65.2325292,52.5264824 C66.3046945,51.9065779 67.1737304,52.2742608 67.1737304,53.3481641 C67.1737304,54.4215069 66.3046945,55.7941526 65.2325292,56.4140572 Z M51.850608,64.1527747 C50.7784427,64.7726792 49.9099664,64.4049963 49.9099664,63.331093 C49.9099664,62.2577502 50.7784427,60.884544 51.850608,60.2651999 C52.9222137,59.6452954 53.7912496,60.0129784 53.7912496,61.0868817 C53.7912496,62.1602245 52.9222137,63.5328702 51.850608,64.1527747 Z M43.6107155,61.1507778 L43.6107155,72.7966874 L99.6660469,40.3806136 L99.6660469,28.7347041 L43.6107155,61.1507778 Z" id="Fill-181" fill="#28383C"></path>
          <path d="M118.707557,44.6999357 C119.220137,46.1432034 118.328158,47.0506405 118.1642,47.158255 L115.577797,49.89626 C115.413279,50.0033141 107.691562,50.0857064 107.527044,49.9786524 L103.668704,47.7602238 C101.034177,45.9795397 101.064954,42.084118 103.727461,40.3460313 L108.812412,37.0267957 L118.707557,44.6999357 Z" id="Fill-183" fill="#231F20"></path>
          <path d="M113.486851,49.6729599 C117.13087,48.8103622 119.678102,46.3884749 119.176713,44.2630879 C118.675325,42.137701 115.315016,41.1136816 111.670997,41.9762793 C108.027537,42.8383165 105.479746,45.2607643 105.981134,47.3861512 C106.482522,49.5115381 109.842832,50.5355576 113.486851,49.6729599 Z" id="Stroke-185" stroke="#F7BE02" stroke-width="0.5"></path>
          <path d="M113.810347,51.0443725 C110.166328,51.9069702 106.806019,50.8829507 106.30463,48.7575638 C106.249791,48.523278 106.036589,47.6203249 105.98119,47.3860391 C105.479802,45.2606522 108.027593,42.8382044 111.671053,41.9761672 C115.314512,41.1135695 118.675381,42.1375889 119.176769,44.2629759 C119.231609,44.4972616 119.444811,45.4007753 119.50021,45.6345006 C120.001598,47.7598875 117.454366,50.1817748 113.810347,51.0443725" id="Fill-187" fill="#F7CC00"></path>
          <path d="M113.267437,48.7435515 C110.503646,49.3976461 107.954735,48.6213642 107.574777,47.0088278 C107.194259,45.3968518 109.126507,43.559558 111.890298,42.9054634 C114.65409,42.2513689 117.203,43.0282113 117.583518,44.6401872 C117.964036,46.2521631 116.031229,48.089457 113.267437,48.7435515 M119.176657,44.2629759 C118.675269,42.1375889 115.31496,41.1135695 111.670941,41.9761672 C108.027481,42.8382044 105.47969,45.2606522 105.981078,47.3860391 C106.482467,49.511426 109.842776,50.5354455 113.486795,49.6728478 C117.130814,48.8108106 119.678046,46.3883628 119.176657,44.2629759" id="Fill-189" fill="#FEE10A"></path>
          <path d="M112.701025,43.2281389 C109.937234,43.8822334 108.004986,45.7195273 108.385504,47.3315032 C108.52596,47.927867 108.963556,48.4098904 109.598685,48.7473068 C108.530996,48.439036 107.769401,47.8337043 107.574665,47.0092201 C107.194147,45.3966837 109.126395,43.5593898 111.890186,42.9052953 C113.632175,42.4933334 115.287988,42.6497108 116.370226,43.2247759 C115.350102,42.9305174 114.051304,42.9086582 112.701025,43.2281389" id="Fill-191" fill="#DCB204"></path>
          <path d="M113.143657,48.2186504 C116.787676,47.3560528 119.334908,44.9341654 118.83352,42.8087785 C118.332131,40.6833916 114.971822,39.6593721 111.327803,40.5219698 C107.684344,41.3845675 105.136552,43.8064548 105.63794,45.9318418 C106.139329,48.0572287 109.499638,49.0812481 113.143657,48.2186504 Z" id="Stroke-193" stroke="#F7BE02" stroke-width="0.5"></path>
          <path d="M113.467153,49.5902873 C109.823134,50.452885 106.462825,49.428305 105.961437,47.3029181 C105.906597,47.0691928 105.693395,46.1656792 105.637996,45.9319539 C105.136608,43.8065669 107.6844,41.3841191 111.327859,40.5220819 C114.971878,39.6594842 118.332187,40.6835037 118.833576,42.8088906 C118.888415,43.0426159 119.101617,43.9461295 119.157016,44.1804153 C119.658404,46.3058022 117.111172,48.7276896 113.467153,49.5902873" id="Fill-195" fill="#F7CC00"></path>
          <path d="M112.924524,47.2894663 C110.160732,47.9435608 107.611821,47.1667184 107.231303,45.5547425 C106.850786,43.9422061 108.783593,42.1049122 111.547384,41.4508177 C114.311176,40.7972836 116.860087,41.5735655 117.240045,43.1861019 C117.620563,44.7980779 115.688315,46.6353717 112.924524,47.2894663 M118.833744,42.8088906 C118.332355,40.6835037 114.972046,39.6594842 111.328027,40.5220819 C107.684008,41.3841191 105.136776,43.8065669 105.638164,45.9319539 C106.139553,48.0573408 109.499862,49.0807997 113.143881,48.2187625 C116.78734,47.3561649 119.335132,44.9342775 118.833744,42.8088906" id="Fill-197" fill="#FEE10A"></path>
          <path d="M112.358111,41.7737734 C109.59432,42.4278679 107.662072,44.2651618 108.04259,45.8771377 C108.183046,46.4735015 108.620642,46.9555249 109.255771,47.2929413 C108.188082,46.985231 107.425927,46.3793388 107.231192,45.5548546 C106.851233,43.9423182 108.783481,42.1050243 111.547272,41.4509298 C113.289261,41.0389679 114.945074,41.1953453 116.027312,41.7704104 C115.007188,41.476152 113.708391,41.4542928 112.358111,41.7737734" id="Fill-199" fill="#DCB204"></path>
          <path d="M112.694478,45.837623 C116.338497,44.9750253 118.885729,42.553138 118.384341,40.4277511 C117.882952,38.3023641 114.522643,37.2783447 110.878624,38.1409424 C107.235165,39.0029796 104.687373,41.4248669 105.188761,43.5502538 C105.69015,45.6756407 109.050459,46.7002207 112.694478,45.837623 Z" id="Stroke-201" stroke="#F7BE02" stroke-width="0.5"></path>
          <path d="M113.017974,47.2090356 C109.373955,48.0716333 106.013646,47.0476138 105.512258,44.9222269 C105.457418,44.6879411 105.244216,43.784988 105.188817,43.5507022 C104.687429,41.4253153 107.235221,39.0028675 110.87868,38.1408303 C114.522699,37.2782326 117.883008,38.3022521 118.384397,40.427639 C118.439236,40.6619247 118.652438,41.5654384 118.707837,41.7991637 C119.209225,43.9245506 116.661993,46.3464379 113.017974,47.2090356" id="Fill-203" fill="#F7CC00"></path>
          <path d="M112.475345,44.9082146 C109.711553,45.5623092 107.162642,44.7854668 106.782124,43.1734909 C106.401606,41.5615149 108.334414,39.7242211 111.098205,39.0701265 C113.861997,38.416032 116.410907,39.1928744 116.790866,40.8048503 C117.171384,42.4168262 115.239136,44.2541201 112.475345,44.9082146 M118.384565,40.427639 C117.883176,38.3022521 114.522867,37.2782326 110.878848,38.1408303 C107.234829,39.0028675 104.687597,41.4253153 105.188985,43.5507022 C105.690374,45.6760891 109.050683,46.7001086 112.694702,45.8375109 C116.338161,44.9754737 118.885953,42.5530259 118.384565,40.427639" id="Fill-205" fill="#FEE10A"></path>
          <path d="M111.908932,39.3925217 C109.145141,40.0466163 107.212893,41.8839101 107.593411,43.4958861 C107.733867,44.0922499 108.171463,44.5742733 108.806592,44.9116897 C107.738903,44.6039794 106.976748,43.9980872 106.782012,43.173603 C106.402054,41.561627 108.334302,39.7243332 111.098093,39.0702386 C112.840082,38.6577163 114.495895,38.8140936 115.578133,39.3891588 C114.558009,39.0949003 113.259212,39.0730411 111.908932,39.3925217" id="Fill-207" fill="#DCB204"></path>
          <path d="M111.300439,44.3939629 C114.944458,43.5313652 117.49169,41.1094779 116.990302,38.984091 C116.488914,36.8587041 113.128604,35.8346846 109.484585,36.6972823 C105.841126,37.55988 103.293334,39.9817673 103.794723,42.1071542 C104.296111,44.2325411 107.65642,45.2565606 111.300439,44.3939629 Z" id="Stroke-209" stroke="#F7BE02" stroke-width="0.5"></path>
          <path d="M111.623936,45.7656558 C107.979917,46.6282535 104.619607,45.6036735 104.118219,43.4782866 C104.06338,43.2445613 103.850178,42.3410477 103.794779,42.1073224 C103.29339,39.9819355 105.841182,37.5594876 109.484641,36.6974504 C113.12866,35.8348527 116.48897,36.8588722 116.990358,38.9842591 C117.045197,39.2179844 117.258399,40.121498 117.313798,40.3557838 C117.815187,42.4811707 115.267955,44.9030581 111.623936,45.7656558" id="Fill-211" fill="#F7CC00"></path>
          <path d="M111.081306,43.4648348 C108.317514,44.1189293 105.768604,43.342087 105.388086,41.730111 C105.007568,40.1175746 106.940375,38.2802808 109.704167,37.6261862 C112.467958,36.9726522 115.016869,37.748934 115.396827,39.3614705 C115.777345,40.9734464 113.845097,42.8107402 111.081306,43.4648348 M116.990526,38.9842591 C116.489138,36.8588722 113.128828,35.8348527 109.484809,36.6974504 C105.84079,37.5594876 103.293558,39.9819355 103.794947,42.1073224 C104.296335,44.2327093 107.656644,45.2561683 111.300663,44.3941311 C114.944123,43.5315334 117.491914,41.109646 116.990526,38.9842591" id="Fill-213" fill="#FEE10A"></path>
          <path d="M110.514838,37.9491419 C107.751046,38.6032364 105.818798,40.4405303 106.198757,42.0525062 C106.339772,42.64887 106.776808,43.1308934 107.412497,43.4683098 C106.344249,43.1605995 105.582653,42.5547073 105.387918,41.7302231 C105.007959,40.1176867 106.940207,38.2803929 109.703999,37.6262983 C111.445988,37.2143364 113.1018,37.3707138 114.184038,37.9457789 C113.163914,37.6515205 111.865117,37.6296613 110.514838,37.9491419" id="Fill-215" fill="#DCB204"></path>
          <path d="M111.138663,42.6254975 C114.782682,41.7628998 117.329914,39.3410125 116.828526,37.2156256 C116.327138,35.0902387 112.966828,34.0662192 109.322809,34.9288169 C105.67935,35.7908541 103.131558,38.2133019 103.632947,40.3386888 C104.134335,42.4640757 107.494644,43.4880952 111.138663,42.6254975 Z" id="Stroke-217" stroke="#F7BE02" stroke-width="0.5"></path>
          <path d="M111.46216,43.9968541 C107.818141,44.8594518 104.457831,43.8354323 103.956443,41.7100454 C103.901603,41.4757596 103.688401,40.5728065 103.633003,40.3385207 C103.131614,38.2131338 105.679406,35.7906859 109.322865,34.9286487 C112.966884,34.066051 116.327194,35.0900705 116.828582,37.2154574 C116.883421,37.4497432 117.096623,38.3532569 117.152022,38.5869822 C117.653411,40.7123691 115.106179,43.1342564 111.46216,43.9968541" id="Fill-219" fill="#F7CC00"></path>
          <path d="M110.91953,41.6960891 C108.155738,42.3501837 105.606828,41.5739018 105.22631,39.9613654 C104.845792,38.3493895 106.778599,36.5120956 109.54239,35.8580011 C112.306182,35.2039065 114.855093,35.9807489 115.235051,37.5927248 C115.615569,39.2047007 113.683321,41.0419946 110.91953,41.6960891 M116.82875,37.2155135 C116.327361,35.0901266 112.967052,34.0661071 109.323033,34.9287048 C105.679014,35.790742 103.131782,38.2131898 103.63317,40.3385767 C104.134559,42.4639636 107.494868,43.4879831 111.138887,42.6253854 C114.782347,41.7633482 117.330138,39.3409004 116.82875,37.2155135" id="Fill-221" fill="#FEE10A"></path>
          <path d="M110.156927,41.3920221 C112.938066,40.778283 114.859122,38.9550014 114.447827,37.3194848 C114.295619,36.7147136 113.845713,36.2203594 113.198273,35.8689307 C114.282189,36.1979397 115.062251,36.8228886 115.272655,37.6591432 C115.68395,39.2946598 113.762894,41.1179413 110.981756,41.7316804 C109.229135,42.1184201 107.553177,41.9328971 106.450234,41.3337309 C107.485467,41.6476066 108.798254,41.6918854 110.156927,41.3920221" id="Fill-223" fill="#DCB204"></path>
          <path d="M202.823738,80.1850412 C203.336318,81.6288694 202.444339,82.535746 202.28038,82.6433605 L199.693978,85.3813655 C199.529459,85.4884196 191.807743,85.570812 191.643225,85.4637579 L187.784885,83.2453293 C185.150357,81.4652057 185.181135,77.569784 187.843641,75.8311368 L192.928592,72.5124617 L202.823738,80.1850412 Z" id="Fill-225" fill="#231F20"></path>
          <path d="M195.790647,85.873702 C192.147187,85.0111043 189.599396,82.589217 190.100784,80.4638301 C190.602172,78.3384432 193.962482,77.3144237 197.606501,78.1770214 C201.24996,79.0390586 203.797752,81.4609459 203.296363,83.5863328 C202.794975,85.7117197 199.434666,86.7362997 195.790647,85.873702 Z" id="Stroke-227" stroke="#F7BE02" stroke-width="0.5"></path>
          <path d="M195.46715,87.2451146 C199.11117,88.1077123 202.471479,87.0836928 202.972867,84.9583059 C203.028266,84.7240201 203.241468,83.821067 203.296307,83.5867812 C203.797696,81.4613943 201.249904,79.0389465 197.606445,78.1769093 C193.962985,77.3143116 190.602116,78.3383311 190.100728,80.463718 C190.045889,80.6980038 189.832687,81.6015174 189.777288,81.8352427 C189.275899,83.9606296 191.823691,86.3825169 195.46715,87.2451146" id="Fill-229" fill="#F7CC00"></path>
          <path d="M191.694315,80.8407612 C192.074273,79.2287852 194.623184,78.4519429 197.386976,79.1060374 C200.151327,79.760132 202.083015,81.5974258 201.703056,83.2099622 C201.323098,84.8219382 198.773628,85.59822 196.009836,84.9441255 C193.246045,84.2900309 191.313797,82.4527371 191.694315,80.8407612 M195.790479,85.8734218 C199.434498,86.7360195 202.794807,85.712 203.296196,83.5866131 C203.797584,81.4612262 201.250352,79.0393388 197.606333,78.1767411 C193.962873,77.3141434 190.602005,78.3381629 190.100616,80.4641103 C189.599228,82.5894972 192.147019,85.0113846 195.790479,85.8734218" id="Fill-231" fill="#FEE10A"></path>
          <path d="M196.576472,79.4286007 C199.340264,80.0826953 201.272512,81.9199891 200.891994,83.5319651 C200.751538,84.1283289 200.313942,84.6103523 199.678813,84.9477687 C200.746501,84.6400584 201.508656,84.0341662 201.703392,83.209682 C202.083351,81.597706 200.151103,79.7604122 197.387311,79.1063177 C195.645322,78.6937953 193.98951,78.8501727 192.907272,79.4252378 C193.927396,79.1309793 195.226193,79.1091201 196.576472,79.4286007" id="Fill-233" fill="#DCB204"></path>
          <path d="M195.061955,84.1615661 C191.417936,83.2989684 188.870704,80.8770811 189.372092,78.7516942 C189.873481,76.6263073 193.23379,75.6022878 196.877809,76.4648855 C200.521268,77.3269227 203.06906,79.7493705 202.567672,81.8747574 C202.066283,84.0001443 198.705974,85.0241638 195.061955,84.1615661 Z" id="Stroke-235" stroke="#F7BE02" stroke-width="0.5"></path>
          <path d="M194.738459,85.5329787 C198.382478,86.3955764 201.742787,85.3715569 202.244175,83.24617 C202.299015,83.0118842 202.512217,82.1089311 202.567616,81.8746453 C203.069004,79.7492584 200.521212,77.3268106 196.877753,76.4647734 C193.234294,75.6021757 189.873425,76.6261952 189.372036,78.7515821 C189.317197,78.9858679 189.103995,79.8893815 189.048596,80.1231068 C188.547208,82.2484937 191.09444,84.670381 194.738459,85.5329787" id="Fill-237" fill="#F7CC00"></path>
          <path d="M190.965343,79.1289055 C191.345861,77.5169296 193.894772,76.7400872 196.658563,77.3941817 C199.422355,78.0482763 201.354603,79.8855701 200.974085,81.4975461 C200.594126,83.1100825 198.045216,83.8863644 195.281424,83.2322698 C192.517073,82.5781753 190.584825,80.7408814 190.965343,79.1289055 M195.062067,84.1615661 C198.706086,85.0241638 202.065836,84.0001443 202.567224,81.8747574 C203.068612,79.7493705 200.52138,77.3269227 196.877361,76.4648855 C193.233902,75.6022878 189.873592,76.6263073 189.372204,78.7516942 C188.870816,80.8770811 191.418048,83.2989684 195.062067,84.1615661" id="Fill-239" fill="#FEE10A"></path>
          <path d="M195.84778,77.7167451 C198.611572,78.3708396 200.54382,80.2081335 200.163302,81.8201094 C200.022846,82.4164732 199.58525,82.8984966 198.950121,83.235913 C200.01781,82.9276422 200.779405,82.3223105 200.974141,81.4978263 C201.354659,79.8852899 199.422411,78.047996 196.658619,77.3939015 C194.916631,76.9819396 193.260818,77.138317 192.17858,77.7133821 C193.198704,77.4191237 194.497501,77.3972644 195.84778,77.7167451" id="Fill-241" fill="#DCB204"></path>
          <path d="M195.061955,82.1757418 C191.417936,81.3131441 188.870704,78.8912567 189.372092,76.7658698 C189.873481,74.6404829 193.23379,73.6164635 196.877809,74.4790611 C200.521268,75.3410983 203.06906,77.7635462 202.567672,79.8889331 C202.066283,82.01432 198.705974,83.0383395 195.061955,82.1757418 Z" id="Stroke-243" stroke="#F7BE02" stroke-width="0.5"></path>
          <path d="M194.738459,83.5471544 C198.382478,84.4097521 201.742787,83.3857326 202.244175,81.2603457 C202.299015,81.0260599 202.512217,80.1231068 202.567616,79.888821 C203.069004,77.7634341 200.521212,75.3409862 196.877753,74.4789491 C193.234294,73.6163514 189.873425,74.6403708 189.372036,76.7657577 C189.317197,77.0000435 189.103995,77.9035572 189.048596,78.1372825 C188.547208,80.2626694 191.09444,82.6845567 194.738459,83.5471544" id="Fill-245" fill="#F7CC00"></path>
          <path d="M190.965343,77.1430812 C191.345861,75.5311052 193.894772,74.7542629 196.658563,75.4083574 C199.422355,76.062452 201.354603,77.8997458 200.974085,79.5117218 C200.594126,81.1242582 198.045216,81.9005401 195.281424,81.2464455 C192.517073,80.592351 190.584825,78.7550571 190.965343,77.1430812 M195.062067,82.1757418 C198.706086,83.0383395 202.065836,82.01432 202.567224,79.8889331 C203.068612,77.7635462 200.52138,75.3410983 196.877361,74.4790611 C193.233902,73.6164635 189.873592,74.6404829 189.372204,76.7658698 C188.870816,78.8912567 191.418048,81.3131441 195.062067,82.1757418" id="Fill-247" fill="#FEE10A"></path>
          <path d="M195.84778,75.7309208 C198.611572,76.3850153 200.54382,78.2223092 200.163302,79.8342851 C200.022846,80.4306489 199.58525,80.9126723 198.950121,81.2500887 C200.01781,80.9418179 200.779405,80.3364862 200.974141,79.512002 C201.354659,77.8994656 199.422411,76.0621717 196.658619,75.4080772 C194.916631,74.9961153 193.260818,75.1524927 192.17858,75.7275578 C193.198704,75.4332993 194.497501,75.4114401 195.84778,75.7309208" id="Fill-249" fill="#DCB204"></path>
          <path d="M195.061955,79.5725352 C191.417936,78.7099375 188.870704,76.2880501 189.372092,74.1626632 C189.873481,72.0372763 193.23379,71.0132568 196.877809,71.8758545 C200.521268,72.7384522 203.06906,75.1603396 202.567672,77.2857265 C202.066283,79.4111134 198.705974,80.4351329 195.061955,79.5725352 Z" id="Stroke-251" stroke="#F7BE02" stroke-width="0.5"></path>
          <path d="M194.738459,80.944228 C198.382478,81.8068257 201.742787,80.7822458 202.244175,78.6568589 C202.299015,78.4231336 202.512217,77.5196199 202.567616,77.2858946 C203.069004,75.1605077 200.521212,72.7380599 196.877753,71.8760227 C193.234294,71.013425 189.873425,72.0374445 189.372036,74.1628314 C189.317197,74.3965567 189.103995,75.3000703 189.048596,75.5343561 C188.547208,77.659743 191.09444,80.0816304 194.738459,80.944228" id="Fill-253" fill="#F7CC00"></path>
          <path d="M190.965343,74.5398746 C191.345861,72.9278986 193.894772,72.1510563 196.658563,72.8051508 C199.422355,73.4592454 201.354603,75.2965392 200.974085,76.9085151 C200.594126,78.5210516 198.045216,79.2973334 195.281424,78.6432389 C192.517073,77.9891443 190.584825,76.1518505 190.965343,74.5398746 M195.062067,79.5725352 C198.706086,80.4351329 202.065836,79.4111134 202.567224,77.2857265 C203.068612,75.1603396 200.52138,72.7384522 196.877361,71.8758545 C193.233902,71.0132568 189.873592,72.0372763 189.372204,74.1626632 C188.870816,76.2880501 191.418048,78.7099375 195.062067,79.5725352" id="Fill-255" fill="#FEE10A"></path>
          <path d="M195.84778,73.1277141 C198.611572,73.7818087 200.54382,75.6191025 200.163302,77.2310785 C200.022846,77.8274423 199.58525,78.3094657 198.950121,78.6468821 C200.01781,78.3391718 200.779405,77.7332796 200.974141,76.9087954 C201.354659,75.296259 199.422411,73.4595256 196.658619,72.8054311 C194.916631,72.3929087 193.260818,72.5492861 192.17858,73.1243512 C193.198704,72.8300927 194.497501,72.8082335 195.84778,73.1277141" id="Fill-257" fill="#DCB204"></path>
          <path d="M195.061955,76.2251629 C191.417936,75.3625652 188.870704,72.9406779 189.372092,70.815291 C189.873481,68.6899041 193.23379,67.6658846 196.877809,68.5284823 C200.521268,69.3905195 203.06906,71.8124068 202.567672,73.9377937 C202.066283,76.0631806 198.705974,77.0877606 195.061955,76.2251629 Z" id="Stroke-259" stroke="#F7BE02" stroke-width="0.5"></path>
          <path d="M194.738459,77.5965755 C198.382478,78.4591732 201.742787,77.4345932 202.244175,75.3092063 C202.299015,75.075481 202.512217,74.1719674 202.567616,73.9382421 C203.069004,71.8128552 200.521212,69.3904074 196.877753,68.5283702 C193.234294,67.6657725 189.873425,68.689792 189.372036,70.8151789 C189.317197,71.0494646 189.103995,71.9524178 189.048596,72.1867036 C188.547208,74.3120905 191.09444,76.7339778 194.738459,77.5965755" id="Fill-261" fill="#F7CC00"></path>
          <path d="M190.965343,71.192222 C191.345861,69.5802461 193.894772,68.8034037 196.658563,69.4574983 C199.422355,70.1115928 201.354603,71.9488867 200.974085,73.5608626 C200.594126,75.173399 198.045216,75.9496809 195.281424,75.2955864 C192.517073,74.6414918 190.584825,72.804198 190.965343,71.192222 M195.062067,76.2248826 C198.706086,77.0874803 202.065836,76.0634609 202.567224,73.938074 C203.068612,71.8126871 200.52138,69.3907997 196.877361,68.528202 C193.233902,67.6656043 189.873592,68.6896238 189.372204,70.8150107 C188.870816,72.9409581 191.418048,75.3628455 195.062067,76.2248826" id="Fill-263" fill="#FEE10A"></path>
          <path d="M195.84778,69.7800616 C198.611572,70.4341562 200.54382,72.27145 200.163302,73.883426 C200.022846,74.4797898 199.58525,74.9618132 198.950121,75.2992296 C200.01781,74.9915193 200.779405,74.3856271 200.974141,73.5611429 C201.354659,71.9491669 199.422411,70.1118731 196.658619,69.4577785 C194.916631,69.0452562 193.260818,69.2016335 192.17858,69.7766987 C193.198704,69.4824402 194.497501,69.460581 195.84778,69.7800616" id="Fill-265" fill="#DCB204"></path>
          <path d="M140.104586,91.1794905 C140.78672,91.7080348 139.886907,93.8743376 139.843819,93.9018018 L138.508649,95.4795877 C138.210949,95.7945843 137.803012,95.9795468 137.369893,95.9952406 C135.993872,96.0451244 132.971553,96.07427 131.820486,96.0456849 C131.54461,96.0383985 131.27545,95.9644135 131.036507,95.8265324 L128.152964,94.1685961 C125.95939,92.6860939 125.985131,89.4430853 128.202208,87.9958941 L128.398622,87.8675414 C130.815471,86.2897555 133.964257,86.4181082 136.245126,88.187022 L140.104586,91.1794905 Z" id="Fill-267" fill="#231F20"></path>
          <path d="M124.311859,83.9207225 C125.180895,84.6751452 125.427113,85.9553097 124.832833,86.9412157 C124.693496,87.172699 124.555838,87.3145036 124.49988,87.354859 L122.535736,89.6837047 C122.096461,90.2049625 121.459653,90.5171567 120.779198,90.5406974 C119.085333,90.6001096 118.426701,93.0393722 116.98521,93.0085451 C116.536982,92.9995773 113.561108,90.462789 113.184507,90.2206563 L109.907576,88.1104027 C109.833711,88.0633213 109.761524,88.012877 109.693255,87.9585093 C107.125878,85.9015024 107.191349,81.5660943 109.856654,79.617823 L109.90142,79.5853144 C112.894082,77.3977128 116.99808,77.5703445 119.797685,80.0006392 L124.311859,83.9207225 Z" id="Fill-269" fill="#231F20"></path>
          <path d="M119.368204,92.3376919 C115.724184,91.4750942 113.176953,89.0532068 113.678341,86.9278199 C114.179729,84.802433 117.540039,83.7784135 121.184058,84.6410112 C124.827517,85.5030484 127.375309,87.9249358 126.87392,90.0508832 C126.372532,92.1762701 123.012223,93.2002896 119.368204,92.3376919 Z" id="Stroke-271" stroke="#F7BE02" stroke-width="0.5"></path>
          <path d="M119.044707,93.7091045 C122.688726,94.5717022 126.049036,93.5476827 126.550424,91.4222958 C126.605263,91.18801 126.818465,90.2850569 126.873864,90.0507711 C127.375253,87.9253842 124.827461,85.5029363 121.184002,84.6408991 C117.539983,83.7783014 114.179673,84.8023209 113.678285,86.9277078 C113.623446,87.1619936 113.410244,88.0655073 113.354845,88.2992326 C112.853456,90.4246195 115.400688,92.8465068 119.044707,93.7091045" id="Fill-273" fill="#F7CC00"></path>
          <path d="M115.271592,87.3050313 C115.65211,85.6930553 118.201021,84.916213 120.964812,85.5703075 C123.728604,86.2244021 125.660851,88.0616959 125.280333,89.6736718 C124.900375,91.2856478 122.351464,92.0624901 119.587673,91.4083956 C116.823322,90.754301 114.891074,88.9170072 115.271592,87.3050313 M119.368315,92.3376919 C123.012334,93.2002896 126.372084,92.1762701 126.873473,90.0508832 C127.374861,87.9249358 124.827629,85.5030484 121.18361,84.6410112 C117.54015,83.7784135 114.179841,84.802433 113.678453,86.9278199 C113.177064,89.0532068 115.724296,91.4750942 119.368315,92.3376919" id="Fill-275" fill="#FEE10A"></path>
          <path d="M120.153749,85.8928708 C122.917541,86.5469654 124.850348,88.3842592 124.46983,89.9962352 C124.328815,90.592599 123.891779,91.0740619 123.25609,91.4120388 C124.324338,91.103768 125.085934,90.4984363 125.280669,89.6739521 C125.660628,88.0614157 123.72838,86.2241218 120.964588,85.5700273 C119.223159,85.1580654 117.566787,85.3138823 116.485108,85.8895079 C117.504673,85.5952494 118.80347,85.5733902 120.153749,85.8928708" id="Fill-277" fill="#DCB204"></path>
          <path d="M117.964316,90.068931 C114.320297,89.2063333 111.773065,86.784446 112.274453,84.6590591 C112.775842,82.5336722 116.136151,81.5096527 119.78017,82.3722504 C123.42363,83.2342876 125.971421,85.6561749 125.470033,87.7815618 C124.968644,89.9075092 121.608335,90.9315287 117.964316,90.068931 Z" id="Stroke-279" stroke="#F7BE02" stroke-width="0.5"></path>
          <path d="M117.64082,91.4402876 C121.284839,92.3028853 124.645148,91.2788658 125.146537,89.1534789 C125.201376,88.9191931 125.414578,88.01624 125.469977,87.7819542 C125.971365,85.6565673 123.423574,83.2341194 119.780114,82.3720822 C116.136095,81.5094846 112.775786,82.533504 112.274397,84.6588909 C112.219558,84.8931767 112.006356,85.7966904 111.950957,86.0304157 C111.449569,88.1558026 113.996801,90.5776899 117.64082,91.4402876" id="Fill-281" fill="#F7CC00"></path>
          <path d="M113.867705,85.0359902 C114.248222,83.4240142 116.796574,82.6471719 119.560365,83.3012664 C122.324716,83.955361 124.256964,85.7926548 123.876446,87.4051912 C123.496488,89.0171672 120.947017,89.793449 118.183226,89.1393545 C115.419434,88.48526 113.487187,86.6479661 113.867705,85.0359902 M117.964428,90.0686508 C121.608447,90.9312485 124.968197,89.907229 125.469585,87.7818421 C125.970974,85.6564552 123.423742,83.2345678 119.779723,82.3719701 C116.136263,81.5093725 112.775954,82.5339524 112.274565,84.6593393 C111.773177,86.7847262 114.320409,89.2066136 117.964428,90.0686508" id="Fill-283" fill="#FEE10A"></path>
          <path d="M118.749918,83.6237737 C121.513709,84.2778683 123.445957,86.1151621 123.065439,87.727138 C122.924983,88.3235019 122.487388,88.8055253 121.852258,89.1429417 C122.919947,88.8352314 123.682102,88.2293392 123.876838,87.4048549 C124.256796,85.792879 122.324548,83.9555852 119.560757,83.3014906 C117.818768,82.8889683 116.162955,83.0453456 115.080717,83.6204108 C116.100841,83.3267128 117.399639,83.3042931 118.749918,83.6237737" id="Fill-285" fill="#DCB204"></path>
          <path d="M120.110325,88.5010098 C116.466866,87.6384121 113.919074,85.2165248 114.420463,83.0911379 C114.921851,80.9657509 118.282161,79.9417315 121.92618,80.8043292 C125.569639,81.6663664 128.117431,84.0882537 127.616042,86.2136406 C127.114654,88.339588 123.754344,89.3636075 120.110325,88.5010098 Z" id="Stroke-287" stroke="#F7BE02" stroke-width="0.5"></path>
          <path d="M119.786829,89.8724224 C123.430848,90.7350201 126.791158,89.7110006 127.292546,87.5856137 C127.347945,87.3513279 127.561147,86.4483748 127.615986,86.214089 C128.117375,84.0887021 125.569583,81.6662543 121.926124,80.8042171 C118.282664,79.9416194 114.921795,80.9656388 114.420407,83.0910258 C114.365568,83.3253115 114.152366,84.2288252 114.096967,84.4625505 C113.595578,86.5879374 116.14337,89.0098247 119.786829,89.8724224" id="Fill-289" fill="#F7CC00"></path>
          <path d="M116.013714,83.4683492 C116.394232,81.8563733 118.943143,81.0795309 121.706934,81.7336254 C124.470726,82.38772 126.402973,84.2250138 126.022455,85.8369898 C125.642497,87.4489657 123.093586,88.2258081 120.329795,87.5717135 C117.565444,86.917619 115.633756,85.0803251 116.013714,83.4683492 M120.110437,88.5010098 C123.754456,89.3636075 127.114766,88.339588 127.616154,86.2136406 C128.117542,84.0882537 125.569751,81.6663664 121.926291,80.8043292 C118.282272,79.9417315 114.921963,80.9657509 114.420575,83.0911379 C113.919186,85.2165248 116.466978,87.6384121 120.110437,88.5010098" id="Fill-291" fill="#FEE10A"></path>
          <path d="M120.896151,82.0561888 C123.659942,82.7102833 125.59219,84.5475772 125.211672,86.1595531 C125.071216,86.7559169 124.633621,87.2373798 123.998492,87.5753567 C125.06618,87.2670859 125.828335,86.6617542 126.022511,85.83727 C126.403029,84.2247336 124.470781,82.3874397 121.70699,81.7333452 C119.965001,81.3213833 118.309188,81.4772002 117.226951,82.0528258 C118.247075,81.7585673 119.545872,81.7367081 120.896151,82.0561888" id="Fill-293" fill="#DCB204"></path>
          <path d="M120.110325,86.2321929 C116.466866,85.3695952 113.919074,82.9477079 114.420463,80.822321 C114.921851,78.6969341 118.282161,77.6729146 121.92618,78.5355123 C125.569639,79.3975495 128.117431,81.8194368 127.616042,83.9448237 C127.114654,86.0707711 123.754344,87.0947906 120.110325,86.2321929 Z" id="Stroke-295" stroke="#F7BE02" stroke-width="0.5"></path>
          <path d="M119.786829,87.6036055 C123.430848,88.4662032 126.791158,87.4421837 127.292546,85.3167968 C127.347945,85.082511 127.561147,84.1795579 127.615986,83.9452721 C128.117375,81.8198852 125.569583,79.3974374 121.926124,78.5354002 C118.282664,77.6728025 114.921795,78.696822 114.420407,80.8222089 C114.365568,81.0564947 114.152366,81.9600083 114.096967,82.1937336 C113.595578,84.3191205 116.14337,86.7410078 119.786829,87.6036055" id="Fill-297" fill="#F7CC00"></path>
          <path d="M116.013714,81.1992521 C116.394232,79.5872761 118.943143,78.8104338 121.706934,79.4645283 C124.470726,80.1186228 126.402973,81.9559167 126.022455,83.5684531 C125.642497,85.180429 123.093586,85.9567109 120.329795,85.3026164 C117.565444,84.6485218 115.633756,82.811228 116.013714,81.1992521 M120.110437,86.2319127 C123.754456,87.0945103 127.114766,86.0704909 127.616154,83.945104 C128.117542,81.8197171 125.569751,79.3978297 121.926291,78.535232 C118.282272,77.6726343 114.921963,78.6966538 114.420575,80.8226012 C113.919186,82.9479881 116.466978,85.3698755 120.110437,86.2319127" id="Fill-299" fill="#FEE10A"></path>
          <path d="M120.896151,79.7870916 C123.659942,80.4411862 125.59219,82.27848 125.211672,83.890456 C125.071216,84.4868198 124.633621,84.9688432 123.998492,85.3062596 C125.06618,84.9985493 125.828335,84.3926571 126.022511,83.5681729 C126.403029,81.9561969 124.470781,80.1189031 121.70699,79.4648085 C119.965001,79.0522862 118.309188,79.2086636 117.226951,79.7837287 C118.247075,79.4900307 119.545872,79.467611 120.896151,79.7870916" id="Fill-301" fill="#DCB204"></path>
          <path d="M120.272102,84.6643277 C116.628642,83.80173 114.080851,81.3798427 114.582239,79.2544558 C115.083627,77.1290689 118.443937,76.1050494 122.087956,76.9676471 C125.731415,77.8296843 128.279207,80.2515716 127.777818,82.3769585 C127.27643,84.5029059 123.916121,85.5269254 120.272102,84.6643277 Z" id="Stroke-303" stroke="#F7BE02" stroke-width="0.5"></path>
          <path d="M119.948549,86.0357403 C123.592568,86.898338 126.952878,85.8743186 127.454266,83.7489316 C127.509665,83.5146459 127.722867,82.6116927 127.777706,82.3774069 C128.279095,80.25202 125.731303,77.8295722 122.087844,76.967535 C118.444384,76.1049373 115.083515,77.1289568 114.582127,79.2543437 C114.527288,79.4886295 114.314086,80.3921431 114.258687,80.6258684 C113.757298,82.7512553 116.30509,85.1731426 119.948549,86.0357403" id="Fill-305" fill="#F7CC00"></path>
          <path d="M116.17549,79.6313869 C116.556008,78.0194109 119.104919,77.2425686 121.86871,77.8966631 C124.632502,78.5507577 126.564749,80.3880515 126.184791,82.0005879 C125.804273,83.6125639 123.255362,84.3888457 120.491571,83.7347512 C117.72722,83.0806566 115.795532,81.2433628 116.17549,79.6313869 M120.272213,84.6640475 C123.916232,85.5266452 127.276542,84.5026257 127.77793,82.3772388 C128.279319,80.2518519 125.731527,77.8299645 122.088068,76.9673668 C118.444049,76.1047691 115.083739,77.1293491 114.582351,79.254736 C114.080962,81.3801229 116.628754,83.8020103 120.272213,84.6640475" id="Fill-307" fill="#FEE10A"></path>
          <path d="M121.057927,78.2192264 C123.821719,78.873321 125.753966,80.7106148 125.373448,82.3225908 C125.232993,82.9189546 124.795397,83.400978 124.160268,83.7383944 C125.227956,83.4306841 125.990111,82.8247919 126.184847,82.0003077 C126.564805,80.3883318 124.632558,78.5510379 121.868766,77.8969434 C120.126777,77.484421 118.470965,77.6407984 117.388727,78.2158635 C118.408851,77.9221655 119.707648,77.8997458 121.057927,78.2192264" id="Fill-309" fill="#DCB204"></path>
          <path d="M120.433822,82.9754522 C116.790362,82.1128545 114.242571,79.6909672 114.743959,77.5655803 C115.245347,75.4401934 118.605657,74.4161739 122.249676,75.2787716 C125.893135,76.1408088 128.440927,78.5626961 127.939538,80.688083 C127.43815,82.81347 124.077841,83.8380499 120.433822,82.9754522 Z" id="Stroke-311" stroke="#F7BE02" stroke-width="0.5"></path>
          <path d="M120.110325,84.3468649 C123.754344,85.2094626 127.114654,84.1848826 127.616042,82.0594957 C127.671441,81.8257704 127.884643,80.9222567 127.939482,80.6885314 C128.440871,78.5631445 125.893079,76.1406967 122.24962,75.2786595 C118.60616,74.4160618 115.245291,75.4400813 114.743903,77.5654682 C114.689064,77.799754 114.475862,78.7027071 114.420463,78.9369929 C113.919074,81.0623798 116.466866,83.4842672 120.110325,84.3468649" id="Fill-313" fill="#F7CC00"></path>
          <path d="M116.33721,77.9425114 C116.717728,76.3305355 119.266639,75.5536931 122.03043,76.2077876 C124.794222,76.8618822 126.72647,78.699176 126.346511,80.311152 C125.965993,81.9236884 123.417082,82.6999703 120.653291,82.0458757 C117.88894,81.3917812 115.957252,79.5544873 116.33721,77.9425114 M120.433934,82.975172 C124.077953,83.8377697 127.438262,82.8137502 127.93965,80.6883633 C128.441039,78.5629764 125.893247,76.141089 122.249788,75.2784914 C118.605769,74.4158937 115.245459,75.4399131 114.744071,77.5653 C114.242683,79.690687 116.790474,82.1131348 120.433934,82.975172" id="Fill-315" fill="#FEE10A"></path>
          <path d="M121.219647,76.530351 C123.983439,77.1844455 125.915686,79.0217394 125.535169,80.6337153 C125.394713,81.2300791 124.957117,81.7121025 124.321988,82.0495189 C125.389676,81.7418086 126.151831,81.1359164 126.346567,80.3114322 C126.726525,78.6994563 124.794278,76.8621624 122.030486,76.2080679 C120.288497,75.7955455 118.632685,75.9519229 117.550447,76.526988 C118.570571,76.2327295 119.869368,76.2108703 121.219647,76.530351" id="Fill-317" fill="#DCB204"></path>
          <path d="M121.064474,81.3922296 C117.420455,80.5296319 114.873223,78.1077445 115.374612,75.9823576 C115.876,73.8569707 119.236309,72.8329512 122.880328,73.6955489 C126.523788,74.5575861 129.071579,76.9794735 128.570191,79.1054209 C128.068803,81.2308078 124.708493,82.2548273 121.064474,81.3922296 Z" id="Stroke-319" stroke="#F7BE02" stroke-width="0.5"></path>
          <path d="M120.740978,82.7636422 C124.384997,83.6262399 127.745306,82.6022204 128.246695,80.4768335 C128.301534,80.2425477 128.514736,79.3395946 128.570135,79.1053088 C129.071523,76.9799219 126.523732,74.557474 122.880272,73.6954368 C119.236253,72.8328391 115.875944,73.8568586 115.374556,75.9822455 C115.319716,76.2165313 115.106514,77.1200449 115.051115,77.3537702 C114.549727,79.4791571 117.096959,81.9010445 120.740978,82.7636422" id="Fill-321" fill="#F7CC00"></path>
          <path d="M116.967863,76.359569 C117.348381,74.747593 119.896732,73.9707507 122.661083,74.6248452 C125.424874,75.2789397 127.357122,77.1162336 126.976604,78.7282095 C126.596646,80.340746 124.047735,81.1170278 121.283384,80.4629333 C118.519593,79.8088387 116.587345,77.9715449 116.967863,76.359569 M121.064586,81.3922296 C124.708605,82.2548273 128.068355,81.2308078 128.569743,79.1054209 C129.071132,76.9794735 126.5239,74.5575861 122.879881,73.6955489 C119.236421,72.8329512 115.876112,73.8569707 115.374724,75.9823576 C114.873335,78.1077445 117.420567,80.5296319 121.064586,81.3922296" id="Fill-323" fill="#FEE10A"></path>
          <path d="M121.85002,74.9474085 C124.613811,75.6015031 126.546619,77.4387969 126.166101,79.0507729 C126.025085,79.6471367 125.588049,80.1291601 124.952361,80.4665765 C126.020609,80.1583057 126.782204,79.552974 126.97694,78.7284898 C127.356898,77.1159534 125.42465,75.2786595 122.660859,74.624565 C120.91943,74.2126031 119.263057,74.36842 118.18082,74.9440456 C119.200943,74.6497871 120.499741,74.6279279 121.85002,74.9474085" id="Fill-325" fill="#DCB204"></path>
          <path d="M120.902698,79.1387702 C117.258679,78.2761725 114.711447,75.8542851 115.212836,73.7288982 C115.714224,71.6035113 119.074533,70.5794918 122.718552,71.4420895 C126.362012,72.3041267 128.909803,74.7260141 128.408415,76.851401 C127.907026,78.9767879 124.546717,80.0013678 120.902698,79.1387702 Z" id="Stroke-327" stroke="#F7BE02" stroke-width="0.5"></path>
          <path d="M120.579202,80.5101828 C124.223221,81.3727805 127.58353,80.3482005 128.084919,78.2228136 C128.139758,77.9890883 128.35296,77.0855747 128.408359,76.8518494 C128.909747,74.7264625 126.361956,72.3040146 122.718496,71.4419774 C119.074477,70.5793797 115.714168,71.6033992 115.21278,73.7287861 C115.15794,73.9625114 114.944738,74.8660251 114.889339,75.1003108 C114.387951,77.2256977 116.935183,79.6475851 120.579202,80.5101828" id="Fill-329" fill="#F7CC00"></path>
          <path d="M116.806087,74.1058293 C117.186605,72.4938534 119.734956,71.717011 122.499307,72.3711056 C125.263098,73.0252001 127.195346,74.8624939 126.814828,76.4744699 C126.43487,78.0870063 123.885959,78.8632882 121.121608,78.2091936 C118.357816,77.5550991 116.425569,75.7178052 116.806087,74.1058293 M120.90281,79.1384899 C124.546829,80.0010876 127.906579,78.9770681 128.407967,76.8516812 C128.909356,74.7262943 126.362124,72.304407 122.718105,71.4418093 C119.074645,70.5792116 115.714336,71.6032311 115.212947,73.728618 C114.711559,75.8540049 117.258791,78.2764527 120.90281,79.1384899" id="Fill-331" fill="#FEE10A"></path>
          <path d="M121.688244,72.6936689 C124.452035,73.3477634 126.384843,75.1850573 126.004325,76.7970332 C125.863309,77.3933971 125.426273,77.8754205 124.790584,78.2128368 C125.858833,77.9051265 126.620428,77.2992343 126.815164,76.4747501 C127.195122,74.8627742 125.262874,73.0254803 122.499083,72.3713858 C120.757654,71.9588634 119.101281,72.1152408 118.019044,72.6903059 C119.039167,72.3960475 120.337965,72.3741883 121.688244,72.6936689" id="Fill-333" fill="#DCB204"></path>
          <path d="M134.269622,95.5777859 C130.625603,94.7151882 128.078371,92.2933009 128.57976,90.167914 C129.081148,88.0425271 132.441458,87.0185076 136.085477,87.8811053 C139.728936,88.7431425 142.276728,91.1650298 141.775339,93.2904167 C141.273951,95.4163641 137.913082,96.4403836 134.269622,95.5777859 Z" id="Stroke-335" stroke="#F7BE02" stroke-width="0.5"></path>
          <path d="M133.946126,96.9491425 C137.589586,97.8117402 140.950455,96.7877207 141.451843,94.6623338 C141.506682,94.428048 141.719884,93.5250949 141.775283,93.2908091 C142.276672,91.1654222 139.72888,88.7429743 136.085421,87.8809371 C132.441402,87.0183394 129.081092,88.0423589 128.579704,90.1677458 C128.524305,90.4020316 128.311663,91.3055452 128.256264,91.5392705 C127.754875,93.6646575 130.302107,96.0865448 133.946126,96.9491425" id="Fill-337" fill="#F7CC00"></path>
          <path d="M130.173011,90.5448451 C130.552969,88.9328691 133.10188,88.1560268 135.865671,88.8101213 C138.630023,89.4642159 140.561711,91.3015097 140.181752,92.9140461 C139.801794,94.5260221 137.252324,95.3023039 134.488532,94.6482094 C131.724741,93.9941148 129.792493,92.156821 130.173011,90.5448451 M134.269734,95.5775057 C137.913194,96.4401034 141.273503,95.4160839 141.774892,93.290697 C142.27628,91.1653101 139.729048,88.7434227 136.085029,87.880825 C132.441569,87.0182273 129.080701,88.0428073 128.579312,90.1681942 C128.077924,92.2935811 130.625715,94.7154685 134.269734,95.5775057" id="Fill-339" fill="#FEE10A"></path>
          <path d="M135.055168,89.1326286 C137.81896,89.7867231 139.751208,91.624017 139.37069,93.2359929 C139.230234,93.8323568 138.792638,94.3143802 138.157509,94.6517965 C139.225197,94.3440863 139.987352,93.738194 140.182088,92.9137098 C140.562047,91.3017339 138.629799,89.4644401 135.866007,88.8103455 C134.124018,88.3978232 132.468206,88.5542005 131.385968,89.1292656 C132.406092,88.8355677 133.704889,88.813148 135.055168,89.1326286" id="Fill-341" fill="#DCB204"></path>
          <path d="M103.068941,96.3777206 C99.4249216,95.5151229 96.8776896,93.0932355 97.379078,90.9678486 C97.8804664,88.8424617 101.240776,87.8184422 104.884795,88.6810399 C108.528254,89.5430771 111.076046,91.9649645 110.574657,94.0903514 C110.073269,96.2162988 106.7124,97.2403183 103.068941,96.3777206 Z" id="Stroke-343" stroke="#F7BE02" stroke-width="0.5"></path>
          <path d="M102.745444,97.7491332 C106.388904,98.6117309 109.749773,97.5877114 110.251161,95.4623245 C110.306,95.2280387 110.519202,94.3250856 110.574601,94.0907998 C111.07599,91.9654129 108.528198,89.542965 104.884739,88.6809278 C101.24072,87.8183301 97.8804104,88.8423496 97.379022,90.9677365 C97.3236231,91.2020223 97.1109807,92.1055359 97.0555818,92.3392612 C96.5541934,94.4646482 99.1014254,96.8865355 102.745444,97.7491332" id="Fill-345" fill="#F7CC00"></path>
          <path d="M98.9723291,91.3447797 C99.3522874,89.7328038 101.901198,88.9559614 104.66499,89.610056 C107.429341,90.2641505 109.361588,92.1014444 108.981071,93.7139808 C108.601112,95.3259567 106.051642,96.1022386 103.28785,95.448144 C100.524059,94.7940495 98.5918111,92.9567556 98.9723291,91.3447797 M103.069053,96.3774403 C106.712512,97.240038 110.072821,96.2160185 110.57421,94.0906316 C111.075598,91.9652447 108.528366,89.5433574 104.884347,88.6807597 C101.240888,87.818162 97.8805783,88.8421815 97.3786303,90.9681289 C96.877242,93.0935158 99.4250335,95.5154031 103.069053,96.3774403" id="Fill-347" fill="#FEE10A"></path>
          <path d="M103.854486,89.9326193 C106.618278,90.5867138 108.550526,92.4240077 108.170008,94.0359836 C108.029552,94.6323475 107.591956,95.1143709 106.956827,95.4517872 C108.024516,95.1440769 108.786671,94.5381847 108.981406,93.7137005 C109.361365,92.1017246 107.429117,90.2644308 104.665325,89.6103362 C102.923337,89.1978139 101.267524,89.3541912 100.185286,89.9292563 C101.20541,89.6349979 102.504207,89.6131387 103.854486,89.9326193" id="Fill-349" fill="#DCB204"></path>
          <path d="M103.446269,94.7777952 C99.8022499,93.9151975 97.255018,91.4933102 97.7564063,89.3679233 C98.2577947,87.2425364 101.618104,86.2185169 105.262123,87.0811146 C108.905582,87.9431518 111.453374,90.3650391 110.951986,92.4909865 C110.450597,94.6163734 107.090288,95.6403929 103.446269,94.7777952 Z" id="Stroke-351" stroke="#F7BE02" stroke-width="0.5"></path>
          <path d="M103.122773,96.1492078 C106.766792,97.0118055 110.127101,95.987786 110.628489,93.8623991 C110.683329,93.6281134 110.896531,92.7251602 110.95193,92.4908744 C111.453318,90.3654875 108.905527,87.9430397 105.262067,87.0810025 C101.618048,86.2184048 98.2577387,87.2424243 97.7563504,89.3678112 C97.701511,89.602097 97.488309,90.5056106 97.4329101,90.7393359 C96.9315217,92.8647228 99.4787537,95.2866101 103.122773,96.1492078" id="Fill-353" fill="#F7CC00"></path>
          <path d="M99.3496574,89.7451346 C99.7301754,88.1331587 102.278527,87.3563163 105.042878,88.0104109 C107.806669,88.6645054 109.738917,90.5017993 109.358399,92.1137752 C108.97844,93.7257511 106.42953,94.5025935 103.665179,93.8484989 C100.901387,93.1944044 98.9691394,91.3571105 99.3496574,89.7451346 M103.446381,94.7777952 C107.0904,95.6403929 110.45015,94.6163734 110.951538,92.4909865 C111.452926,90.3650391 108.905694,87.9431518 105.261675,87.0811146 C101.618216,86.2185169 98.2579066,87.2425364 97.7565182,89.3679233 C97.2551299,91.4933102 99.8023619,93.9151975 103.446381,94.7777952" id="Fill-355" fill="#FEE10A"></path>
          <path d="M104.231815,88.3329742 C106.995606,88.9870687 108.927854,90.8243626 108.547336,92.4363385 C108.40688,93.0327024 107.969284,93.5141653 107.334155,93.8521421 C108.401844,93.5438714 109.163999,92.9385396 109.358735,92.1140554 C109.738693,90.501519 107.806445,88.6642252 105.042654,88.0101306 C103.300665,87.5981688 101.644852,87.7539856 100.562614,88.3296112 C101.582738,88.0353528 102.881536,88.0134936 104.231815,88.3329742" id="Fill-357" fill="#DCB204"></path>
          <path d="M103.861034,92.948012 C100.217015,92.0854143 97.6697825,89.6635269 98.1711709,87.53814 C98.6725593,85.4127531 102.032869,84.3887336 105.676888,85.2513313 C109.320347,86.1133685 111.868139,88.5352559 111.36675,90.6606428 C110.865362,92.7860297 107.505053,93.8106097 103.861034,92.948012 Z" id="Stroke-359" stroke="#F7BE02" stroke-width="0.5"></path>
          <path d="M103.537537,94.3194246 C107.181556,95.1820223 110.541866,94.1580028 111.043254,92.0320554 C111.098093,91.7983301 111.311295,90.8948165 111.366694,90.6610912 C111.868083,88.5357043 109.320291,86.1132564 105.676832,85.2512192 C102.032813,84.3886215 98.6725033,85.412641 98.1711149,87.5380279 C98.1162756,87.7723137 97.9030736,88.6752669 97.8476747,88.9095526 C97.3462863,91.0349396 99.8935183,93.4568269 103.537537,94.3194246" id="Fill-361" fill="#F7CC00"></path>
          <path d="M99.764422,87.9150711 C100.14494,86.3030952 102.693851,85.5262528 105.457642,86.1803474 C108.221434,86.8344419 110.153681,88.6717358 109.773163,90.2837117 C109.393205,91.8962481 106.844294,92.67253 104.080503,92.0184354 C101.316152,91.3643409 99.383904,89.527047 99.764422,87.9150711 M103.861145,92.9477317 C107.505164,93.8103294 110.864914,92.7863099 111.366303,90.660923 C111.867691,88.5355361 109.320459,86.1136488 105.67644,85.2510511 C102.032981,84.3884534 98.6726712,85.4124729 98.1712828,87.5378598 C97.6698944,89.6638072 100.217126,92.0856945 103.861145,92.9477317" id="Fill-363" fill="#FEE10A"></path>
          <path d="M104.646579,86.5029107 C107.410371,87.1570052 109.343178,88.9942991 108.96266,90.606275 C108.821645,91.2026389 108.384609,91.6846623 107.74892,92.0220786 C108.817168,91.7143684 109.578764,91.1084761 109.773499,90.2839919 C110.153458,88.672016 108.22121,86.8347222 105.457418,86.1806276 C103.715989,85.7681053 102.059617,85.9244826 100.977939,86.4995477 C101.997503,86.2052893 103.2963,86.1834301 104.646579,86.5029107" id="Fill-365" fill="#DCB204"></path>
          <polygon id="Fill-367" fill="#F8BE72" points="161.219079 107.109747 130.957829 89.610056 127.116836 93.2560585 127.116836 121.818187 157.378086 139.317878 161.219079 135.671876"></polygon>
          <polygon id="Fill-369" fill="#F08F03" points="157.377918 139.317766 127.116668 121.818075 127.116668 93.2559464 157.377918 110.755638"></polygon>
          <path d="M145.42557,115.593752 C145.42557,113.260983 143.987436,110.538671 142.21355,109.51297 C140.439665,108.486709 139.001531,109.546039 139.001531,111.878808 C139.001531,113.573737 139.762567,115.471564 140.858235,116.777511 L140.858235,122.191307 L143.568866,123.758443 L143.568866,118.345208 C144.664534,118.305974 145.42557,117.28868 145.42557,115.593752" id="Fill-371" fill="#28373C"></path>
          <path d="M156.698134,94.7255573 C156.698134,94.381415 156.657844,91.246021 155.257762,87.2457872 C153.927068,83.4434073 151.11907,78.203925 145.297704,74.8381686 C141.592131,72.6948459 138.700195,72.4140393 136.701916,74.003035 C136.190455,74.409392 134.752321,75.8184697 134.441751,76.0656468 C131.716571,78.2319496 131.738395,83.1513908 131.750146,83.720851 L131.887804,94.8034658 L135.350517,96.7309989 L137.610122,94.6683871 L137.472465,83.570639 L137.471345,83.5229972 C137.470786,83.497775 137.440568,81.6604812 138.110951,80.1118409 C139.36722,79.8371996 141.017437,80.285033 143.038099,81.4536595 C146.330139,83.357652 148.651299,86.1231211 149.936666,89.6744005 C150.919857,92.3911068 150.973577,94.6728711 150.975256,94.7944979 L150.958469,105.787434 L154.421742,107.804085 L156.681347,105.742034 L156.698134,94.7255573 Z" id="Fill-373" fill="#222327"></path>
          <path d="M131.88786,94.8035218 L131.750202,83.720907 C131.738451,83.1514468 131.716627,78.2320057 134.441807,76.0651423 C136.440645,74.4767071 139.332582,74.7575137 143.038155,76.9002759 C148.85952,80.2665928 151.667519,85.5060751 152.998213,89.3078945 C154.398295,93.3081283 154.438585,96.4435224 154.438585,96.7876646 L154.421798,107.804141 L150.958525,105.78749 L150.975312,94.7939934 C150.973074,94.6729271 150.919913,92.3911628 149.936162,89.6744565 C148.651355,86.1231771 146.330195,83.357708 143.038155,81.4537156 C140.330882,79.8882605 138.288955,79.6147402 136.968334,80.6410017 C135.15248,82.0517609 135.210677,85.550354 135.211237,85.5851045 L135.212356,85.6327464 L135.350014,96.7310549 L131.88786,94.8035218 Z" id="Fill-375" fill="#28373C"></path>
          <path d="M76.4317883,130.698852 C73.7172403,132.26823 71.5169512,130.677553 71.5169512,127.145891 C71.5169512,123.613668 73.7172403,119.477795 76.4317883,117.907856 C79.1463362,116.337917 81.3466254,117.929155 81.3466254,121.461378 C81.3466254,124.99304 79.1463362,129.128913 76.4317883,130.698852 M76.4317883,113.522004 C71.8560598,116.168649 68.1465693,123.140613 68.1465693,129.094723 C68.1465693,135.048833 71.8560598,137.730228 76.4317883,135.084144 C81.0075167,132.43862 84.7170072,125.466656 84.7170072,119.511985 C84.7170072,113.557875 81.0075167,110.87592 76.4317883,113.522004" id="Fill-377" fill="#28383C"></path>
          <polygon id="Fill-379" fill="#F08F03" points="33.6243574 105.588067 102.688367 137.927914 104.894252 136.384318 35.8302424 104.044471"></polygon>
        </g>
      </g>
    </g>
  </g>
</svg>
