<?xml version="1.0" encoding="UTF-8"?>
<svg xmlns="http://www.w3.org/2000/svg" xmlns:xlink="http://www.w3.org/1999/xlink" width="625px" height="389px" viewBox="0 0 625 389">
  <!-- Generator: Sketch 49 (51002) - http://www.bohemiancoding.com/sketch -->
  <title>unlock the power-desktop@1x</title>
  <desc>Created with Sketch.</desc>
  <defs>
    <rect id="path-1" x="0" y="0" width="193" height="44"></rect>
    <filter x="-5.2%" y="-18.2%" width="110.4%" height="145.5%" filterUnits="objectBoundingBox" id="filter-2">
      <feMorphology radius="1" operator="dilate" in="SourceAlpha" result="shadowSpreadOuter1"></feMorphology>
      <feOffset dx="0" dy="2" in="shadowSpreadOuter1" result="shadowOffsetOuter1"></feOffset>
      <feGaussianBlur stdDeviation="2" in="shadowOffsetOuter1" result="shadowBlurOuter1"></feGaussianBlur>
      <feColorMatrix values="0 0 0 0 0.8   0 0 0 0 0.8   0 0 0 0 0.8  0 0 0 1 0" type="matrix" in="shadowBlurOuter1"></feColorMatrix>
    </filter>
    <rect id="path-3" x="0" y="0" width="194" height="44"></rect>
    <filter x="-5.2%" y="-18.2%" width="110.3%" height="145.5%" filterUnits="objectBoundingBox" id="filter-4">
      <feMorphology radius="1" operator="dilate" in="SourceAlpha" result="shadowSpreadOuter1"></feMorphology>
      <feOffset dx="0" dy="2" in="shadowSpreadOuter1" result="shadowOffsetOuter1"></feOffset>
      <feGaussianBlur stdDeviation="2" in="shadowOffsetOuter1" result="shadowBlurOuter1"></feGaussianBlur>
      <feColorMatrix values="0 0 0 0 0.8   0 0 0 0 0.8   0 0 0 0 0.8  0 0 0 1 0" type="matrix" in="shadowBlurOuter1"></feColorMatrix>
    </filter>
    <rect id="path-5" x="0" y="0" width="141" height="44"></rect>
    <filter x="-7.1%" y="-18.2%" width="114.2%" height="145.5%" filterUnits="objectBoundingBox" id="filter-6">
      <feMorphology radius="1" operator="dilate" in="SourceAlpha" result="shadowSpreadOuter1"></feMorphology>
      <feOffset dx="0" dy="2" in="shadowSpreadOuter1" result="shadowOffsetOuter1"></feOffset>
      <feGaussianBlur stdDeviation="2" in="shadowOffsetOuter1" result="shadowBlurOuter1"></feGaussianBlur>
      <feColorMatrix values="0 0 0 0 0.8   0 0 0 0 0.8   0 0 0 0 0.8  0 0 0 1 0" type="matrix" in="shadowBlurOuter1"></feColorMatrix>
    </filter>
  </defs>
  <g id="Page-1" stroke="none" stroke-width="1" fill="none" fill-rule="evenodd">
    <g id="Desktop-HD" transform="translate(-209.000000, -1357.000000)">
      <g id="unlock-the-power-desktop" transform="translate(215.000000, 1357.000000)">
        <g id="Page-1" transform="translate(2.000000, 0.000000)">
          <g id="Group-7" transform="translate(0.000000, 47.034826)">
            <path d="M7.69086943e-05,107.16913 C0.589005235,118.960347 10.9366855,127.848486 22.6750672,126.645972 L84.2039454,120.341959 C92.3447307,119.507836 100.207107,123.573415 104.235584,130.700009 L121.192413,160.698224 C126.137257,169.446125 136.667019,173.350881 146.115829,169.940712 L182.135247,156.941017 C182.308484,156.878496 182.48172,156.818476 182.654957,156.760957 C200.192639,150.932486 212.648579,173.957236 198.398552,185.729216 C182.134093,199.165209 156.791717,226.703378 182.805891,252.289169 C187.697284,257.099995 192.207786,262.281521 198.357598,265.320798 C213.26904,272.690357 243.826787,287.08436 261.886679,290.659776 C296.820146,297.575916 345.00998,304.816393 369.811496,298.355597 L457.418958,275.533607 C468.288464,271.816029 474.0197,259.922854 470.15773,249.098881 L455.193413,207.158244 C450.052836,192.750775 461.837171,177.95837 477.021062,179.758775 L540.34845,187.268188 C548.457703,188.229853 556.369108,184.308553 560.517947,177.271412 L613.994485,86.5655675 C619.175824,77.7766919 617.150626,66.5177665 609.231914,60.0877499 L573.157314,30.7966919 C568.472806,26.9931231 562.357603,25.4349141 556.425443,26.5335476 L443.786316,47.3925791 C434.898362,49.0385095 428.120784,56.288798 427.07271,65.2713917 L421.063065,116.78905 C419.3928,131.106297 403.926654,139.330947 391.131355,132.706251 L302.161839,86.6421313 C296.364846,83.6405592 289.488824,83.565342 283.627613,86.4391794 L256.049693,99.9605857 C240.534133,107.567916 223.114314,93.8364398 226.875918,76.96373 L231.552351,55.9860053 C233.993049,45.0377599 227.235274,34.1464564 216.34558,31.4778793 L96.5860529,2.13026401 C58.2841773,-7.25573267 19.7752249,16.769541 11.3441093,55.3115509 L7.69086943e-05,107.16913 Z" id="Fill-1" fill="#FCE8D2"></path>
            <polygon id="Fill-3" fill="#1D1D1B" points="187.068267 225.098846 227.008682 247.768286 227.008682 202.078906"></polygon>
            <polygon id="Fill-5" fill="#1D1D1B" points="339.565094 136.990652 379.505702 159.660092 379.505702 113.970712"></polygon>
          </g>
          <polygon id="Fill-8" fill="#F7A83E" points="460.83582 206.075404 420.126894 229.483743 420.126894 174.981248 460.83582 151.57291"></polygon>
          <polygon id="Fill-9" fill="#E08208" points="379.418295 206.075404 420.127029 229.483743 420.127029 174.981248 379.418295 151.57291"></polygon>
          <polygon id="Fill-10" fill="#F18F00" points="379.418295 151.627217 420.127029 175.035555 460.835762 151.572775 420.127029 128.16463"></polygon>
          <polygon id="Fill-11" fill="#F7A83E" points="440.184085 147.695721 420.689077 158.905784 420.689077 132.805014 440.184085 121.594951"></polygon>
          <polygon id="Fill-12" fill="#E08208" points="401.194031 147.695721 420.689231 158.905784 420.689231 132.805014 401.194031 121.594951"></polygon>
          <polygon id="Fill-13" fill="#F18F00" points="401.194031 121.621018 420.689231 132.831081 440.184047 121.595047 420.689231 110.384984"></polygon>
          <polygon id="Fill-14" fill="#1D1D1B" points="393.726023 143.375904 401.19405 147.690796 401.19405 139.076594"></polygon>
          <polygon id="Fill-16" fill="#F7A83E" points="398.12745 255.824168 341.457471 288.41055 341.457471 212.53847 398.12745 179.952089"></polygon>
          <polygon id="Fill-17" fill="#E08208" points="284.787377 255.824168 341.457356 288.41055 341.457356 212.53847 284.787377 179.952089"></polygon>
          <polygon id="Fill-18" fill="#F18F00" points="284.787377 180.027652 341.457356 212.614034 398.127527 179.95205 341.457356 147.365669"></polygon>
          <polygon id="Fill-19" fill="#F7A83E" points="369.378481 174.554742 342.239902 190.159916 342.239902 153.825561 369.378481 138.220387"></polygon>
          <polygon id="Fill-20" fill="#E08208" points="315.10115 174.554742 342.239729 190.159916 342.239729 153.825561 315.10115 138.220387"></polygon>
          <polygon id="Fill-21" fill="#F18F00" points="315.10115 138.256553 342.239729 153.861919 369.3785 138.220387 342.239729 122.61502"></polygon>
          <g id="Group-26" transform="translate(227.072920, 162.457711)" fill="#1D1D1B">
            <polygon id="Fill-22" points="77.6945666 6.07284046 88.028211 12.0432816 88.028211 0.125483914"></polygon>
            <polygon id="Fill-24" points="0.0614692739 60.930741 57.7145338 93.6533214 57.7145338 27.7022235"></polygon>
          </g>
          <polygon id="Fill-27" fill="#F7A83E" points="308.426283 294.803073 267.71755 318.211412 267.71755 263.708917 308.426283 240.300579"></polygon>
          <polygon id="Fill-28" fill="#E08208" points="227.008778 294.803073 267.717704 318.211412 267.717704 263.708917 227.008778 240.300579"></polygon>
          <polygon id="Fill-29" fill="#F18F00" points="227.008778 240.354905 267.717704 263.763243 308.426245 240.300464 267.717704 216.892318"></polygon>
          <polygon id="Fill-30" fill="#1D1D1B" points="241.316487 232.108671 248.784706 236.42337 248.784706 227.804359"></polygon>
          <polygon id="Fill-32" fill="#F7A83E" points="287.774722 236.423409 268.279522 247.63328 268.279522 221.532702 287.774722 210.322639"></polygon>
          <polygon id="Fill-33" fill="#E08208" points="248.784667 236.423409 268.279675 247.63328 268.279675 221.532702 248.784667 210.322639"></polygon>
          <polygon id="Fill-34" fill="#F18F00" points="248.784667 210.348706 268.279675 221.558769 287.774684 210.322736 268.279675 199.112673"></polygon>
          <polygon id="Fill-35" fill="#1D1D1B" points="34.4683426 107.613123 92.3742444 140.479405 92.3742444 74.2387881"></polygon>
          <polygon id="Fill-37" fill="#267EA5" points="183.098336 84.5637692 162.207435 114.180897 142.473049 106.565102 148.816093 78.3582501 162.785596 67.7808968"></polygon>
          <g id="Group-230" transform="translate(55.181988, 0.096186)">
            <path d="M108.100342,94.0549738 C103.207026,102.534901 103.456403,111.844718 108.657353,114.849176 C113.858304,117.853441 122.041389,113.414662 126.934704,104.934735 C131.82802,96.454808 131.578644,87.1449904 126.377885,84.1405327 C121.176743,81.1362673 112.993658,85.5750468 108.100342,94.0549738" id="Fill-38" fill="#2C91C9"></path>
            <path d="M95.453034,87.0058866 C111.090302,58.7330507 136.846831,43.0553526 152.982083,51.9888915 C169.117143,60.9220458 169.520721,91.0835847 153.883645,119.356421 C138.246185,147.629064 112.489463,163.306955 96.3545962,154.373608 C80.2195367,145.440261 79.815766,115.278722 95.453034,87.0058866 M89.4645385,164.547173 C110.58059,176.238165 143.09374,157.879963 162.085189,123.543193 C181.076445,89.2062315 179.354075,51.8930905 158.237831,40.2019065 C137.121972,28.5107224 104.608437,46.8687323 85.6171811,81.2058866 C66.625925,115.542848 68.3484874,152.855989 89.4645385,164.547173" id="Fill-40" fill="#2C91C9"></path>
            <path d="M32.7288794,84.4792411 L30.0611091,63.3830156 L50.3592362,74.8068033 C50.3592362,74.8068033 56.3481162,119.664369 57.1254709,125.719838 C58.1122094,133.406233 38.8006285,140.60939 38.8006285,140.60939 C38.8006285,140.60939 33.1622599,137.637251 27.2420209,135.239725 C21.3215896,132.842007 20.7576566,124.335725 20.7576566,124.335725 L14.4144198,74.1721698 L32.7288794,84.4792411 Z" id="Fill-42" fill="#2C91C9"></path>
            <polygon id="Fill-44" fill="#267EA5" points="71.2113944 35.9521128 71.2113944 30.8748524 38.8007247 48.8608159 38.8007247 95.8914096 43.7342251 94.9041592 43.7342251 52.5004842"></polygon>
            <path d="M145.28483,113.15094 C158.72251,88.8553844 160.314712,63.1649433 150.257747,50.7490959 C151.191995,51.0919018 152.102017,51.5016531 152.982045,51.98893 C169.117104,60.9220842 169.520683,91.0836232 153.883607,119.356267 C138.246339,147.629102 112.489617,163.306993 96.35475,154.373646 C94.0847899,153.116884 92.12631,151.440174 90.4800794,149.407577 C106.672051,155.349547 130.500288,139.881726 145.28483,113.15094" id="Fill-46" fill="#267EA5"></path>
            <polygon id="Fill-48" fill="#E6E5E3" points="121.967191 37.8561095 68.0499663 34.6827496 40.7554553 50.4691376 40.3514924 93.2435124 66.5698585 124.335552 81.3705522 77.0593002 101.147623 52.8760896"></polygon>
            <path d="M161.192317,125.128219 C161.492838,124.603622 161.790667,124.07537 162.085227,123.543078 C161.790667,124.07537 161.492838,124.603622 161.192317,125.128219" id="Fill-50" fill="#267EA5"></path>
            <path d="M158.40082,129.744384 C158.587755,129.450825 158.771616,129.153419 158.956437,128.857167 C158.771616,129.153419 158.587563,129.450825 158.40082,129.744384" id="Fill-52" fill="#267EA5"></path>
            <path d="M159.349027,128.230209 C159.544223,127.912796 159.736345,127.591343 159.929044,127.270852 C159.736345,127.591343 159.544223,127.912796 159.349027,128.230209" id="Fill-54" fill="#267EA5"></path>
            <path d="M160.279219,126.692084 C160.486488,126.343122 160.690872,125.989735 160.895257,125.637311 C160.690872,125.989735 160.486488,126.343122 160.279219,126.692084" id="Fill-56" fill="#267EA5"></path>
            <path d="M153.967792,136.195696 C153.782395,136.446356 153.597765,136.697978 153.411407,136.946137 C153.597765,136.697978 153.782395,136.446356 153.967792,136.195696" id="Fill-58" fill="#267EA5"></path>
            <path d="M154.991682,134.787749 C154.808013,135.044372 154.625305,135.30215 154.440291,135.556465 C154.625305,135.30215 154.808013,135.044372 154.991682,134.787749" id="Fill-60" fill="#267EA5"></path>
            <path d="M156.004128,133.348444 C155.82142,133.612955 155.639289,133.87862 155.454467,134.140823 C155.639289,133.87862 155.82142,133.612955 156.004128,133.348444" id="Fill-62" fill="#267EA5"></path>
            <path d="M144.160405,147.655323 C143.962711,147.854153 143.764633,148.053367 143.565979,148.249699 C143.764633,148.053367 143.962519,147.854153 144.160405,147.655323" id="Fill-64" fill="#267EA5"></path>
            <path d="M157.435135,131.234801 C157.61938,130.955093 157.800743,130.671538 157.983067,130.389136 C157.800743,130.671538 157.61938,130.955093 157.435135,131.234801" id="Fill-74" fill="#267EA5"></path>
            <path d="M152.927945,137.579213 C152.741395,137.823332 152.555613,138.068413 152.367717,138.310032 C152.555613,138.068413 152.741395,137.823332 152.927945,137.579213" id="Fill-80" fill="#267EA5"></path>
            <path d="M151.87608,138.933315 C151.687608,139.172241 151.49952,139.412128 151.309704,139.648553 C151.49952,139.412128 151.687608,139.172241 151.87608,138.933315" id="Fill-82" fill="#267EA5"></path>
            <path d="M149.731051,141.563207 C149.53989,141.790205 149.349113,142.017973 149.156606,142.242663 C149.349113,142.017973 149.539698,141.790205 149.731051,141.563207" id="Fill-98" fill="#267EA5"></path>
            <path d="M148.638253,142.838899 C148.445746,143.060318 148.253432,143.282123 148.059581,143.500849 C148.253432,143.282123 148.445746,143.060318 148.638253,142.838899" id="Fill-100" fill="#267EA5"></path>
            <path d="M150.812945,140.258312 C150.621592,140.493006 150.430814,140.728276 150.238308,140.960276 C150.430814,140.728276 150.621592,140.493006 150.812945,140.258312" id="Fill-102" fill="#267EA5"></path>
            <path d="M145.298269,146.490956 C145.100383,146.696986 144.902497,146.9034 144.703843,147.106545 C144.902689,146.9034 145.100383,146.696986 145.298269,146.490956" id="Fill-104" fill="#267EA5"></path>
            <path d="M156.45255,132.700595 C156.636795,132.430121 156.818542,132.155607 157.001058,131.882632 C156.818542,132.155607 156.636795,132.430121 156.45255,132.700595" id="Fill-106" fill="#267EA5"></path>
            <path d="M146.42262,145.301408 C146.226463,145.512632 146.030114,145.72424 145.832997,145.932963 C146.030114,145.724433 146.226463,145.512632 146.42262,145.301408" id="Fill-108" fill="#267EA5"></path>
            <path d="M147.535686,144.084331 C147.34145,144.300364 147.147599,144.516782 146.952403,144.730122 C147.147599,144.516782 147.34145,144.300364 147.535686,144.084331" id="Fill-110" fill="#267EA5"></path>
            <path d="M138.350666,153.026892 C138.146473,153.199404 137.942473,153.371339 137.737703,153.54116 C137.942473,153.371531 138.146473,153.199404 138.350666,153.026892" id="Fill-136" fill="#267EA5"></path>
            <path d="M76.316555,78.444798 C115.412513,10.3545294 155.036449,38.4294149 158.237773,40.2019257 C137.121915,28.5107416 104.608572,46.8687516 85.6171234,81.2059058 C66.6260596,115.542868 68.348622,152.856009 89.4644809,164.547193 C89.7963419,164.730907 90.1314715,164.90712 90.4687161,165.076214 C86.8288199,164.635299 41.1796644,139.639703 76.316555,78.444798" id="Fill-146" fill="#267EA5"></path>
            <path d="M143.01523,148.78841 C142.815615,148.982437 142.616193,149.176656 142.415809,149.368186 C142.616193,149.176656 142.815615,148.982437 143.01523,148.78841" id="Fill-150" fill="#267EA5"></path>
            <path d="M139.530387,152.010363 C139.326964,152.188445 139.123348,152.366528 138.919348,152.542113 C139.123348,152.366528 139.326964,152.188445 139.530387,152.010363" id="Fill-156" fill="#267EA5"></path>
            <path d="M141.863932,149.890237 C141.662239,150.079653 141.460546,150.26907 141.258276,150.455605 C141.460546,150.26907 141.662239,150.079653 141.863932,149.890237" id="Fill-160" fill="#267EA5"></path>
            <path d="M140.701476,150.964728 C140.498245,151.148957 140.295398,151.333187 140.091398,151.514728 C140.295398,151.333187 140.498245,151.148957 140.701476,150.964728" id="Fill-162" fill="#267EA5"></path>
            <path d="M14.4146313,74.1721506 L20.7576758,124.335706 C20.7576758,124.335706 21.3216088,132.841988 27.2420401,135.239514 C33.1622791,137.637232 35.6241264,139.648476 35.6241264,139.648476 C35.6241264,139.648476 42.183669,142.573292 41.4789931,136.508973 C40.7741249,130.444462 34.7127584,85.5959383 34.7127584,85.5959383 L14.4146313,74.1721506 Z" id="Fill-178" fill="#267EA5"></path>
            <polygon id="Fill-180" fill="#2C91C9" points="71.2113944 30.8749486 36.304653 10.7071078 0.0366277657 29.1826567 0.0366277657 67.6846534 38.8007247 95.8913134 38.8007247 48.8607197"></polygon>
            <polygon id="Fill-182" fill="#E6E5E3" points="7.75797227 58.1648239 7.75797227 60.1164325 19.418484 68.6013612 19.418484 66.4800809"></polygon>
            <polygon id="Fill-184" fill="#E6E5E3" points="7.87120109 54.0231045 7.87120109 55.9747131 19.531905 64.4594494 19.531905 62.3383615"></polygon>
            <polygon id="Fill-186" fill="#E6E5E3" points="7.87120109 50.2016066 7.87120109 52.1532153 19.531905 60.6379516 19.531905 58.5168637"></polygon>
            <polygon id="Fill-188" fill="#231F20" points="493.937725 89.7020113 422.288048 131.504333 477.156248 163.442807 548.754205 121.92558"></polygon>
            <polygon id="Fill-190" fill="#BEBDBD" points="477.15621 163.44275 477.15621 151.746179 485.871118 147.067512 485.871118 139.517701 493.937687 134.839035 493.937687 127.608561 502.344192 122.61075 502.344192 115.273701 510.952582 110.276083 510.952582 103.045609 519.029917 98.1541791 519.029917 87.0955124 548.681488 69.3378939 548.681488 122.185416"></polygon>
            <polygon id="Fill-192" fill="#BEBDBD" points="443.891123 132.712445 443.891123 143.983875 477.156248 163.442827 477.156248 151.746064"></polygon>
            <polygon id="Fill-194" fill="#BEBDBD" points="485.693902 67.9909857 485.693902 79.2622229 518.959027 98.7213672 518.959027 87.0246043"></polygon>
            <polygon id="Fill-196" fill="#BEBDBD" points="452.60607 120.48416 452.60607 127.395875 485.871195 146.854827 485.871195 139.517778"></polygon>
            <polygon id="Fill-198" fill="#F4F4F4" points="452.60607 127.395817 443.891161 132.712387 477.305297 151.746198 485.871195 147.067532"></polygon>
            <polygon id="Fill-200" fill="#F4F4F4" points="461.143762 115.220626 452.428853 120.537389 485.842989 139.571008 494.408887 134.892341"></polygon>
            <polygon id="Fill-202" fill="#F4F4F4" points="469.387605 103.045532 460.672696 108.362102 494.086832 127.395913 502.65273 122.717054"></polygon>
            <polygon id="Fill-204" fill="#F4F4F4" points="477.776209 90.8703217 469.061493 96.1870846 502.475436 115.220703 511.041334 110.542036"></polygon>
            <polygon id="Fill-206" fill="#F4F4F4" points="485.871138 78.695131 477.156229 84.0118939 510.570365 103.045512 519.136263 98.3668458"></polygon>
            <polygon id="Fill-208" fill="#F4F4F4" points="515.416401 49.6661983 485.693882 68.0617207 519.108018 87.0955317 548.681526 69.3379131"></polygon>
            <polygon id="Fill-210" fill="#BEBDBD" points="460.672658 108.574788 460.672658 115.486503 493.937783 134.945455 493.937783 127.608407"></polygon>
            <polygon id="Fill-212" fill="#BEBDBD" points="469.061454 96.2933506 469.061454 103.205065 502.32658 122.664017 502.32658 115.326969"></polygon>
            <polygon id="Fill-214" fill="#BEBDBD" points="477.776209 84.029592 477.776209 90.9413068 511.041334 110.400259 511.041334 103.063211"></polygon>
            <polygon id="Fill-216" fill="#221E20" points="544.13455 67.8785446 533.363102 76.9434733 500.944165 58.6233605 512.918849 51.2928531"></polygon>
            <polygon id="Fill-218" fill="#F8BE72" points="545.790451 69.3378746 541.234573 45.9485811 541.945786 45.4345645 552.881241 36.4852511 536.626588 23.9447469 529.356794 0.0960703151 518.421339 9.04519138 516.391142 13.3600836 505.832732 9.30758607 494.896892 18.2567071 506.659116 40.3459542 503.882327 60.3391217 518.421339 58.5410255 532.960159 77.1358448"></polygon>
            <polygon id="Fill-220" fill="#F08E00" points="518.421204 9.04528756 525.690806 32.8939642 541.945651 45.4344683 530.183428 53.9349791 532.960024 77.135941 518.421204 58.5409294 503.882577 60.3392179 506.659173 40.3462428 494.89695 18.2568033 511.151795 24.4954103"></polygon>
            <polygon id="Fill-222" fill="#598E14" points="226.463495 158.425124 219.427311 136.491313 213.529183 139.801257 150.376763 103.802398 131.935212 114.431307 131.935212 123.316753 187.05375 154.736017 187.258904 163.428899 226.463495 167.310378"></polygon>
            <polygon id="Fill-224" fill="#64A816" points="226.463495 158.425124 219.427311 136.491313 213.529183 139.801257 150.376763 103.802398 131.935212 114.431307 194.840178 150.288965 187.258904 154.543645"></polygon>
            <polygon id="Fill-226" fill="#F18F00" points="489.897962 96.631328 482.86197 118.565139 476.96365 115.255195 413.811229 151.254054 395.36987 140.625146 395.36987 131.7397 450.488408 100.320436 450.69337 91.6275536 489.897962 87.7460743"></polygon>
            <polygon id="Fill-228" fill="#FBBA0A" points="489.897962 87.7822401 482.86197 109.716051 476.96365 106.406107 413.811229 142.404967 395.36987 131.776058 458.274645 95.918207 450.69337 91.6637194"></polygon>
          </g>
        </g>
        <text id="+" font-family="HelveticaNeue-Bold, Helvetica Neue" font-size="20" font-weight="bold" fill="#64A816">
          <tspan x="205" y="367">+</tspan>
        </text>
        <text id="=" font-family="HelveticaNeue-Bold, Helvetica Neue" font-size="20" font-weight="bold" fill="#F08F00">
          <tspan x="431" y="367">=</tspan>
        </text>
        <g id="Group-30" transform="translate(227.000000, 337.000000)">
          <g id="Group-35-Copy-2">
            <g id="Group-21-Copy">
              <g id="Rectangle-5-Copy-6">
                <use fill="black" fill-opacity="1" filter="url(#filter-2)" xlink:href="#path-1"></use>
                <use fill="#FFFFFF" fill-rule="evenodd" xlink:href="#path-1"></use>
              </g>
            </g>
          </g>
          <text id="The-Crowdcube-Platfo" font-family="HelveticaNeue, Helvetica Neue" font-size="14" font-weight="normal" fill="#29383C">
            <tspan x="18.572" y="25">The Crowdcube Platform</tspan>
          </text>
        </g>
        <g id="Group-9" transform="translate(0.000000, 337.000000)">
          <g id="Group-35-Copy">
            <g id="Group-21-Copy">
              <g id="Rectangle-5-Copy-6">
                <use fill="black" fill-opacity="1" filter="url(#filter-4)" xlink:href="#path-3"></use>
                <use fill="#FFFFFF" fill-rule="evenodd" xlink:href="#path-3"></use>
              </g>
            </g>
          </g>
          <text id="Your-marketing-activ" font-family="HelveticaNeue, Helvetica Neue" font-size="14" font-weight="normal" fill="#29383C">
            <tspan x="26.173" y="25">Your marketing activity</tspan>
          </text>
        </g>
        <g id="Group-28" transform="translate(453.000000, 337.000000)">
          <g id="Group-35-Copy-3">
            <g id="Group-21-Copy">
              <g id="Rectangle-5-Copy-6">
                <use fill="black" fill-opacity="1" filter="url(#filter-6)" xlink:href="#path-5"></use>
                <use fill="#FFFFFF" fill-rule="evenodd" xlink:href="#path-5"></use>
              </g>
            </g>
          </g>
          <text id="Investment" font-family="HelveticaNeue, Helvetica Neue" font-size="14" font-weight="normal" fill="#29383C">
            <tspan x="37.004" y="25">Investment</tspan>
          </text>
        </g>
      </g>
    </g>
  </g>
</svg>
