<?xml version="1.0" encoding="UTF-8"?>
<!-- Generator: Adobe Illustrator 19.2.1, SVG Export Plug-In . SVG Version: 6.00 Build 0)  -->
<svg xmlns="http://www.w3.org/2000/svg" xmlns:xlink="http://www.w3.org/1999/xlink" id="Layer_1" x="0px" y="0px" viewBox="0 0 33 34" style="enable-background:new 0 0 33 34;" xml:space="preserve">
<g id="Modals">
	<path d="M16.7,33.2C7.8,33.2,0.5,26,0.5,17c0-9,7.3-16.2,16.2-16.2C25.7,0.8,33,8,33,17C33,26,25.7,33.2,16.7,33.2z M16.7,2.8   C8.9,2.8,2.5,9.1,2.5,17s6.4,14.2,14.2,14.2S31,24.9,31,17S24.6,2.8,16.7,2.8z M13.3,22l-1.4-1.4l3.4-3.4L12,13.7l1.4-1.4l3.4,3.4   l3.3-3.3l1.4,1.4l-3.3,3.3l3.4,3.4l-1.4,1.4l-3.4-3.4L13.3,22z"></path>
</g>
</svg>
